<svg width="42" height="42" viewBox="0 0 42 42" fill="none" xmlns="http://www.w3.org/2000/svg">
<rect width="42" height="42" rx="21" fill="white"/>
<path d="M11.7959 21.2979C11.7119 22.7738 12.8355 24.0373 14.2951 24.1223C14.3476 24.1223 14.4001 24.1223 14.4526 24.1223C15.9228 24.1223 17.1094 22.9224 17.0989 21.4359C17.0989 19.9494 15.9123 18.7496 14.4421 18.7602C13.035 18.7602 11.8694 19.8751 11.7959 21.2979Z" fill="#0033AD"/>
<path d="M1.90396 20.6077C1.43142 20.5759 1.02188 20.9475 1.00088 21.4253C0.979879 21.9031 1.33691 22.3172 1.80945 22.3385C2.28199 22.3703 2.68102 21.9987 2.71252 21.5209C2.74402 21.0431 2.37649 20.6396 1.90396 20.6077Z" fill="#0033AD"/>
<path d="M11.6278 5.73198C12.0479 5.51962 12.2159 4.98872 12.0059 4.564C11.7958 4.13928 11.2708 3.9694 10.8508 4.18176C10.4307 4.39411 10.2627 4.9144 10.4727 5.33911C10.6828 5.77445 11.1973 5.95496 11.6278 5.73198Z" fill="#0033AD"/>
<path d="M14.316 10.4782C14.967 10.149 15.2295 9.34207 14.904 8.68375C14.5785 8.02544 13.7804 7.75999 13.1294 8.08915C12.4783 8.4183 12.2158 9.22527 12.5413 9.88358C12.8668 10.5419 13.6649 10.8073 14.316 10.4782Z" fill="#0033AD"/>
<path d="M5.26436 13.7379C5.7684 14.0671 6.44045 13.929 6.77648 13.4194C7.10201 12.9097 6.9655 12.2302 6.46145 11.8904C5.95741 11.5612 5.28536 11.6993 4.94933 12.2089C4.6133 12.7186 4.76031 13.4088 5.26436 13.7379Z" fill="#0033AD"/>
<path d="M6.87077 20.1299C6.13571 20.0875 5.51616 20.6502 5.47415 21.3935C5.43215 22.1367 5.9887 22.7632 6.72376 22.8057C7.45882 22.8481 8.07837 22.2854 8.12037 21.5421C8.16237 20.8095 7.60583 20.1724 6.87077 20.1299Z" fill="#0033AD"/>
<path d="M5.4112 29.1234C4.87566 29.3994 4.65514 30.0578 4.92816 30.6099C5.20118 31.1514 5.85224 31.3744 6.39828 31.0983C6.93382 30.8223 7.15434 30.1639 6.88132 29.6118C6.6083 29.0703 5.94674 28.8473 5.4112 29.1234Z" fill="#0033AD"/>
<path d="M10.5566 17.3586C11.2812 17.8365 12.2473 17.6347 12.7093 16.9021C13.1819 16.1694 12.9823 15.1926 12.2578 14.7254C11.5332 14.2476 10.5671 14.4493 10.1051 15.182C9.63256 15.904 9.83208 16.8808 10.5566 17.3586Z" fill="#0033AD"/>
<path d="M26.8855 10.372C27.4945 10.7755 28.3241 10.6056 28.7231 9.98978C29.1222 9.37394 28.9542 8.53512 28.3451 8.13163C27.7361 7.72815 26.9065 7.89804 26.5075 8.51388C26.0979 9.14034 26.2659 9.96854 26.8855 10.372Z" fill="#0033AD"/>
<path d="M29.5947 5.64704C29.9937 5.91248 30.5188 5.79569 30.7813 5.3922C31.0438 4.98872 30.9283 4.45782 30.5293 4.19237C30.1302 3.92692 29.6052 4.04372 29.3427 4.43659C29.0907 4.84007 29.2062 5.38159 29.5947 5.64704Z" fill="#0033AD"/>
<path d="M27.085 18.739C25.6254 18.654 24.3653 19.7901 24.2918 21.266C24.2078 22.7419 25.3314 24.0161 26.791 24.0904C26.8435 24.0904 26.896 24.0904 26.938 24.0904C28.3976 24.0904 29.5842 22.8906 29.5842 21.4041C29.5947 19.9919 28.4921 18.8133 27.085 18.739Z" fill="#0033AD"/>
<path d="M15.1876 17.1675C15.6391 18.0701 16.5527 18.6434 17.5607 18.6434C19.0204 18.6434 20.207 17.4436 20.207 15.9571C20.207 15.543 20.1125 15.1289 19.9234 14.7467C19.2619 13.4194 17.6658 12.8885 16.3636 13.5574C15.051 14.237 14.526 15.8509 15.1876 17.1675Z" fill="#0033AD"/>
<path d="M35.9689 13.7379C36.5044 13.4619 36.7144 12.7929 36.4414 12.2514C36.1684 11.7099 35.5068 11.4975 34.9713 11.7736C34.4357 12.0497 34.2257 12.708 34.4882 13.2495C34.7718 13.791 35.4228 14.014 35.9689 13.7379Z" fill="#0033AD"/>
<path d="M29.2482 14.5874C28.4816 14.9803 28.1666 15.9253 28.5551 16.7004C28.9436 17.4755 29.8782 17.794 30.6448 17.4012C31.4113 17.0083 31.7264 16.0633 31.3378 15.2882C30.9493 14.5131 30.0147 14.2051 29.2482 14.5874Z" fill="#0033AD"/>
<path d="M20.585 5.24356C21.1836 5.27541 21.6981 4.80822 21.7401 4.20299C21.7821 3.59777 21.3096 3.07749 20.7111 3.03502C20.1125 3.00316 19.598 3.45974 19.556 4.06496C19.5245 4.6808 19.9865 5.20108 20.585 5.24356Z" fill="#0033AD"/>
<path d="M20.5746 12.1771C21.4357 12.2302 22.1707 11.5612 22.2127 10.6905C22.2652 9.81987 21.6037 9.07661 20.7426 9.03414C19.8815 8.98105 19.1465 9.64999 19.1045 10.5207C19.0625 11.3913 19.7135 12.1346 20.5746 12.1771Z" fill="#0033AD"/>
<path d="M12.1318 28.2739C12.8984 27.881 13.2134 26.936 12.8249 26.1609C12.4364 25.3858 11.5018 25.0673 10.7352 25.4601C9.96865 25.853 9.65362 26.798 10.0422 27.5731C10.4307 28.3482 11.3653 28.6668 12.1318 28.2739Z" fill="#0033AD"/>
<path d="M21.5825 14.4812C20.7844 15.7235 21.1205 17.3799 22.3491 18.1869C23.5777 18.9938 25.2158 18.6541 26.0139 17.4118C26.8119 16.1695 26.4759 14.5131 25.2473 13.7061C24.8168 13.4194 24.3127 13.2708 23.7982 13.2708C22.9056 13.2708 22.076 13.7273 21.5825 14.4812Z" fill="#0033AD"/>
<path d="M26.1925 25.6937C25.5309 24.3665 23.9348 23.8356 22.6327 24.5045C21.3201 25.1735 20.795 26.7874 21.4566 28.104C22.1181 29.4313 23.7143 29.9622 25.0164 29.2932C26.3185 28.6349 26.854 27.0422 26.203 25.715C26.203 25.7044 26.203 25.7044 26.1925 25.6937Z" fill="#0033AD"/>
<path d="M30.8235 25.5027C30.0989 25.0249 29.1328 25.2266 28.6708 25.9592C28.1982 26.6919 28.3977 27.6687 29.1223 28.1359C29.8469 28.6137 30.8129 28.412 31.275 27.6794C31.7475 26.9573 31.548 25.9805 30.8235 25.5027Z" fill="#0033AD"/>
<path d="M35.9058 21.4784C35.9478 20.7352 35.3912 20.1087 34.6562 20.0662C33.9211 20.0237 33.3016 20.5865 33.2596 21.3298C33.2175 22.073 33.7741 22.6995 34.5092 22.7419C35.2337 22.7844 35.8638 22.211 35.9058 21.4784Z" fill="#0033AD"/>
<path d="M39.5705 20.5228C39.0979 20.4909 38.6884 20.8626 38.6674 21.3404C38.6464 21.8182 39.0034 22.2323 39.4759 22.2535C39.9485 22.2854 40.3475 21.9137 40.379 21.4359C40.4 20.9581 40.043 20.5546 39.5705 20.5228Z" fill="#0033AD"/>
<path d="M36.1158 29.1234C35.6117 28.7942 34.9397 28.9322 34.6036 29.4419C34.2781 29.9516 34.4146 30.6311 34.9187 30.9709C35.4227 31.3 36.0948 31.162 36.4308 30.6523C36.7668 30.1427 36.6198 29.4525 36.1158 29.1234Z" fill="#0033AD"/>
<path d="M11.7749 37.2143C11.3758 36.9488 10.8508 37.0656 10.5883 37.4585C10.3257 37.862 10.4412 38.3929 10.8298 38.6583C11.2288 38.9238 11.7539 38.807 12.0164 38.4141C12.2894 38.0213 12.1739 37.4797 11.7749 37.2143Z" fill="#0033AD"/>
<path d="M29.7524 37.1293C29.3323 37.3417 29.1643 37.8726 29.3744 38.2973C29.5844 38.722 30.1094 38.8919 30.5294 38.6796C30.9495 38.4672 31.1175 37.9469 30.9075 37.5222C30.6975 37.0869 30.1829 36.9064 29.7524 37.1293Z" fill="#0033AD"/>
<path d="M19.7976 28.3801C20.5956 27.1378 20.2596 25.4814 19.031 24.6638C17.8024 23.8568 16.1643 24.1966 15.3557 25.4389C14.5471 26.6812 14.8937 28.3376 16.1223 29.1552C16.5528 29.4419 17.0568 29.5905 17.5714 29.5905C18.4745 29.6012 19.304 29.1446 19.7976 28.3801Z" fill="#0033AD"/>
<path d="M14.4945 32.4892C13.8855 32.0858 13.0559 32.2556 12.6569 32.8715C12.2578 33.4873 12.4258 34.3261 13.0349 34.7296C13.6439 35.1331 14.4735 34.9632 14.8726 34.3474C15.2821 33.7315 15.1141 32.8927 14.4945 32.4892Z" fill="#0033AD"/>
<path d="M20.6794 37.6177C20.0809 37.5859 19.5663 38.0531 19.5243 38.6583C19.4823 39.2635 19.9549 39.7838 20.5534 39.8263C21.152 39.8581 21.6665 39.4016 21.7085 38.7963C21.74 38.1805 21.278 37.6602 20.6794 37.6177Z" fill="#0033AD"/>
<path d="M20.6901 30.6842C19.8291 30.6311 19.094 31.3001 19.052 32.1707C18.9995 33.0414 19.661 33.7847 20.5221 33.8271C21.3832 33.8696 22.1182 33.2113 22.1603 32.3406C22.2128 31.4806 21.5512 30.7267 20.6901 30.6842Z" fill="#0033AD"/>
<path d="M27.0641 32.3831C26.4131 32.7228 26.1506 33.5298 26.4866 34.1881C26.8226 34.8464 27.6207 35.1119 28.2717 34.7721C28.9228 34.4429 29.1853 33.636 28.8598 32.9777C28.5238 32.3193 27.7257 32.0433 27.0641 32.3831Z" fill="#0033AD"/>
</svg>
