<svg width="42" height="42" viewBox="0 0 42 42" fill="none" xmlns="http://www.w3.org/2000/svg">
<path d="M33.9522 7.20477H8.02002V30.7739H33.9522V7.20477Z" fill="white"/>
<path fill-rule="evenodd" clip-rule="evenodd" d="M41.986 21C41.986 32.5827 32.5903 41.9721 20.9999 41.9721C9.40968 41.9721 0.013916 32.5827 0.013916 21C0.013916 9.41747 9.40968 0.0279541 20.9999 0.0279541C32.5903 0.0279541 41.986 9.41747 41.986 21ZM15.0531 29.3459H10.9803C10.1245 29.3459 9.70175 29.3459 9.44399 29.1811C9.16558 29.0007 8.99546 28.7019 8.97484 28.3721C8.95936 28.0683 9.17075 27.6972 9.59349 26.9553L19.6497 9.24156C20.0776 8.48936 20.2942 8.11326 20.5674 7.97416C20.8613 7.82476 21.2118 7.82476 21.5057 7.97416C21.7789 8.11326 21.9955 8.48936 22.4234 9.24156L24.4907 12.848L24.5013 12.8664C24.9634 13.6733 25.1978 14.0826 25.3001 14.5121C25.4135 14.9809 25.4135 15.4755 25.3001 15.9443C25.197 16.3771 24.965 16.7893 24.4959 17.6084L19.2136 26.9398L19.1999 26.9638C18.7347 27.7774 18.4989 28.1897 18.1722 28.5008C17.8164 28.841 17.3885 29.0881 16.9194 29.2275C16.4915 29.3459 16.012 29.3459 15.0531 29.3459ZM25.3383 29.3459H31.1741C32.0351 29.3459 32.4682 29.3459 32.7261 29.1761C33.0045 28.9957 33.1797 28.6916 33.1953 28.362C33.2101 28.068 33.0033 27.7114 32.5981 27.0126C32.5842 26.9888 32.5702 26.9646 32.556 26.94L29.6327 21.9425L29.5995 21.8862C29.1887 21.1921 28.9813 20.8415 28.715 20.706C28.4213 20.5566 28.0757 20.5566 27.782 20.706C27.5139 20.8451 27.2973 21.2109 26.8694 21.9477L23.9566 26.9451L23.9466 26.9623C23.5202 27.6979 23.3071 28.0655 23.3225 28.3671C23.3431 28.6969 23.5132 29.0007 23.7916 29.1811C24.0443 29.3459 24.4773 29.3459 25.3383 29.3459Z" fill="#E84142"/>
</svg>
