<svg width="42" height="42" viewBox="0 0 42 42" fill="none" xmlns="http://www.w3.org/2000/svg">
<rect width="42" height="42" rx="21" fill="#4DCA48"/>
<path fill-rule="evenodd" clip-rule="evenodd" d="M27.9717 24.9512C27.063 26.0304 25.9058 26.4899 25.3956 26.701C25.1438 26.8049 24.7069 26.9606 24.235 27.1164L25.0422 30.1284L23.1885 30.6251L22.3949 27.6617L20.9838 28.0399L21.7763 31.0033L19.9226 31.5L19.129 28.5366L15.4826 29.5142L15.2681 27.1853L16.3756 26.8884C16.7481 26.7891 16.8949 26.7123 17.0111 26.5238C17.1274 26.3341 17.1014 26.1004 17.0529 25.9175L14.9983 18.2477C14.8696 17.7668 14.7951 17.6483 14.5083 17.4597C14.2216 17.2723 13.6933 17.3785 13.3997 17.4575L12.3284 17.7442L11.8125 15.8194L15.4589 14.8429L14.663 11.8716L16.5167 11.3749L17.3137 14.3462L18.7248 13.968L17.9289 10.9967L19.7826 10.5L20.5887 13.5063C21.993 13.2218 23.0926 13.2094 24.1673 13.6327C25.5592 14.1791 25.8968 15.6851 25.9668 16.0475C26.0356 16.4087 26.0627 17.1357 25.8697 17.6607C25.6767 18.1856 25.032 18.8325 25.032 18.8325C25.032 18.8325 25.9837 18.7806 26.7446 19.0876C27.5044 19.3947 28.1975 20.1093 28.5001 21.3466C28.8049 22.5839 28.8805 23.8731 27.9717 24.9512ZM21.424 21.3025C20.4893 21.4877 19.3277 21.8647 19.3277 21.8647L20.3934 25.8396C20.3934 25.8396 21.6306 25.5371 22.4367 25.256C23.2439 24.9738 24.0363 24.5391 24.3987 24.1914C24.76 23.8437 25.1732 23.3425 24.9293 22.4337C24.6866 21.5238 23.9776 21.3048 23.5848 21.2258C23.1919 21.1445 22.3588 21.1174 21.424 21.3025ZM20.3753 19.6058C21.0447 19.3992 21.721 19.0504 22.1635 18.6259C22.6071 18.2003 22.781 17.672 22.5834 17.0003C22.3848 16.3297 21.7819 15.8781 20.9567 15.8488C20.1314 15.8183 19.6155 15.9391 19.033 16.0859C18.4505 16.2326 17.8748 16.4426 17.8748 16.4426L18.8343 20.019C18.8343 20.019 19.707 19.8135 20.3753 19.6058Z" fill="white"/>
</svg>
