<svg width="42" height="42" viewBox="0 0 42 42" fill="none" xmlns="http://www.w3.org/2000/svg">
<path fill-rule="evenodd" clip-rule="evenodd" d="M21 0C32.5988 0 42 9.4012 42 21C42 32.5988 32.5988 42 21 42C9.4012 42 0 32.5988 0 21C0 9.4012 9.4012 0 21 0Z" fill="#F0B90B"/>
<path d="M11.5415 21L11.5567 26.5529L16.275 29.3293V32.5803L8.79538 28.1935V19.3762L11.5415 21ZM11.5415 15.4471V18.6829L8.7937 17.0575V13.8216L11.5415 12.1962L14.3028 13.8216L11.5415 15.4471ZM18.2454 13.8216L20.9932 12.1962L23.7545 13.8216L20.9932 15.4471L18.2454 13.8216Z" fill="white"/>
<path d="M13.5271 25.4019V22.151L16.2749 23.7765V27.0123L13.5271 25.4019ZM18.2454 30.4938L20.9932 32.1192L23.7545 30.4938V33.7296L20.9932 35.3551L18.2454 33.7296V30.4938ZM27.6954 13.8216L30.4432 12.1962L33.2045 13.8216V17.0575L30.4432 18.6829V15.4471L27.6954 13.8216ZM30.4432 26.5529L30.4583 21L33.2062 19.3745V28.1918L25.7266 32.5786V29.3277L30.4432 26.5529Z" fill="white"/>
<path d="M28.4729 25.4019L25.7251 27.0122V23.7764L28.4729 22.1509V25.4019Z" fill="white"/>
<path d="M28.4728 16.5981L28.4879 19.849L23.7562 22.6255V28.1918L21.0083 29.8022L18.2605 28.1918V22.6255L13.5288 19.849V16.5981L16.2884 14.9726L20.9915 17.7625L25.7233 14.9726L28.4846 16.5981H28.4728ZM13.5271 11.0469L20.9932 6.64496L28.4728 11.0469L25.7249 12.6724L20.9932 9.88246L16.2749 12.6724L13.5271 11.0469Z" fill="white"/>
</svg>
