<svg width="42" height="42" viewBox="0 0 42 42" fill="none" xmlns="http://www.w3.org/2000/svg">
<rect width="42" height="42" rx="21" fill="#EAB300"/>
<path d="M25.859 20.3133C26.4305 19.9949 26.907 19.526 27.2384 18.9559C27.5699 18.3858 27.744 17.7356 27.7426 17.0735C27.7426 14.4558 25.1773 13.235 23.6173 13.0707H23.132V10.5H20.5898V13.0003H18.8911V10.5H16.3143V12.9885H13.125V15.2071H14.0148C14.8699 15.2071 15.2627 15.7588 15.2627 16.1462V25.8303C15.2553 25.987 15.193 26.1358 15.0871 26.2499C14.9811 26.364 14.8385 26.4359 14.685 26.4525H13.7143L13.2174 28.9645H16.3258V31.4883H18.9143V28.9762H20.6129V31.5H23.132V28.988H23.3631C26.2866 28.988 28.8403 27.2272 28.875 24.3748C28.8349 23.4676 28.5253 22.594 27.9869 21.869C27.4486 21.144 26.7067 20.6017 25.859 20.3133ZM18.9258 19.1395V15.3362H21.5258C21.9145 15.3257 22.3002 15.4084 22.6516 15.5777C23.0029 15.747 23.3101 15.998 23.548 16.3105C23.7644 16.6153 23.8853 16.9795 23.8946 17.3552C23.8928 17.611 23.8499 17.8648 23.7675 18.1065C23.6942 18.3198 23.5847 18.5184 23.444 18.6934C23.3369 18.8454 23.2038 18.9766 23.0511 19.0808C22.542 19.4183 21.9488 19.6015 21.3409 19.609H18.9258V19.1395ZM24.7035 24.7739C24.6226 25.0029 24.5055 25.217 24.3568 25.4078C24.2346 25.5616 24.0905 25.6961 23.9293 25.8069C23.3835 26.1822 22.7395 26.3826 22.0804 26.3821H18.9836V21.6867H22.2075C22.6291 21.6775 23.047 21.7682 23.4281 21.9516C23.8092 22.135 24.143 22.406 24.4031 22.7432C24.6452 23.085 24.7746 23.4959 24.7728 23.917C24.7642 24.1932 24.7136 24.4665 24.6226 24.7269L24.7035 24.7739Z" fill="white"/>
</svg>
