<svg width="42" height="42" viewBox="0 0 42 42" fill="none" xmlns="http://www.w3.org/2000/svg">
<rect width="42" height="42" rx="21" fill="#F7931A"/>
<path d="M28.948 18.9422C29.278 16.7356 27.598 15.5494 25.3008 14.7582L26.0461 11.7691L24.2265 11.3157L23.5011 14.2261C23.0227 14.1068 22.5315 13.9944 22.0433 13.8829L22.774 10.9534L20.9556 10.5L20.21 13.4881C19.8141 13.3979 19.4253 13.3089 19.0481 13.215L19.0503 13.2056L16.5411 12.579L16.0571 14.5224C16.0571 14.5224 17.407 14.8318 17.3786 14.8509C18.1154 15.0348 18.2486 15.5225 18.2265 15.9091L17.3776 19.3144C17.4283 19.3273 17.4941 19.3459 17.5667 19.3751C17.506 19.36 17.4414 19.3435 17.3744 19.3275L16.1846 24.0977C16.0945 24.3216 15.866 24.6575 15.3508 24.53C15.3691 24.5564 14.0284 24.1999 14.0284 24.1999L13.125 26.2827L15.4928 26.873C15.9333 26.9834 16.365 27.099 16.7901 27.2077L16.0371 30.231L17.8546 30.6844L18.6002 27.6932C19.0967 27.828 19.5785 27.9523 20.0502 28.0695L19.3071 31.0466L21.1267 31.5L21.8795 28.4823C24.9822 29.0695 27.3152 28.8328 28.2972 26.0264C29.0884 23.767 28.2578 22.4637 26.6255 21.6139C27.8144 21.3397 28.7099 20.5577 28.9486 18.9424L28.9481 18.942L28.948 18.9422ZM24.7908 24.7716C24.2285 27.0311 20.4243 25.8097 19.1909 25.5034L20.19 21.498C21.4233 21.8059 25.3785 22.4153 24.7909 24.7716H24.7908ZM25.3535 18.9094C24.8406 20.9647 21.6743 19.9205 20.6471 19.6645L21.553 16.0318C22.5801 16.2879 25.8879 16.7657 25.3537 18.9094H25.3535Z" fill="white"/>
</svg>
