<svg width="53" height="53" viewBox="0 0 53 53" fill="none" xmlns="http://www.w3.org/2000/svg">
<rect x="5.3" y="5.3" width="42.4" height="42.4" rx="21" fill="#212121"/>
<path fill-rule="evenodd" clip-rule="evenodd" d="M18.2102 33.1263C17.9205 32.9491 17.6811 32.7006 17.5149 32.4044C17.3487 32.1083 17.2613 31.7745 17.261 31.4349V27.5867C17.261 27.4413 17.2994 27.2984 17.3724 27.1726C17.4454 27.0468 17.5503 26.9425 17.6765 26.8703C17.8027 26.7981 17.9458 26.7605 18.0912 26.7613C18.2367 26.7622 18.3793 26.8014 18.5047 26.8751L27.1874 31.9352C27.6954 32.233 28.0085 32.7749 28.0085 33.3639V37.3489C28.0086 37.5252 27.9616 37.6983 27.8725 37.8505C27.7834 38.0026 27.6554 38.1282 27.5016 38.2144C27.3478 38.3006 27.1739 38.3443 26.9976 38.3409C26.8213 38.3375 26.6492 38.2872 26.4988 38.1952L18.2113 33.1241L18.2102 33.1263ZM31.1527 25.8208C31.6596 26.1186 31.9738 26.6594 31.9738 27.2484V35.3367C31.9738 35.5754 31.8446 35.7965 31.6366 35.9126L29.735 36.9822C29.7107 36.9958 29.685 37.0068 29.6584 37.015V32.5231C29.6584 31.9429 29.354 31.4031 28.8548 31.1032L21.2296 26.5412V21.4723C21.2296 21.3269 21.268 21.184 21.341 21.0582C21.414 20.9324 21.5189 20.8281 21.6451 20.7559C21.7713 20.6837 21.9144 20.6461 22.0598 20.6469C22.2053 20.6478 22.3479 20.687 22.4733 20.7607L31.1527 25.8208ZM34.9517 19.8466C35.4618 20.1421 35.7749 20.6884 35.7749 21.2774V33.0902C35.7748 33.2095 35.7425 33.3266 35.6814 33.4291C35.6203 33.5316 35.5328 33.6157 35.4279 33.6726L33.627 34.6448V26.4207C33.627 25.8394 33.3215 25.303 32.8245 25.003L25.0318 20.3283V15.5189C25.0318 15.3722 25.0712 15.2298 25.1413 15.1028C25.2519 14.9136 25.433 14.7758 25.645 14.7198C25.857 14.6638 26.0825 14.6941 26.2722 14.804L34.9517 19.8466Z" fill="#03D395"/>
</svg>
