<svg width="42" height="42" viewBox="0 0 42 42" fill="none" xmlns="http://www.w3.org/2000/svg">
<path d="M21 0C32.599 0 42 9.40284 42 21C42 32.599 32.599 42 21 42C9.40284 42 0 32.5981 0 21C0 9.40284 9.40284 0 21 0Z" fill="#F5AC37"/>
<path d="M21.7741 22.4828H29.7537C29.9239 22.4828 30.0042 22.4828 30.0165 22.2597C30.0817 21.448 30.0817 20.6315 30.0165 19.8188C30.0165 19.661 29.938 19.5958 29.767 19.5958H13.8861C13.6895 19.5958 13.6366 19.661 13.6366 19.8452V22.1813C13.6366 22.4828 13.6366 22.4828 13.9513 22.4828H21.7741ZM29.1253 16.8656C29.148 16.8061 29.148 16.7409 29.1253 16.6823C28.9921 16.3922 28.8343 16.1153 28.6509 15.8554C28.375 15.4113 28.0499 15.0021 27.6795 14.6345C27.5046 14.4124 27.3024 14.213 27.0756 14.0438C25.9397 13.0771 24.5893 12.3929 23.1377 12.0489C22.4054 11.8845 21.6569 11.8061 20.9066 11.8127H13.8587C13.6621 11.8127 13.6357 11.8911 13.6357 12.0622V16.721C13.6357 16.9176 13.6357 16.9705 13.8851 16.9705H29.0308C29.0308 16.9705 29.1622 16.9441 29.1886 16.8656H29.1244H29.1253ZM29.1253 25.2129C28.9023 25.1883 28.6774 25.1883 28.4544 25.2129H13.8993C13.7028 25.2129 13.6366 25.2129 13.6366 25.4756V30.0306C13.6366 30.2404 13.6366 30.2933 13.8993 30.2933H20.6193C20.9406 30.3178 21.2619 30.2952 21.5766 30.2281C22.5518 30.1581 23.511 29.9465 24.4258 29.5977C24.7584 29.4825 25.0797 29.3322 25.3831 29.1517H25.4747C27.0501 28.3324 28.3296 27.0453 29.1367 25.4652C29.1367 25.4652 29.2283 25.2668 29.1253 25.2148V25.2129ZM10.9991 32.6549V32.5764V29.5184V28.4817V25.3972C10.9991 25.2261 10.9991 25.2006 10.7893 25.2006H7.94104C7.78322 25.2006 7.71802 25.2006 7.71802 24.9908V22.4969H10.7628C10.9329 22.4969 10.9991 22.4969 10.9991 22.2739V19.8065C10.9991 19.6487 10.9991 19.6099 10.7893 19.6099H7.94104C7.78322 19.6099 7.71802 19.6099 7.71802 19.4001V17.0905C7.71802 16.946 7.71802 16.9072 7.92781 16.9072H10.7496C10.9462 16.9072 10.9991 16.9072 10.9991 16.6577V9.58339C10.9991 9.3736 10.9991 9.32068 11.2618 9.32068H21.105C21.8194 9.34903 22.5292 9.42746 23.2313 9.55693C24.6781 9.82437 26.0682 10.3413 27.3392 11.0793C28.1822 11.5755 28.958 12.1746 29.6489 12.8645C30.1686 13.4041 30.6373 13.9881 31.0531 14.6099C31.4661 15.2402 31.8091 15.914 32.0785 16.618C32.1115 16.8014 32.2873 16.9252 32.4706 16.894H34.8199C35.1214 16.894 35.1214 16.894 35.1346 17.1832V19.3359C35.1346 19.5457 35.0562 19.5986 34.8455 19.5986H33.0339C32.8505 19.5986 32.7976 19.5986 32.8109 19.8349C32.8827 20.6343 32.8827 21.4366 32.8109 22.2361C32.8109 22.4591 32.8109 22.4856 33.0613 22.4856H35.1337C35.2254 22.6037 35.1337 22.7219 35.1337 22.8409C35.1469 22.9931 35.1469 23.1471 35.1337 23.2993V24.8878C35.1337 25.1108 35.0685 25.177 34.871 25.177H32.3903C32.2174 25.1439 32.0492 25.2545 32.0095 25.4265C31.4189 26.9621 30.4738 28.339 29.2529 29.4428C28.8068 29.8444 28.3381 30.2224 27.8486 30.5711C27.3232 30.8735 26.8119 31.1882 26.2733 31.4377C25.282 31.8837 24.2425 32.2126 23.1755 32.4214C22.1625 32.6029 21.1353 32.6851 20.1043 32.6709H10.9953V32.6577L10.9991 32.6549Z" fill="#FEFEFD"/>
</svg>
