<svg width="42" height="42" viewBox="0 0 42 42" fill="none" xmlns="http://www.w3.org/2000/svg">
<rect width="42" height="42" rx="21" fill="#008CE7"/>
<path d="M24.0158 11.8125H15.771L15.0884 15.6313L22.5258 15.6402C26.1897 15.6402 27.2729 16.9702 27.2414 19.1781C27.2263 20.3092 26.7351 22.2211 26.5235 22.8408C25.9592 24.4933 24.7992 26.3787 20.4526 26.3712L13.2218 26.3674L12.5366 30.1875H20.7612C23.6619 30.1875 24.8975 29.85 26.2023 29.2466C29.0992 27.909 30.8222 25.05 31.5124 21.3193C32.5414 15.7648 31.2605 11.8125 24.0145 11.8125H24.0158Z" fill="white"/>
<path d="M12.2154 19.0823C10.0566 19.0823 9.74672 20.4892 9.54268 21.3394C9.27567 22.4528 9.1875 22.9037 9.1875 22.9037H17.6262C19.7863 22.9037 20.0949 21.4968 20.3002 20.6466C20.5672 19.5332 20.6553 19.0823 20.6553 19.0823H12.2166H12.2154Z" fill="white"/>
</svg>
