<svg width="42" height="42" viewBox="0 0 42 42" fill="none" xmlns="http://www.w3.org/2000/svg">
<path d="M21 42C32.598 42 42 32.598 42 21C42 9.40202 32.598 0 21 0C9.40202 0 0 9.40202 0 21C0 32.598 9.40202 42 21 42Z" fill="#B8DF85"/>
<path d="M21.0001 38.1981C18.6792 38.1981 16.4261 37.7431 14.3064 36.8463C12.2589 35.98 10.4192 34.7397 8.83981 33.1603C7.26044 31.5809 6.02013 29.7413 5.15388 27.6938C4.257 25.5741 3.802 23.3209 3.802 21C3.802 18.6791 4.257 16.4259 5.15388 14.3063C6.02013 12.2588 7.26044 10.4191 8.83981 8.83969C10.4192 7.26032 12.2589 6.02 14.3064 5.15375C16.4261 4.25688 18.6792 3.80188 21.0001 3.80188C23.3211 3.80188 25.5742 4.25688 27.6939 5.15375C29.7414 6.02 31.5811 7.26032 33.1604 8.83969C34.7398 10.4191 35.9801 12.2588 36.8464 14.3063C37.7433 16.4259 38.1982 18.6791 38.1982 21C38.1982 23.3209 37.7433 25.5741 36.8464 27.6938C35.9801 29.7413 34.7398 31.5809 33.1604 33.1603C31.5811 34.7397 29.7414 35.98 27.6939 36.8463C25.5742 37.7431 23.3211 38.1981 21.0001 38.1981Z" fill="#242D49"/>
<path d="M21 3.94187C30.4215 3.94187 38.0581 11.5784 38.0581 21C38.0581 30.4215 30.4215 38.0581 21 38.0581C11.5784 38.0581 3.94187 30.4215 3.94187 21C3.94187 11.5784 11.5784 3.94187 21 3.94187ZM21 3.66187C19.8231 3.66187 18.6484 3.77999 17.5066 4.01405C16.3931 4.24155 15.2972 4.58062 14.2516 5.02468C13.2234 5.45999 12.2325 5.99811 11.3072 6.62374C10.3884 7.24499 9.52655 7.95593 8.74124 8.74124C7.95593 9.52655 7.24499 10.3884 6.62374 11.3072C5.99811 12.2347 5.45999 13.2256 5.02468 14.2516C4.5828 15.2972 4.24155 16.3931 4.01405 17.5066C3.77999 18.6484 3.66187 19.8253 3.66187 21C3.66187 22.1747 3.77999 23.3515 4.01405 24.4934C4.24155 25.6069 4.58062 26.7006 5.02468 27.7484C5.45999 28.7766 5.99593 29.7675 6.62374 30.6928C7.24499 31.6115 7.95593 32.4734 8.74124 33.2587C9.52655 34.0441 10.3884 34.755 11.3072 35.3762C12.2347 36.0019 13.2256 36.54 14.2516 36.9753C15.2972 37.4172 16.3931 37.7584 17.5066 37.9859C18.6484 38.22 19.8253 38.3381 21 38.3381C22.1747 38.3381 23.3515 38.22 24.4934 37.9859C25.6069 37.7584 26.7006 37.4194 27.7484 36.9753C28.7766 36.54 29.7675 36.004 30.6928 35.3762C31.6115 34.7572 32.4734 34.0441 33.2587 33.2587C34.0441 32.4734 34.755 31.6115 35.3762 30.6928C36.0019 29.7653 36.54 28.7744 36.9753 27.7484C37.4172 26.7028 37.7584 25.6069 37.9859 24.4934C38.22 23.3515 38.3381 22.1747 38.3381 21C38.3381 19.8253 38.22 18.6484 37.9859 17.5066C37.7584 16.3931 37.4194 15.2972 36.9753 14.2516C36.54 13.2234 36.004 12.2325 35.3762 11.3072C34.7572 10.3884 34.0441 9.52655 33.2587 8.74124C32.4734 7.95593 31.6115 7.24499 30.6928 6.62374C29.7653 5.99811 28.7744 5.45999 27.7484 5.02468C26.7028 4.5828 25.6069 4.24155 24.4934 4.01405C23.3515 3.78218 22.1769 3.66187 21 3.66187Z" fill="#242D49"/>
<mask id="mask0_15392_3231" style="mask-type:luminance" maskUnits="userSpaceOnUse" x="3" y="0" width="36" height="39">
<path d="M38.0581 21C38.0581 30.4216 30.4216 38.0581 21 38.0581C11.5785 38.0581 3.94189 30.4216 3.94189 21C3.94189 11.5784 9.48721 0 21 0C32.5041 0 38.0581 11.5784 38.0581 21Z" fill="white"/>
</mask>
<g mask="url(#mask0_15392_3231)">
<path d="M10.4978 10.7997C10.7231 10.4585 11.0622 9.97283 11.3116 9.65564C12.1428 8.60564 12.9128 7.84002 13.6653 7.31721C14.3237 6.85783 14.8619 6.65658 15.3453 6.50783C16.6031 6.11846 18.2525 6.12283 20.1622 6.12721C20.3503 6.12721 20.5406 6.12721 20.7331 6.12721C20.825 6.12721 20.9125 6.12721 21.0022 6.12721C21.0897 6.12721 21.1794 6.12721 21.2712 6.12721C21.4637 6.12721 21.6541 6.12721 21.8422 6.12721C23.7519 6.12283 25.4012 6.12065 26.659 6.50783C27.1425 6.65658 27.6784 6.85783 28.3391 7.31721C29.0916 7.84221 29.8616 8.60564 30.6928 9.65564C30.9422 9.97064 31.2812 10.4585 31.5066 10.7997C31.5656 10.8894 31.6247 10.9856 31.6881 11.0885C31.7012 11.1103 31.7166 11.1322 31.7297 11.1541C31.5372 10.0888 31.2703 9.12189 30.9378 8.27533C30.6928 7.64971 30.345 7.00877 29.8769 6.31752L29.8506 6.28033L29.8812 6.24752C30.0256 6.08783 30.1219 5.87346 30.1612 5.62408C30.1919 5.41846 30.1853 5.19533 30.1416 4.91971C30.0869 4.59158 30.0016 4.34658 29.8703 4.1519C29.61 3.76471 29.3322 3.51533 28.9406 3.32283C28.7175 3.21346 28.455 3.15658 28.14 3.15658C27.9606 3.15658 27.7637 3.17408 27.5494 3.21127C27.0834 3.29002 26.6437 3.48252 26.2741 3.77127L26.2347 3.8019L26.1997 3.7669C25.4253 2.99252 24.7953 2.65565 23.7912 2.47627C22.9512 2.32752 21.9231 2.26627 21.0066 2.30346C20.0878 2.26846 19.0619 2.32752 18.2219 2.47627C17.2178 2.65346 16.5878 2.99252 15.8134 3.7669L15.7784 3.8019L15.7391 3.77127C15.3716 3.48471 14.9297 3.29221 14.4637 3.21127C14.2494 3.17627 14.0547 3.15658 13.8731 3.15658C13.5603 3.15658 13.2956 3.21127 13.0725 3.32283C12.6831 3.51752 12.4053 3.76471 12.1428 4.1519C12.0116 4.34658 11.9241 4.59158 11.8694 4.91971C11.8234 5.19533 11.8169 5.41846 11.8475 5.62408C11.8847 5.87346 11.9809 6.08783 12.1275 6.24752L12.1581 6.28033L12.1319 6.31752C11.6637 7.00877 11.3159 7.64971 11.0709 8.27533C10.7384 9.12189 10.4716 10.091 10.2791 11.1541C10.2922 11.1322 10.3075 11.1103 10.3206 11.0885C10.3775 10.9856 10.4387 10.8894 10.4978 10.7997Z" fill="#88CA34"/>
<path d="M29.0631 27.1841C26.7881 28.1094 24.2768 28.5819 21.6037 28.5929C21.5731 28.5929 21.5425 28.5929 21.5118 28.5929C21.3412 28.5929 21.1706 28.5907 21.0022 28.5863C20.8337 28.5907 20.6631 28.5929 20.4925 28.5929C20.4618 28.5929 20.4312 28.5929 20.4006 28.5929C17.7253 28.5841 15.2162 28.1094 12.9412 27.1841C12.5518 27.0266 12.0859 26.8166 11.6265 26.5322C10.9965 26.5475 10.3709 26.5847 9.84372 26.9216C9.37341 27.2213 9.04966 27.7222 8.92716 28.2647C8.80247 28.8072 8.87028 29.3847 9.07372 29.901C9.11966 30.0191 9.17872 30.1394 9.2881 30.2028C9.3406 30.2313 9.39529 30.2444 9.45216 30.2444C9.57247 30.2444 9.69497 30.1897 9.79341 30.1154C9.92466 30.0147 10.0297 29.8835 10.1609 29.7829C10.2222 29.715 10.2659 29.6538 10.2943 29.575L10.2965 29.5707C10.3162 29.516 10.3468 29.435 10.2878 29.2972L10.1478 28.9669L10.4737 29.1179C10.4912 29.1266 10.5087 29.1332 10.5218 29.1419C10.5875 29.1747 10.5984 29.1791 10.6968 29.1682C10.8412 29.1507 10.9856 29.0829 11.1256 29.0194C11.2197 28.9757 11.3159 28.9319 11.375 28.8619C11.4187 28.8094 11.434 28.7372 11.41 28.6979L11.2262 28.4222L11.5522 28.4857C11.8147 28.5382 12.0968 28.4813 12.3287 28.3325C12.5562 28.186 12.7247 27.9519 12.7947 27.6894C12.8143 27.615 12.8887 27.5713 12.9631 27.591C13.0375 27.6107 13.0812 27.685 13.0615 27.7594C12.9762 28.0875 12.7618 28.3807 12.4797 28.5644C12.2478 28.7154 11.9722 28.7897 11.6987 28.7788C11.69 28.8707 11.6528 28.9625 11.5872 29.0391C11.4887 29.155 11.3531 29.2163 11.2437 29.2666C11.0928 29.3366 10.9222 29.4153 10.734 29.4372C10.6815 29.4438 10.6378 29.446 10.6006 29.4438C10.6006 29.5466 10.5722 29.621 10.5568 29.6625L10.5547 29.6669C10.5175 29.7675 10.465 29.8485 10.3993 29.925C10.7778 30.2291 11.2437 30.4522 11.725 30.5988C12.2981 30.7738 12.8953 30.8482 13.4925 30.8832C13.4006 31.7166 13.3525 32.5741 13.3787 33.4272C12.6634 34.1732 12.1822 35.1247 12.0465 36.1266C11.9678 36.6997 12.0072 37.2925 12.1931 37.8416C12.379 38.3907 12.7181 38.8916 13.1797 39.2394C13.3415 39.3619 13.5384 39.4669 13.7353 39.4669C13.7747 39.4669 13.8162 39.4625 13.8556 39.4538C14.07 39.4035 14.2231 39.2219 14.3609 39.0491C14.3872 39.3225 14.5447 39.596 14.7853 39.7447C14.8684 39.795 14.9625 39.8322 15.0587 39.8322C15.0718 39.8322 15.0828 39.8322 15.0959 39.83C15.2162 39.8169 15.3234 39.7425 15.4 39.6485C15.4765 39.5544 15.5268 39.4429 15.5793 39.3335C15.5815 39.456 15.6056 39.5807 15.669 39.6857C15.7325 39.7907 15.8331 39.876 15.9534 39.9C15.9753 39.9044 15.9972 39.9066 16.0212 39.9066C16.1218 39.9066 16.2225 39.8629 16.2815 39.7819C16.3406 39.6988 16.3515 39.5916 16.3581 39.4888C16.4522 39.6791 16.6206 39.83 16.8175 39.9044C16.8853 39.9307 16.9597 39.946 17.0318 39.946C17.0865 39.946 17.139 39.9372 17.1893 39.9153C17.2943 39.8716 17.3731 39.7797 17.4322 39.6813C17.6356 39.3422 17.6268 38.931 17.6268 38.535C18.0075 38.6663 18.4056 38.7538 18.7928 38.8238C19.4009 38.9354 20.0265 38.99 20.6522 38.99C20.7703 38.99 20.8884 38.9879 21.0065 38.9835C21.1247 38.9879 21.2428 38.99 21.3609 38.99C21.9865 38.99 22.6122 38.9354 23.2203 38.8238C23.6075 38.7538 24.0056 38.6663 24.3862 38.535C24.3862 38.931 24.3775 39.3422 24.5809 39.6813C24.64 39.7797 24.7187 39.8716 24.8237 39.9153C24.874 39.935 24.9265 39.946 24.9812 39.946C25.0534 39.946 25.1278 39.9285 25.1956 39.9044C25.3947 39.83 25.5609 39.6791 25.655 39.4888C25.6615 39.5916 25.6703 39.6988 25.7293 39.7819C25.7884 39.8629 25.889 39.9066 25.9897 39.9066C26.0115 39.9066 26.0356 39.9044 26.0575 39.9C26.1778 39.876 26.2806 39.7907 26.3418 39.6857C26.4031 39.5807 26.4293 39.456 26.4315 39.3335C26.4818 39.445 26.5322 39.5566 26.6109 39.6485C26.6875 39.7425 26.7947 39.8169 26.915 39.83C26.9281 39.8322 26.939 39.8322 26.9522 39.8322C27.0484 39.8322 27.1425 39.795 27.2234 39.7447C27.464 39.596 27.6215 39.3247 27.6478 39.0491C27.7856 39.2197 27.9387 39.4035 28.1531 39.4538C28.1925 39.4625 28.234 39.4669 28.2734 39.4669C28.4725 39.4669 28.6672 39.3619 28.829 39.2394C29.2928 38.8916 29.6297 38.3885 29.8156 37.8416C30.0015 37.2947 30.0387 36.6997 29.9622 36.1266C29.8265 35.1247 29.3431 34.1732 28.63 33.4272C28.6562 32.5719 28.6081 31.7144 28.5162 30.8832C29.1134 30.8482 29.7106 30.7738 30.2837 30.5988C30.7672 30.4522 31.2309 30.2291 31.6093 29.925C31.5437 29.8485 31.4912 29.7675 31.454 29.6669L31.4518 29.6625C31.4365 29.621 31.4081 29.5466 31.4081 29.4438C31.3709 29.446 31.3272 29.4438 31.2747 29.4372C31.0865 29.4132 30.9159 29.3344 30.765 29.2666C30.6556 29.2163 30.52 29.1529 30.4215 29.0391C30.3559 28.9625 30.3165 28.8685 30.31 28.7788C30.0387 28.7897 29.7609 28.7154 29.529 28.5644C29.2447 28.3807 29.0325 28.0875 28.9472 27.7594C28.9275 27.685 28.9712 27.6107 29.0456 27.591C29.12 27.5713 29.1943 27.615 29.214 27.6894C29.284 27.9519 29.4525 28.186 29.68 28.3325C29.9097 28.4813 30.1918 28.536 30.4543 28.4857L30.7803 28.4222L30.5965 28.6979C30.5703 28.735 30.5878 28.8094 30.6315 28.8619C30.6906 28.9319 30.7868 28.9757 30.8809 29.0194C31.0209 29.0829 31.1631 29.1507 31.3097 29.1682C31.4081 29.1813 31.419 29.1747 31.4847 29.1419C31.5 29.1353 31.5153 29.1266 31.5328 29.1179L31.8587 28.9669L31.7187 29.2972C31.6597 29.435 31.6903 29.516 31.71 29.5707L31.7122 29.575C31.7406 29.6538 31.7843 29.715 31.8456 29.7829C31.9768 29.8835 32.0818 30.0147 32.2131 30.1154C32.3093 30.1897 32.4362 30.2444 32.5543 30.2444C32.6112 30.2444 32.6681 30.2313 32.7206 30.2028C32.83 30.1394 32.889 30.0191 32.935 29.901C33.1384 29.3825 33.2062 28.805 33.0815 28.2647C32.9568 27.7222 32.6331 27.2191 32.165 26.9216C31.6378 26.5869 31.0122 26.5475 30.3822 26.5322C29.9184 26.8188 29.4503 27.0266 29.0631 27.1841Z" fill="#88CA34"/>
<path d="M33.401 15.3146C33.11 14.0174 32.6353 12.8274 31.99 11.7731C31.3294 10.6946 30.5856 9.65557 29.9491 8.92057C29.6888 8.62089 28.3106 7.10057 26.7203 6.64339C25.3925 6.26057 23.9991 6.24089 22.6406 6.24089C22.5641 6.24089 22.4875 6.24089 22.4131 6.24089C22.1681 6.24089 21.9275 6.24089 21.6869 6.2387C21.4572 6.23651 21.2275 6.2387 20.9978 6.24089C20.7681 6.2387 20.5385 6.23651 20.3088 6.2387C20.0681 6.24089 19.8275 6.24089 19.5825 6.24089C19.506 6.24089 19.4294 6.24089 19.355 6.24089C17.9988 6.24089 16.6031 6.26057 15.2753 6.64339C13.685 7.10057 12.3069 8.62089 12.0466 8.92057C11.41 9.65557 10.6663 10.6946 10.0056 11.7731C9.36033 12.8253 8.88564 14.0174 8.59471 15.3124C7.80721 18.8299 8.42408 22.4196 10.29 25.1562C10.99 26.1843 12.1581 26.7443 12.9763 27.0768C15.2381 27.9956 17.7341 28.4681 20.3941 28.4768C20.4247 28.4768 20.4553 28.4768 20.486 28.4768C20.6566 28.4768 20.8272 28.4746 20.9956 28.4703C21.1641 28.4746 21.3347 28.4768 21.5053 28.4768C21.536 28.4768 21.5666 28.4768 21.5972 28.4768C24.2572 28.4681 26.7531 27.9956 29.015 27.0768C29.8331 26.7443 30.9991 26.1843 31.7013 25.1562C33.5716 22.4218 34.1906 18.8321 33.401 15.3146Z" fill="#88CA34"/>
<path d="M31.6771 35.7176C32.1715 35.0329 32.4887 34.2935 32.5696 33.6329C32.6593 32.9197 32.7074 32.2001 32.3421 31.266C31.6727 31.8347 31.3162 32.0994 30.7234 32.4691C29.9468 32.9526 29.588 33.1713 28.748 33.5126C29.0915 34.0507 29.4437 34.6501 29.728 35.396C30.0562 36.2644 30.089 36.8069 30.0759 37.0651C30.7037 36.7588 31.268 36.2841 31.6771 35.7176Z" fill="#88CA34"/>
<path d="M32.4407 26.4797C32.2154 26.3353 31.9769 26.2369 31.7363 26.1691C31.9244 25.9788 32.1016 25.7688 32.2613 25.5369C34.2322 22.6472 34.8863 18.8672 34.0572 15.1681C33.751 13.7988 33.2479 12.5388 32.5632 11.4231C32.5129 11.3422 32.4625 11.2591 32.4122 11.1803C32.2088 10.0166 31.9222 8.95783 31.5591 8.03033C31.336 7.46377 31.0385 6.88845 30.6535 6.28033C30.7344 6.1097 30.7913 5.92158 30.8219 5.72252C30.8635 5.44908 30.8569 5.14939 30.8 4.80595C30.73 4.37939 30.6097 4.04908 30.4216 3.77127C30.0957 3.28783 29.7282 2.96189 29.2338 2.7147C28.7525 2.47627 28.1641 2.41939 27.4335 2.54189C27.0354 2.6097 26.6525 2.74314 26.3025 2.93783C25.5741 2.29908 24.8829 1.9797 23.9029 1.80689C23.0279 1.65158 21.9604 1.58814 21 1.62314C20.0397 1.58814 18.9722 1.65158 18.0972 1.80689C17.1172 1.9797 16.426 2.29908 15.6975 2.93783C15.3475 2.74314 14.9647 2.60752 14.5666 2.54189C13.836 2.41939 13.2475 2.47408 12.7663 2.7147C12.2719 2.9597 11.9044 3.28564 11.5785 3.77127C11.3925 4.04908 11.2722 4.3772 11.2 4.80595C11.1432 5.14939 11.1366 5.44908 11.1782 5.72252C11.2088 5.92158 11.2657 6.1097 11.3466 6.28033C10.9616 6.88627 10.6619 7.46158 10.441 8.03033C10.0779 8.95564 9.79129 10.0166 9.58785 11.1803C9.53754 11.2613 9.48723 11.3422 9.43692 11.4253C8.75223 12.541 8.25129 13.801 7.94285 15.1703C7.11379 18.8694 7.76785 22.6494 9.73879 25.5391C9.89629 25.771 10.0735 25.981 10.2638 26.1713C10.0232 26.2391 9.78473 26.3375 9.55942 26.4819C8.99067 26.845 8.57285 27.451 8.41317 28.1488C8.27317 28.7635 8.33223 29.4547 8.5816 30.0935C8.65598 30.2816 8.77192 30.5135 9.02129 30.6578C9.14817 30.73 9.29473 30.7694 9.44785 30.7694C9.67317 30.7694 9.90504 30.6863 10.1063 30.5331C10.1435 30.5047 10.1785 30.4763 10.2091 30.4478C10.5897 30.7235 11.0535 30.9488 11.5697 31.1063C11.9744 31.2288 12.4119 31.3141 12.9172 31.3688C12.8625 32.0206 12.8385 32.6463 12.8472 33.2369C12.1297 34.0463 11.6638 35.0416 11.5238 36.0631C11.4319 36.7435 11.4888 37.4194 11.6922 38.0166C11.9175 38.6838 12.3332 39.2678 12.8582 39.6638C13.1513 39.8847 13.4444 39.9985 13.7288 39.9985C13.8097 39.9985 13.8907 39.9897 13.9694 39.97C14.0394 39.9525 14.1072 39.9306 14.1685 39.9022C14.2647 40.0181 14.3785 40.1188 14.5054 40.1975C14.6847 40.3069 14.8685 40.3638 15.0522 40.3638C15.0829 40.3638 15.1135 40.3616 15.1441 40.3594C15.26 40.3463 15.3738 40.3113 15.4788 40.2566C15.5882 40.3375 15.7107 40.3944 15.8441 40.4206C15.901 40.4316 15.9579 40.4381 16.0169 40.4381C16.1744 40.4381 16.3232 40.3966 16.4522 40.32C16.5091 40.3506 16.5682 40.3791 16.6272 40.401C16.7607 40.4513 16.8941 40.4753 17.0254 40.4753C17.1522 40.4753 17.2725 40.4513 17.3841 40.4053C17.581 40.3244 17.745 40.1735 17.8741 39.9591C18.0163 39.7206 18.0841 39.4713 18.1147 39.2263C18.3247 39.2766 18.5216 39.3138 18.6922 39.3444C19.3266 39.4603 19.9829 39.5194 20.6457 39.5194C20.7616 39.5194 20.8819 39.5172 21 39.5128C21.1182 39.5172 21.2363 39.5194 21.3544 39.5194C22.0172 39.5194 22.6735 39.4603 23.3079 39.3444C23.4785 39.3138 23.6754 39.2744 23.8854 39.2263C23.916 39.4713 23.9838 39.7206 24.1282 39.9591C24.2572 40.1735 24.4213 40.3244 24.6182 40.4053C24.7297 40.4513 24.85 40.4753 24.9769 40.4753C25.1082 40.4753 25.2416 40.4491 25.375 40.401C25.4363 40.3791 25.4954 40.3506 25.5522 40.32C25.6813 40.3944 25.8322 40.4381 25.9875 40.4381C26.0466 40.4381 26.1035 40.4316 26.1604 40.4206C26.2916 40.3944 26.4163 40.3375 26.5257 40.2566C26.6307 40.3135 26.7422 40.3485 26.8604 40.3594C26.891 40.3616 26.9216 40.3638 26.9522 40.3638C27.136 40.3638 27.3197 40.3069 27.4991 40.1975C27.626 40.1188 27.7397 40.0181 27.836 39.9022C27.8972 39.9306 27.9629 39.9547 28.035 39.97C28.1138 39.9875 28.1947 39.9985 28.2757 39.9985C28.56 39.9985 28.8532 39.8869 29.1463 39.6638C29.6735 39.2678 30.0869 38.6816 30.3122 38.0166C30.3954 37.7694 30.4544 37.5069 30.4894 37.2378C31.0647 36.9097 31.5788 36.4525 31.9616 35.921C32.4888 35.1903 32.8279 34.3941 32.9175 33.6766C33.0138 32.8978 33.0663 32.1103 32.6375 31.0625L32.5172 30.7672C32.5304 30.7672 32.5435 30.7672 32.5588 30.7672C32.7097 30.7672 32.8563 30.7278 32.9854 30.6556C33.2369 30.5113 33.3529 30.2772 33.425 30.0913C33.6744 29.4525 33.7357 28.7613 33.5935 28.1466C33.4272 27.451 33.0094 26.8428 32.4407 26.4797ZM11.0666 8.27533C11.3116 7.6497 11.6594 7.00877 12.1275 6.31751L12.1538 6.28033L12.1232 6.24752C11.9788 6.08783 11.8825 5.87345 11.8432 5.62408C11.8125 5.41845 11.8191 5.19533 11.865 4.9197C11.9197 4.59158 12.005 4.34658 12.1385 4.15189C12.3988 3.7647 12.6766 3.51533 13.0682 3.32283C13.2913 3.21345 13.5538 3.15658 13.8688 3.15658C14.0482 3.15658 14.245 3.17408 14.4594 3.21127C14.9254 3.29002 15.365 3.48252 15.7347 3.77127L15.7741 3.80189L15.8091 3.76689C16.5835 2.99252 17.2135 2.65564 18.2175 2.47627C19.0575 2.32752 20.0857 2.26627 21.0022 2.30345C21.921 2.26845 22.9469 2.32752 23.7869 2.47627C24.791 2.65345 25.421 2.99252 26.1954 3.76689L26.2304 3.80189L26.2697 3.77127C26.6372 3.4847 27.0791 3.2922 27.545 3.21127C27.7594 3.17627 27.9541 3.15658 28.1357 3.15658C28.4485 3.15658 28.7132 3.21127 28.9363 3.32283C29.3257 3.51752 29.6035 3.7647 29.866 4.15189C29.9972 4.34658 30.0847 4.59158 30.1372 4.9197C30.1832 5.19533 30.1897 5.41845 30.1569 5.62408C30.1197 5.87345 30.0235 6.08783 29.8769 6.24752L29.8463 6.28033L29.8725 6.31751C30.3407 7.00877 30.6885 7.6497 30.9335 8.27533C31.266 9.12189 31.5329 10.091 31.7254 11.1541C31.7122 11.1322 31.6969 11.1103 31.6838 11.0885C31.6204 10.9878 31.5613 10.8916 31.5022 10.7997C31.2769 10.4585 30.9379 9.97283 30.6885 9.65564C29.8572 8.60564 29.0872 7.84002 28.3347 7.3172C27.6763 6.85783 27.1382 6.65658 26.6547 6.50783C25.3969 6.11845 23.7475 6.12283 21.8379 6.1272C21.6497 6.1272 21.4594 6.1272 21.2669 6.1272C21.175 6.1272 21.0875 6.1272 20.9979 6.1272C20.9104 6.1272 20.8207 6.1272 20.7288 6.1272C20.5363 6.1272 20.346 6.1272 20.1579 6.1272C18.2482 6.12283 16.5988 6.12064 15.341 6.50783C14.8575 6.65658 14.3216 6.85783 13.661 7.3172C12.9085 7.8422 12.1385 8.60564 11.3072 9.65564C11.0579 9.97064 10.7188 10.4585 10.4935 10.7997C10.4344 10.8894 10.3732 10.9856 10.3119 11.0885C10.2988 11.1103 10.2835 11.1322 10.2704 11.1541C10.4672 10.0888 10.7341 9.12189 11.0666 8.27533ZM8.5991 15.3147C8.89004 14.0175 9.36473 12.8275 10.01 11.7731C10.6707 10.6947 11.4144 9.65564 12.051 8.92064C12.3113 8.62095 13.6894 7.10064 15.2797 6.64345C16.6075 6.26064 18.001 6.24095 19.3594 6.24095C19.436 6.24095 19.5125 6.24095 19.5869 6.24095C19.8319 6.24095 20.0725 6.24095 20.3132 6.23877C20.5429 6.23658 20.7725 6.23877 21.0022 6.24095C21.2319 6.23877 21.4616 6.23658 21.6913 6.23877C21.9319 6.24095 22.1725 6.24095 22.4175 6.24095C22.4941 6.24095 22.5685 6.24095 22.645 6.24095C24.0035 6.24095 25.3969 6.26064 26.7247 6.64345C28.315 7.10064 29.6932 8.62095 29.9535 8.92064C30.59 9.65564 31.3338 10.6947 31.9944 11.7731C32.6397 12.8253 33.1144 14.0175 33.4054 15.3125C34.1929 18.83 33.576 22.4197 31.71 25.1563C31.01 26.1844 29.8419 26.7444 29.0238 27.0769C26.7619 27.9956 24.266 28.4681 21.606 28.4769C21.5754 28.4769 21.5447 28.4769 21.5141 28.4769C21.3435 28.4769 21.1729 28.4747 21.0044 28.4703C20.836 28.4747 20.6654 28.4769 20.4947 28.4769C20.4641 28.4769 20.4335 28.4769 20.4029 28.4769C17.7429 28.4681 15.2469 27.9956 12.985 27.0769C12.1669 26.7444 11.001 26.1844 10.2988 25.1563C8.42848 22.4219 7.80942 18.8322 8.5991 15.3147ZM17.4279 39.6878C17.3688 39.7863 17.29 39.8781 17.185 39.9219C17.1347 39.9416 17.0822 39.9525 17.0275 39.9525C16.9554 39.9525 16.881 39.935 16.8132 39.911C16.6163 39.8366 16.4479 39.6856 16.3538 39.4953C16.3472 39.5981 16.3385 39.7053 16.2772 39.7885C16.2182 39.8694 16.1175 39.9131 16.0169 39.9131C15.995 39.9131 15.971 39.911 15.9491 39.9066C15.8288 39.8825 15.726 39.7972 15.6647 39.6922C15.6035 39.5872 15.5772 39.4625 15.575 39.34C15.5247 39.4516 15.4744 39.5631 15.3957 39.655C15.3191 39.7491 15.2119 39.8235 15.0916 39.8366C15.0785 39.8388 15.0675 39.8388 15.0544 39.8388C14.9582 39.8388 14.8641 39.8016 14.781 39.7513C14.5404 39.6025 14.3829 39.3313 14.3566 39.0556C14.2188 39.2263 14.0657 39.41 13.8513 39.4603C13.8119 39.4691 13.7704 39.4735 13.731 39.4735C13.5319 39.4735 13.3372 39.3685 13.1754 39.246C12.7116 38.8981 12.3747 38.395 12.1888 37.8481C12.0029 37.2991 11.9657 36.7063 12.0422 36.1331C12.1779 35.1313 12.6613 34.1797 13.3744 33.4338C13.3482 32.5785 13.3963 31.721 13.4882 30.8897C12.891 30.8547 12.2938 30.7803 11.7207 30.6053C11.2372 30.4588 10.7713 30.2356 10.395 29.9316C10.4607 29.855 10.5132 29.7741 10.5504 29.6735L10.5525 29.6691C10.5679 29.6275 10.5963 29.5531 10.5963 29.4503C10.6335 29.4525 10.675 29.4503 10.7297 29.4438C10.9179 29.4197 11.0885 29.341 11.2394 29.2731C11.3488 29.2228 11.4844 29.1594 11.5829 29.0456C11.6485 28.9691 11.6879 28.875 11.6944 28.7853C11.9657 28.7963 12.2413 28.7219 12.4754 28.571C12.7597 28.3872 12.9719 28.0941 13.0572 27.766C13.0769 27.6916 13.0332 27.6172 12.9588 27.5975C12.8844 27.5778 12.81 27.6216 12.7904 27.696C12.7204 27.9585 12.5519 28.1925 12.3244 28.3391C12.0947 28.4878 11.8125 28.5425 11.5479 28.4922L11.2219 28.4288L11.4057 28.7044C11.4319 28.7416 11.4166 28.816 11.3707 28.8685C11.3116 28.9385 11.2154 28.9822 11.1213 29.026C10.9813 29.0894 10.8391 29.1572 10.6925 29.1747C10.5941 29.1878 10.5832 29.1813 10.5175 29.1485C10.5022 29.1419 10.4869 29.1331 10.4694 29.1244L10.1435 28.9735L10.2835 29.3038C10.3425 29.4416 10.3119 29.5225 10.2922 29.5772L10.29 29.5816C10.2616 29.6603 10.2179 29.7216 10.1566 29.7894C10.0254 29.89 9.92035 30.0213 9.7891 30.1219C9.69067 30.1963 9.56817 30.251 9.44785 30.251C9.39098 30.251 9.3341 30.2378 9.28379 30.2094C9.17442 30.146 9.11535 30.0256 9.06942 29.9075C8.86598 29.3891 8.79817 28.8116 8.92285 28.2713C9.04754 27.7288 9.37129 27.2256 9.83942 26.9281C10.3666 26.5935 10.9922 26.5541 11.6222 26.5388C12.0816 26.8253 12.5497 27.0331 12.9369 27.1906C15.0369 28.0438 17.3382 28.5141 19.7816 28.5885C19.6197 28.6125 19.4535 28.641 19.285 28.676C18.4625 28.84 17.8719 29.0894 17.476 29.4372C16.1897 30.5747 16.1044 32.001 16.0475 32.9438V32.9503C15.9797 34.0835 16.24 35.5097 16.321 35.9188C16.4872 36.7566 16.9838 37.9575 17.6094 38.6335L17.6204 38.6444C17.6204 39.0031 17.6138 39.3772 17.4279 39.6878ZM24.2507 38.4585C23.1547 38.7844 22.0675 38.9288 21 38.8938C19.9304 38.9288 18.8454 38.7822 17.7494 38.4585C17.1654 37.8153 16.6885 36.6494 16.5332 35.8706C16.4522 35.4681 16.1963 34.0638 16.2641 32.9569V32.9503C16.3188 32.0425 16.3997 30.671 17.6204 29.5925C17.9857 29.2688 18.5457 29.0369 19.3288 28.8794C19.9238 28.7613 20.4772 28.7 21 28.6978C21.5229 28.7022 22.0763 28.7613 22.6713 28.8794C23.4544 29.0347 24.0144 29.2688 24.3797 29.5925C25.6004 30.671 25.6813 32.0425 25.736 32.9503V32.9569C25.8016 34.0638 25.5457 35.4681 25.4669 35.8706C25.3116 36.6494 24.8347 37.8153 24.2507 38.4585ZM32.5697 33.6328C32.4866 34.2935 32.1694 35.0328 31.6772 35.7175C31.3666 36.1463 30.9663 36.5225 30.5157 36.8135C30.5222 36.5663 30.5091 36.3147 30.4741 36.061C30.3385 35.07 29.8966 34.1053 29.2163 33.3091C29.7544 33.0663 30.1088 32.8497 30.7235 32.4669C31.3163 32.0972 31.6729 31.8325 32.3422 31.2638C32.7075 32.2 32.6594 32.9197 32.5697 33.6328ZM29.2644 33.145C29.3147 32.9306 29.4132 32.4647 29.4132 32.176C29.7457 32.2744 29.9841 32.4056 30.2925 32.6025C29.9404 32.8147 29.6079 32.9897 29.2644 33.145ZM30.4544 31.7888C30.741 31.8172 30.951 31.8456 31.2747 31.9485C30.9597 32.176 30.6688 32.3706 30.3888 32.5435C30.5091 32.1563 30.4829 31.9572 30.4544 31.7888ZM32.1804 30.9531C31.8457 31.2397 31.5897 31.4453 31.3644 31.616C30.9882 31.5 30.7475 31.4716 30.4107 31.4388L30.0366 31.4016L30.1 31.7713C30.1022 31.7888 30.1066 31.8041 30.1088 31.8216C30.1241 31.9091 30.1394 31.99 30.1307 32.1038C29.9141 31.9856 29.6997 31.896 29.4263 31.8216L29.1091 31.7363C29.1004 31.6138 29.0916 31.4913 29.0807 31.3688C29.5882 31.3163 30.0235 31.231 30.4282 31.1063C30.9444 30.9488 31.4082 30.7235 31.7888 30.4478C31.8216 30.4763 31.8566 30.5047 31.8916 30.5331C32.0491 30.6535 32.2285 30.73 32.4079 30.7585L32.1804 30.9531ZM32.9307 29.901C32.8847 30.0191 32.8257 30.1394 32.7163 30.2028C32.666 30.2313 32.6091 30.2444 32.55 30.2444C32.4319 30.2444 32.3072 30.1897 32.2088 30.1153C32.0775 30.0147 31.9725 29.8835 31.8413 29.7828C31.78 29.715 31.7363 29.6538 31.7079 29.575L31.7057 29.5706C31.686 29.516 31.6554 29.435 31.7144 29.2972L31.8544 28.9669L31.5285 29.1178C31.511 29.1266 31.4935 29.1331 31.4804 29.1419C31.4147 29.1747 31.4038 29.1791 31.3054 29.1681C31.1588 29.1506 31.0166 29.0828 30.8766 29.0194C30.7825 28.9756 30.6863 28.9319 30.6272 28.8619C30.5835 28.8094 30.5682 28.7372 30.5922 28.6978L30.776 28.4222L30.45 28.4856C30.1875 28.5381 29.9054 28.4813 29.6757 28.3325C29.4482 28.186 29.2797 27.9519 29.2097 27.6894C29.19 27.615 29.1157 27.5713 29.0413 27.591C28.9669 27.6106 28.9232 27.685 28.9429 27.7594C29.0282 28.0875 29.2425 28.3806 29.5247 28.5644C29.7566 28.7153 30.0322 28.7897 30.3057 28.7788C30.3144 28.8706 30.3516 28.9625 30.4172 29.0391C30.5157 29.155 30.6513 29.2163 30.7607 29.2666C30.9116 29.3366 31.0822 29.4153 31.2704 29.4372C31.3229 29.4438 31.3666 29.446 31.4038 29.4438C31.4038 29.5466 31.4322 29.621 31.4475 29.6625L31.4497 29.6669C31.4869 29.7675 31.5394 29.8485 31.605 29.925C31.2266 30.2291 30.7607 30.4522 30.2794 30.5988C29.7063 30.7738 29.1091 30.8481 28.5119 30.8831C28.595 31.6356 28.641 32.4078 28.6322 33.18C28.63 33.2631 28.63 33.3441 28.6279 33.4272C28.6738 33.4753 28.7175 33.5213 28.7613 33.5716C28.805 33.6197 28.8466 33.67 28.8882 33.7203C29.4504 34.405 29.831 35.2275 29.9557 36.0872C29.9579 36.1003 29.96 36.1135 29.9622 36.1266C29.9666 36.1594 29.971 36.1922 29.9754 36.225C29.9775 36.236 29.9775 36.2469 29.9797 36.2556C29.9819 36.2775 29.9841 36.3016 29.9863 36.3235C29.9885 36.3366 29.9885 36.3475 29.9885 36.3606C29.9907 36.3825 29.9929 36.4044 29.9929 36.4241C29.9929 36.4372 29.995 36.4481 29.995 36.4613C29.9972 36.4875 29.9972 36.5116 29.9994 36.5378C29.9994 36.5466 29.9994 36.5575 30.0016 36.5663C30.0016 36.5947 30.0038 36.6253 30.0038 36.656C30.0038 36.6713 30.0038 36.6844 30.0038 36.6975C30.0038 36.715 30.0038 36.7347 30.0038 36.7522C30.0038 36.7675 30.0038 36.7828 30.0016 36.8003C30.0016 36.8178 29.9994 36.8331 29.9994 36.8506C29.9994 36.8681 29.9972 36.8835 29.9972 36.901C29.9972 36.9163 29.995 36.9338 29.995 36.9491C29.9929 36.9797 29.9907 37.0125 29.9885 37.0431C29.9863 37.0585 29.9863 37.0716 29.9841 37.0869C29.9819 37.1066 29.9797 37.1241 29.9775 37.1438C29.9754 37.1569 29.9732 37.17 29.9732 37.1831C29.971 37.2028 29.9688 37.2203 29.9644 37.24C29.9622 37.2531 29.96 37.2663 29.9579 37.2772C29.9557 37.2969 29.9513 37.3166 29.9491 37.3363C29.9469 37.3472 29.9447 37.3581 29.9425 37.3691C29.9338 37.4172 29.9229 37.4653 29.9119 37.5135C29.8857 37.6228 29.855 37.7322 29.82 37.8394C29.6341 38.3885 29.2972 38.8894 28.8335 39.2372C28.6716 39.3597 28.4747 39.4647 28.2779 39.4647C28.2385 39.4647 28.1969 39.4603 28.1575 39.4516C27.9432 39.4013 27.79 39.2197 27.6522 39.0469C27.626 39.3203 27.4685 39.5938 27.2279 39.7425C27.1447 39.7928 27.0507 39.83 26.9566 39.83C26.9435 39.83 26.9325 39.83 26.9194 39.8278C26.7991 39.8147 26.6919 39.7403 26.6154 39.6463C26.5388 39.5522 26.4885 39.4406 26.436 39.3313C26.4338 39.4538 26.4097 39.5785 26.3463 39.6835C26.285 39.7885 26.1822 39.8738 26.0619 39.8978C26.04 39.9022 26.016 39.9044 25.9941 39.9044C25.8935 39.9044 25.7929 39.8606 25.7338 39.7797C25.6747 39.6966 25.6638 39.5894 25.6594 39.4866C25.5654 39.6769 25.3969 39.8278 25.2 39.9022C25.1322 39.9285 25.0579 39.9438 24.9857 39.9438C24.931 39.9438 24.8785 39.935 24.8282 39.9131C24.7232 39.8694 24.6444 39.7775 24.5854 39.6791C24.3972 39.3685 24.3907 38.9944 24.3907 38.6291L24.4016 38.6181C25.0294 37.9422 25.5238 36.7413 25.69 35.9035C25.771 35.4944 26.0313 34.0681 25.9635 32.935V32.9285C25.9066 31.9856 25.8213 30.5594 24.535 29.4219C24.1391 29.0719 23.5485 28.8225 22.726 28.6606C22.5575 28.6278 22.3913 28.5994 22.2294 28.5731C24.675 28.4988 26.9741 28.0306 29.0741 27.1753C29.4635 27.0178 29.9294 26.8078 30.3888 26.5235C31.0188 26.5388 31.6444 26.576 32.1716 26.9128C32.6397 27.2125 32.9657 27.7135 33.0882 28.256C33.2019 28.8072 33.1341 29.3847 32.9307 29.901Z" fill="#050E2D"/>
<path d="M30.4543 31.7887C30.4849 31.9571 30.5112 32.1562 30.3887 32.5412C30.6665 32.3684 30.9574 32.1737 31.2746 31.9462C30.9487 31.8478 30.7409 31.8171 30.4543 31.7887Z" fill="#D9E021"/>
<path d="M29.4132 32.1737C29.4132 32.4646 29.3147 32.9306 29.2644 33.1428C29.6078 32.9875 29.9403 32.8125 30.2925 32.6003C29.9841 32.4034 29.7457 32.2721 29.4132 32.1737Z" fill="#D9E021"/>
<path d="M29.8199 16.3538C29.728 16.3384 29.6383 16.3931 29.6121 16.4828C29.3518 17.3513 28.7524 18.1453 27.9255 18.7184C27.7002 18.8759 27.4071 18.9569 27.079 18.9547C26.8602 18.9525 26.6437 18.9241 26.414 18.8934C26.3068 18.8803 26.1974 18.865 26.088 18.8541C25.6724 18.8103 25.3202 18.8344 25.0096 18.9306C23.8087 19.2981 22.6055 19.3856 21.5862 19.4228C21.3849 19.4294 21.188 19.4338 20.9955 19.4294C20.803 19.4316 20.6062 19.4294 20.4049 19.4228C19.3877 19.3856 18.1846 19.2981 16.9815 18.9306C16.6708 18.8366 16.3187 18.8103 15.903 18.8541C15.7937 18.865 15.6843 18.8803 15.5771 18.8934C15.3474 18.9241 15.1308 18.9525 14.9121 18.9547C14.5862 18.9591 14.293 18.8759 14.0655 18.7184C13.2387 18.1453 12.6415 17.3513 12.379 16.4828C12.3527 16.3931 12.263 16.3384 12.1712 16.3538C12.0793 16.3691 12.0137 16.4522 12.018 16.5463C12.0246 16.6709 12.1952 19.6044 12.5496 21.0678C12.5649 21.1334 12.5802 21.1969 12.5955 21.2603C12.8887 22.4809 13.0658 23.2181 14.6343 24.4891C16.8152 26.2566 19.1733 26.3681 20.5952 26.3681C20.7024 26.3681 20.8052 26.3681 20.9015 26.3659C20.9321 26.3659 20.9605 26.3659 20.9912 26.3659C21.0196 26.3659 21.0502 26.3659 21.0808 26.3659C21.1771 26.3659 21.2799 26.3681 21.3871 26.3681C22.809 26.3681 25.1671 26.2566 27.348 24.4891C28.9165 23.2181 29.0937 22.4809 29.3868 21.2603C29.4021 21.1969 29.4174 21.1334 29.4327 21.0678C29.7893 19.6044 29.9577 16.6709 29.9643 16.5463C29.9774 16.4522 29.9118 16.3691 29.8199 16.3538Z" fill="#050E2D"/>
<path d="M28.8859 19.4293C28.8071 19.764 28.6693 20.1075 28.455 20.499C28.3259 19.9478 28.1071 19.4403 27.8271 19.0465C28.1903 18.8715 28.4462 18.6418 28.8575 18.2306C28.9756 18.5784 28.9865 19.0093 28.8859 19.4293Z" fill="white"/>
<path d="M24.4519 19.3243C24.4694 19.3199 24.4869 19.3155 24.5022 19.3134C24.4366 19.9237 24.1457 20.593 23.7169 21.1268C23.3166 20.7571 22.9907 20.2037 22.8135 19.589C23.1525 19.5649 23.3363 19.5343 23.4872 19.5102C23.5375 19.5015 23.5835 19.4949 23.6294 19.4884C23.9575 19.4402 24.2791 19.3659 24.4519 19.3243Z" fill="white"/>
<path d="M13.1141 19.4293C13.1929 19.764 13.3307 20.1075 13.5451 20.499C13.6741 19.9478 13.8929 19.4403 14.1729 19.0465C13.8098 18.8715 13.5538 18.6418 13.1426 18.2306C13.0266 18.5784 13.0135 19.0093 13.1141 19.4293Z" fill="white"/>
<path d="M17.5481 19.3243C17.5306 19.3199 17.5131 19.3155 17.4978 19.3134C17.5634 19.9237 17.8544 20.593 18.2831 21.1268C18.6834 20.7571 19.0094 20.2037 19.1866 19.589C18.8475 19.5649 18.6637 19.5343 18.5128 19.5102C18.4625 19.5015 18.4166 19.4949 18.3706 19.4884C18.0425 19.4402 17.7209 19.3659 17.5481 19.3243Z" fill="white"/>
<path d="M25.3794 22.8768C24.7778 22.5115 24.0713 22.1134 23.2772 22.0346C22.5969 21.9668 21.525 22.179 21 22.7259C20.475 22.1768 19.4032 21.9668 18.7228 22.0346C17.9288 22.1134 17.2222 22.5115 16.6207 22.8768C15.9578 23.2815 15.2819 23.7453 14.8269 24.3993C17.1544 26.2456 19.6613 26.1887 21 26.1821C22.3366 26.1887 24.8457 26.2456 27.1732 24.3993C26.7182 23.7453 26.0422 23.2815 25.3794 22.8768Z" fill="#C1272D"/>
<path d="M25.2679 23.0606C24.6444 22.6822 23.9838 22.3212 23.2576 22.249C22.5313 22.1768 21.3479 22.4437 21.0001 23.0847C20.6522 22.4437 19.4688 22.1768 18.7426 22.249C18.0163 22.3212 17.3535 22.6822 16.7322 23.0606C16.0804 23.4587 15.4241 23.9093 14.9976 24.5306C17.2769 26.2434 19.6963 26.1887 21.0001 26.1822C22.3038 26.1887 24.7232 26.2434 27.0026 24.5306C26.5738 23.9093 25.9176 23.4565 25.2679 23.0606Z" fill="#E7666A"/>
<path d="M16.6294 9.62504C16.5638 9.25535 16.3997 8.90973 16.1547 8.62317C16.0891 8.5466 15.9994 8.45254 15.8813 8.39129C15.7588 8.32567 15.6232 8.31254 15.5094 8.34973C15.3607 8.40004 15.2425 8.54879 15.2054 8.73254C15.1747 8.88129 15.19 9.03004 15.2032 9.16129L15.2054 9.18317C15.2469 9.58129 15.3957 9.9641 15.6341 10.2857C15.715 10.3929 15.8266 10.5241 15.9885 10.5657C16.0257 10.5744 16.0607 10.5788 16.0979 10.5788C16.3013 10.5788 16.485 10.4322 16.5682 10.2704C16.6557 10.1019 16.6754 9.88973 16.6294 9.62504Z" fill="#050E2D"/>
<path d="M25.3706 9.62504C25.4362 9.25535 25.6002 8.90973 25.8452 8.62317C25.9109 8.5466 26.0006 8.45254 26.1165 8.39129C26.239 8.32567 26.3746 8.31254 26.4884 8.34973C26.6371 8.40004 26.7552 8.54879 26.7924 8.73254C26.8231 8.88129 26.8077 9.03004 26.7946 9.16129L26.7924 9.18317C26.7509 9.58129 26.6021 9.9641 26.3637 10.2857C26.2827 10.3929 26.1712 10.5241 26.0093 10.5657C25.9721 10.5744 25.9371 10.5788 25.8999 10.5788C25.6965 10.5788 25.5127 10.4322 25.4296 10.2704C25.3443 10.1019 25.3246 9.88973 25.3706 9.62504Z" fill="#050E2D"/>
<path d="M17.1697 5.17344C16.7257 5.19313 16.4369 5.04656 16.1678 4.82563C15.68 4.49094 15.0216 4.21969 14.4266 4.20438C13.7966 4.18031 13.1513 4.47344 12.8035 5.00719C13.1032 4.76656 13.4182 4.61781 13.7485 4.54344C13.5275 4.69 13.3438 4.89344 13.2257 5.13188C13.055 5.4775 13.0047 5.88219 13.0769 6.33281C13.1294 6.66313 13.2672 7.0175 13.3875 7.33031C13.4116 7.39375 13.4357 7.45719 13.4597 7.51844L13.486 7.59063L13.5472 7.54469C14.5557 6.79219 15.1419 6.55375 16.3997 6.38313L16.4566 6.37438L16.4478 6.3175C16.3669 5.78813 16.1438 5.30469 15.796 4.90438C15.8769 4.94156 15.9557 4.98094 16.0344 5.0225L16.041 5.02469C16.0366 5.02031 16.03 5.01594 16.0257 5.01156C16.1022 5.06625 16.2072 5.12094 16.3035 5.1625C16.5791 5.27844 16.8963 5.28063 17.1697 5.17344Z" fill="#050E2D"/>
<path d="M15.2905 5.06405C15.214 5.00717 15.1177 4.96342 14.9952 4.92842C14.9055 4.90436 14.8246 4.89124 14.7502 4.89124C14.689 4.89124 14.6343 4.89999 14.584 4.9153C14.4527 4.95686 14.3521 5.06842 14.339 5.18436C14.328 5.29374 14.3871 5.39436 14.4374 5.45999C14.5227 5.56936 14.643 5.65686 14.7743 5.7028C14.9055 5.74874 15.0521 5.75748 15.1877 5.72686C15.3015 5.70061 15.3802 5.65467 15.4283 5.58905C15.483 5.51467 15.4983 5.40749 15.4677 5.30905C15.4458 5.21717 15.3802 5.12967 15.2905 5.06405Z" fill="white"/>
<path d="M24.8303 5.17344C25.2744 5.19313 25.5631 5.04656 25.8322 4.82563C26.32 4.49094 26.9784 4.21969 27.5734 4.20438C28.2034 4.18031 28.8488 4.47344 29.1966 5.00719C28.8969 4.76656 28.5819 4.61781 28.2516 4.54344C28.4725 4.69 28.6563 4.89344 28.7744 5.13188C28.945 5.4775 28.9953 5.88219 28.9231 6.33281C28.8706 6.66313 28.7328 7.0175 28.6125 7.33031C28.5884 7.39375 28.5644 7.45719 28.5403 7.51844L28.5141 7.59063L28.4528 7.54469C27.4444 6.79219 26.8581 6.55375 25.6003 6.38313L25.5434 6.37438L25.5522 6.3175C25.6331 5.78813 25.8563 5.30469 26.2041 4.90438C26.1231 4.94156 26.0444 4.98094 25.9656 5.0225L25.9591 5.02469H25.9569C25.9613 5.02031 25.9678 5.01594 25.9722 5.01156C25.8956 5.06625 25.7906 5.12094 25.6944 5.1625C25.4209 5.27844 25.1038 5.28063 24.8303 5.17344Z" fill="#050E2D"/>
<path d="M26.7094 5.06405C26.7859 5.00717 26.8822 4.96342 27.0047 4.92842C27.0944 4.90436 27.1753 4.89124 27.2497 4.89124C27.3109 4.89124 27.3656 4.89999 27.4159 4.9153C27.5472 4.95686 27.6478 5.06842 27.6609 5.18436C27.6719 5.29374 27.6128 5.39436 27.5625 5.45999C27.4772 5.56936 27.3569 5.65686 27.2256 5.7028C27.0944 5.74874 26.9478 5.75748 26.8122 5.72686C26.6984 5.70061 26.6197 5.65467 26.5715 5.58905C26.5169 5.51467 26.5015 5.40749 26.5322 5.30905C26.554 5.21717 26.6197 5.12967 26.7094 5.06405Z" fill="white"/>
<path d="M25.4668 35.8706C25.3115 36.6515 24.8346 37.8153 24.2506 38.4584C23.1546 38.7843 22.0674 38.9287 20.9999 38.8937C19.9302 38.9287 18.8452 38.7821 17.7493 38.4584C17.1652 37.8153 16.6884 36.6493 16.5331 35.8706C16.4521 35.4681 16.1962 34.0637 16.264 32.9568V32.9503C16.3187 32.0424 16.3996 30.6709 17.6202 29.5924C17.9856 29.2687 18.5456 29.0368 19.3287 28.8793C19.9237 28.7612 20.4771 28.6999 20.9999 28.6978C21.5227 28.7021 22.0762 28.7612 22.6712 28.8793C23.4543 29.0346 24.0143 29.2687 24.3796 29.5924C25.6002 30.6709 25.6812 32.0424 25.7359 32.9503V32.9568C25.8037 34.0637 25.5477 35.4659 25.4668 35.8706Z" fill="#D9E021"/>
</g>
</svg>
