<svg width="42" height="42" viewBox="0 0 42 42" fill="none" xmlns="http://www.w3.org/2000/svg">
<path d="M21 42C32.598 42 42 32.598 42 21C42 9.40202 32.598 0 21 0C9.40202 0 0 9.40202 0 21C0 32.598 9.40202 42 21 42Z" fill="#988430"/>
<path d="M20.9999 41.3273C32.2264 41.3273 41.3273 32.2264 41.3273 20.9999C41.3273 9.77346 32.2264 0.672607 20.9999 0.672607C9.77346 0.672607 0.672607 9.77346 0.672607 20.9999C0.672607 32.2264 9.77346 41.3273 20.9999 41.3273Z" fill="#7A6A2A"/>
<path d="M20.9999 40.899C31.9898 40.899 40.8989 31.9899 40.8989 21C40.8989 10.0101 31.9898 1.10095 20.9999 1.10095C10.0099 1.10095 1.10083 10.0101 1.10083 21C1.10083 31.9899 10.0099 40.899 20.9999 40.899Z" fill="#BA9F33"/>
<path fill-rule="evenodd" clip-rule="evenodd" d="M9.18146 18.7573C9.06252 18.6487 8.93685 18.5398 8.82127 18.4312C8.70569 18.3225 8.58697 18.2137 8.46802 18.105L8.11455 17.769C8.05676 17.7112 7.99561 17.6604 7.93781 17.6024C7.88002 17.5515 7.81215 17.4937 7.75436 17.4427C7.2853 16.9976 6.81356 16.5525 6.351 16.1072C6.83013 16.5455 7.29919 16.9808 7.77833 17.4256L7.94476 17.5923C8.00255 17.6499 8.0637 17.7009 8.1215 17.7587L8.47474 18.0849C8.59369 18.1935 8.70927 18.3024 8.82821 18.4209C8.94716 18.5394 9.06274 18.6485 9.18169 18.7569L9.18146 18.7573ZM2.95628 18.6901C2.95628 18.6901 4.66204 18.8666 5.49465 18.9856C6.26588 19.0944 8.67858 19.4647 8.67858 19.4647L2.95628 18.6901ZM2.95628 18.6901C3.43541 18.7309 3.91455 18.7817 4.39369 18.8328C4.63829 18.8566 4.87282 18.8837 5.10735 18.9074L5.46732 18.9484C5.58626 18.9652 5.70185 18.9822 5.82079 18.9992L7.24812 19.2268L7.96156 19.3458C8.19609 19.3865 8.43061 19.4309 8.67522 19.4717C8.4407 19.4479 8.19609 19.4139 7.96156 19.3798L7.24812 19.2779L5.82079 19.0673C5.70185 19.0503 5.58626 19.0263 5.46732 19.0095L5.10713 18.9681C4.8726 18.9444 4.62799 18.9103 4.39346 18.883C3.91433 18.8254 3.43519 18.764 2.95605 18.6894L2.95628 18.6901ZM8.50879 19.9091C8.50879 19.9091 6.68745 20.3715 6.07234 20.5482C5.46754 20.7146 3.63589 21.2719 3.63589 21.2719L8.50857 19.9094L8.50879 19.9091Z" fill="#CFB66C"/>
<path fill-rule="evenodd" clip-rule="evenodd" d="M8.50867 19.9092C8.10435 20.0281 7.70227 20.1437 7.29212 20.2526L6.07558 20.5787C5.67126 20.6977 5.26918 20.8132 4.86598 20.9322L4.26118 21.0986C4.0607 21.1564 3.85686 21.2073 3.64966 21.2653C3.84991 21.1981 4.05398 21.1293 4.25446 21.0715L4.85926 20.878C5.26358 20.7521 5.66566 20.6331 6.06886 20.5075C6.4799 20.4056 6.88444 20.2967 7.29548 20.1981C7.68614 20.0996 8.0974 20.0012 8.50867 19.9094V19.9092ZM3.89091 22.3933C4.09116 22.3185 6.40195 21.2415 6.93887 20.99C7.20767 20.8641 7.98899 20.5868 7.98899 20.5868L3.89091 22.3933Z" fill="#CFB66C"/>
<path fill-rule="evenodd" clip-rule="evenodd" d="M3.89085 22.3933C4.06736 22.3261 4.23402 22.2438 4.40381 22.1657L4.90669 21.9311L5.91603 21.4453C6.25203 21.2856 6.57863 21.1093 6.92515 20.9592C7.10189 20.8846 7.27863 20.8235 7.45514 20.7657L7.72394 20.6808C7.81555 20.657 7.90067 20.6297 7.99274 20.606C7.65674 20.7657 7.30304 20.9016 6.96659 21.0578C6.63059 21.2244 6.28698 21.3604 5.94023 21.5098L4.91408 21.9616C4.56957 22.1012 4.23357 22.2506 3.89062 22.3933H3.89085ZM4.11485 23.3341C4.11485 23.3341 6.2079 22.1074 6.92829 21.7132C7.3055 21.5026 8.52541 20.8976 8.52541 20.8976L4.11485 23.3341Z" fill="#CFB66C"/>
<path fill-rule="evenodd" clip-rule="evenodd" d="M4.11499 23.3345C4.46824 23.117 4.82843 22.8962 5.18862 22.6719L5.72622 22.3456C5.90968 22.2369 6.08641 22.135 6.27345 22.0264C6.45691 21.9175 6.63365 21.8089 6.82046 21.7069C6.9094 21.652 7.00258 21.6043 7.09912 21.5643L7.38449 21.4216C7.76171 21.2381 8.13893 21.0511 8.53653 20.8914C8.17633 21.1192 7.80584 21.3129 7.43557 21.5132C7.25211 21.6151 7.06507 21.7069 6.88161 21.8089C6.69816 21.9108 6.52142 22.0196 6.33438 22.1182C6.15093 22.2268 5.97419 22.3288 5.78737 22.4273L5.23342 22.7297L4.11544 23.3345H4.11499ZM8.50853 21.1664C8.50853 21.1664 7.20709 22.1655 6.78574 22.4849C6.3644 22.8043 5.12411 23.7014 5.12411 23.7014L8.50853 21.1664Z" fill="#CFB66C"/>
<path fill-rule="evenodd" clip-rule="evenodd" d="M15.9777 29.2232L15.3118 27.9626L15.6991 26.3858L18.4617 25.3189L17.2859 22.9064L17.8669 20.47L18.9578 18.2882L22.3288 17.7582L24.8058 15.3966L30.1545 15.8009L31.2043 21.5199L29.1825 28.7204L28.0307 32.4482L23.3617 32.6249L21.1938 31.123L18.6554 30.0626L15.9777 29.2232Z" fill="#E2CC85"/>
<path fill-rule="evenodd" clip-rule="evenodd" d="M24.1673 29.1825C24.1673 29.1825 23.5215 29.4782 22.4201 29.4101C22.1013 28.982 19.8689 28.7815 19.8689 28.7815C19.8689 28.7815 19.5903 28.6966 19.0975 28.9005C18.6015 29.1021 18.1325 29.0772 17.6941 29.1858C17.2557 29.2945 16.8205 28.7237 16.4845 28.6048C16.1485 28.4791 15.703 28.1767 15.703 28.1767L14.7622 28.0849L12.873 27.2863L9.87158 24.2961L9.056 25.5729L8.80444 27.153L9.71187 29.0255L12.155 31.2511L16.9191 32.4607L19.7428 31.6288L23.2802 30.1336L24.1673 29.1823V29.1825Z" fill="#F1D789"/>
<path fill-rule="evenodd" clip-rule="evenodd" d="M7.2413 18.6146L7.8461 16.7832L8.5667 15.6005L10.8873 15.4067L10.1907 17.4389L8.25064 20.8914L9.05592 23.9734L7.62882 24.6868L7.19022 24.0142L6.83698 22.4715L6.81323 20.7384L7.2413 18.6146Z" fill="#F4ECB4"/>
<path fill-rule="evenodd" clip-rule="evenodd" d="M9.84422 29.0569L9.39913 28.435C9.39913 28.435 9.28018 28.1394 9.34828 27.8811C9.41548 27.6195 9.40585 27.6024 9.37203 27.5039C9.3382 27.4053 9.0526 27.0655 9.06963 26.7732C9.08643 26.4775 9.04588 26.3789 9.26316 26.1446C9.49075 25.9171 9.42287 25.5228 9.42287 25.5228L9.71855 25.7063L9.78575 25.6044C9.78575 25.6044 9.89439 25.6892 9.89439 25.8219C9.91814 25.6384 9.81958 24.7888 10.0438 24.5952C10.268 24.4017 10.6656 25.5024 10.6656 25.5024L10.421 23.9053L9.79225 22.2676L8.67426 20.7724L8.60706 19.1243V18.9816C8.60706 18.9816 8.09388 19.77 7.95119 20.3928C7.84927 20.8208 8.09388 21.3407 8.04303 21.9558C8.00204 22.5676 7.95119 22.5199 8.1006 22.7622C8.25001 23.0046 8.61379 23.503 8.4711 23.8632C8.34543 24.1725 7.91715 23.955 7.91715 23.955C7.91715 23.955 7.83225 24.2064 7.71666 24.2982C7.6759 24.1488 7.63177 24.0536 7.55023 23.9622C7.54329 24.02 7.52649 24.0982 7.52649 24.0982C7.52649 24.0982 7.45167 23.8636 7.37686 23.568C7.27516 23.174 7.1663 22.654 7.06774 22.3754C7.02697 22.5351 6.92505 23.021 6.92505 23.021L6.98284 23.7687L7.2615 24.7948L7.5303 25.4668L7.79193 26.2891L8.01929 26.8415L8.20275 27.2628L8.36246 28.211L9.13369 29.0264L9.54495 29.2101L9.84377 29.0571L9.84422 29.0569Z" fill="#F3E19D"/>
<path fill-rule="evenodd" clip-rule="evenodd" d="M7.64546 17.1194C7.64546 17.1194 7.09151 18.0602 6.93202 19.0086C6.77253 19.957 6.62962 20.9592 6.73042 22.2503C6.83234 23.552 7.0261 24.3503 7.18245 24.9213C7.45125 25.8695 8.14744 27.188 8.14744 27.188L8.17119 27.1369C8.05416 26.9151 7.96077 26.6816 7.89253 26.4402C7.80069 26.08 7.76664 25.652 7.68175 25.4582C7.60693 25.2647 7.48127 25.098 7.42011 24.8601C7.36232 24.6326 7.35291 24.2724 7.17551 24.004C7.10069 23.8952 7.00885 23.6098 6.98175 23.3244C6.9477 22.8961 6.99877 22.417 6.958 22.023C6.88319 21.3671 6.83234 20.922 6.90021 20.5786C6.96808 20.2352 7.32178 19.2604 7.53928 18.4856C7.68197 17.9894 7.59685 17.5714 7.85848 17.1398C8.12011 16.7117 8.28005 16.3345 8.33762 16.0728C8.40482 15.835 7.64456 17.1194 7.64456 17.1194H7.64546Z" fill="#F2E8B0"/>
<path fill-rule="evenodd" clip-rule="evenodd" d="M10.2723 16.7422C10.2723 16.7422 9.98694 16.8273 9.85097 16.9767C9.715 17.1194 9.65721 17.2383 9.47375 17.4796C9.2903 17.7208 9.27999 17.918 9.13036 18.2204C8.98095 18.516 8.65123 18.9611 8.61046 19.1208C8.56969 19.2806 8.50182 20.028 8.41692 20.3815C8.34211 20.735 8.50182 21.17 8.50182 21.17L8.69535 21.129C8.69535 21.129 8.69535 21.3806 8.88911 21.5506C9.08265 21.717 9.1167 20.9863 9.1167 20.9863L9.84044 18.5431L10.9311 17.8024L11.05 17.2043L10.2719 16.7422H10.2723Z" fill="#F5EEC0"/>
<path fill-rule="evenodd" clip-rule="evenodd" d="M10.8024 17.8501C10.8024 17.8501 10.2892 17.884 10.0379 18.0676C9.93596 18.1422 9.89519 18.2034 9.78655 18.2952C9.58607 18.4617 9.38201 18.6147 9.28367 18.8328C9.17481 19.0501 9.05586 19.3798 8.97433 20.0017C8.94028 20.2633 8.94028 20.5045 8.91653 20.7153C8.88249 21.0007 8.83164 21.2283 8.85874 21.3873C8.89279 21.7135 9.22924 21.8835 9.26194 22.2538L9.95858 21.9005L10.6145 19.3144L12.0077 18.4408L11.2193 17.5574L10.8015 17.8486L10.8024 17.8501Z" fill="#E6DB9D"/>
<path fill-rule="evenodd" clip-rule="evenodd" d="M7.12718 35.2641C7.13009 35.2386 7.133 35.213 7.13591 35.1868C7.23761 34.3132 7.25486 33.6511 7.32945 33.2365C7.43809 32.6487 7.51291 32.4301 7.49588 32.2101C7.47214 31.8569 7.44503 31.5986 7.47908 31.3266C7.52993 30.9665 7.8834 30.5384 7.87332 30.2427C7.86638 30.0082 7.74743 29.8554 7.64551 29.7127C7.54359 29.57 7.46206 29.4511 7.46206 29.4511C7.46206 29.4511 8.1587 28.972 8.15198 27.0417C8.1662 27.0458 8.17989 27.0515 8.19274 27.0588L8.53591 28.0338L8.77044 28.3192L9.67092 29.9979L10.8297 31.1228L12.5422 32.2746L13.616 33.4432L13.7246 36.5593L12.3213 38.3806L12.0915 38.7968C10.2656 37.8802 8.59124 36.6887 7.12695 35.2639L7.12718 35.2641Z" fill="#E5CB7A"/>
<path fill-rule="evenodd" clip-rule="evenodd" d="M11.4141 38.2451C11.4141 38.2451 11.4378 37.8578 11.7572 37.6062C11.8083 37.6911 11.8421 37.7729 11.832 37.8338C11.8898 37.7321 12.2942 37.0796 13.2083 36.9096C14.1224 36.7432 14.3433 36.0772 14.3433 36.0772L16.2834 34.3137L18.5023 32.2714L21.2004 31.3233L22.4613 31.0139C22.4613 31.0139 22.485 31.1057 22.4376 31.3096C22.6719 31.2928 23.1918 31.1738 23.732 30.9834C23.9496 30.8985 24.1536 30.8645 24.2623 30.9767C24.422 31.1261 24.4457 31.4796 24.4558 31.6902C24.7174 31.6324 25.0198 31.381 25.2622 31.4048C25.6497 31.4456 25.9929 31.9009 26.3871 31.9009C26.907 31.9009 27.1413 31.5815 27.5051 31.33C27.7226 31.1806 28.0351 30.994 28.2118 30.8679C28.6332 30.5585 33.0914 29.1959 33.0914 29.1959L34.6545 29.2978L34.9061 30.9765L34.7717 35.3647C34.7551 35.3806 34.7385 35.3971 34.7217 35.413L27.6146 39.1249L17.7631 40.6352C15.5563 40.2746 13.4268 39.5421 11.4651 38.4689L11.4147 38.2449L11.4141 38.2451Z" fill="#D8C173"/>
<path fill-rule="evenodd" clip-rule="evenodd" d="M7.72461 35.8223C7.86461 35.5296 7.9905 35.2847 8.01267 35.1971C8.03015 35.3737 8.06218 35.7609 8.12669 36.1727C7.99124 36.0575 7.85722 35.9407 7.72461 35.8221V35.8223Z" fill="#F1D789"/>
<path fill-rule="evenodd" clip-rule="evenodd" d="M14.921 39.952L16.1951 39.5976L16.3038 39.6317C16.3038 39.6317 16.3615 39.6657 16.3615 39.7811C16.5213 39.6895 16.6572 39.7063 16.7558 39.6454C16.8066 39.754 16.8575 40.1142 17.0819 40.1583C17.3162 40.2094 17.5678 40.0564 17.8227 39.8629C18.074 39.6624 18.3603 39.4108 18.5769 39.3089C18.6564 39.455 18.7268 39.6059 18.7877 39.7607C19.0731 39.5331 19.5692 38.6089 20.2759 38.6257C20.4802 38.143 20.8215 37.7307 21.2575 37.4399C21.9134 36.9948 22.3244 36.9607 22.8376 37.0015C23.0414 36.7367 23.2926 36.5121 23.5784 36.3389C23.6633 36.3729 23.8978 36.5156 24.1901 36.3797C24.4858 36.2439 24.8187 35.7171 25.257 35.6492C25.4933 35.6167 25.7334 35.6671 25.9367 35.7919C25.9367 35.7919 27.2134 34.5243 28.0944 34.1029C28.0604 34.001 27.9925 33.6171 29.0254 32.7674C29.0832 32.8185 29.0424 32.9612 29.0832 32.969C29.1 32.969 29.352 32.8604 29.671 32.6156C30.0652 32.3201 30.5374 32.0108 30.8228 31.9259C31.3604 31.7662 31.9307 32.0923 31.9307 32.0923C31.9792 32.0583 32.0332 32.033 32.0904 32.0175C32.2261 31.9937 32.3247 31.9767 32.3995 31.9503C32.3928 32.127 32.4913 32.4294 32.3995 32.6911C32.5059 32.7509 32.6186 32.7987 32.7355 32.8337C32.6779 32.9594 32.552 33.2788 32.3415 33.4318C32.518 33.5167 32.5417 33.6153 32.7933 33.7006C32.6914 33.8433 32.5245 34.0881 32.4501 34.2382C32.3753 34.3979 32.1067 35.0605 31.9878 35.3119C31.8621 35.5634 31.6923 36.0255 31.6106 36.1183C31.5288 36.211 31.2334 36.6041 31.0058 36.7976C31.2074 36.7228 32.0321 36.4715 32.382 36.3763C32.2779 36.5291 31.7499 37.3124 31.2423 38.0657C28.812 39.5224 26.0992 40.4443 23.2846 40.7702C20.47 41.096 17.6183 40.8182 14.9194 39.9554L14.921 39.952Z" fill="#E0CD81"/>
<path fill-rule="evenodd" clip-rule="evenodd" d="M10.8864 17.7583C10.8864 17.7583 10.591 17.7583 10.5332 17.799C10.4754 17.8398 10.8289 17.9249 10.9375 17.9657C11.0462 18.0065 11.2807 18.1933 11.3418 18.3429C11.3996 18.4856 13.4656 19.318 13.4656 19.318L14.9267 19.2432L15.4305 18.5472L14.4722 17.7079L15.1442 15.7268L14.2541 15.8695L12.1133 17.1463L11.0394 17.5576L10.8864 17.7583Z" fill="#DFC57C"/>
<path fill-rule="evenodd" clip-rule="evenodd" d="M14.0953 18.4142C14.1164 18.4484 14.1462 18.4764 14.1816 18.4955C14.2169 18.5145 14.2567 18.524 14.2969 18.5228C14.5993 18.5228 14.8777 18.5976 14.9933 18.7504C15.1871 18.9952 15.724 19.7768 15.724 19.7768L17.0084 20.2389L17.0913 18.7264L15.6879 17.7513L14.0908 18.3391V18.4139H14.0944L14.0953 18.4142Z" fill="#E5CC7C"/>
<path fill-rule="evenodd" clip-rule="evenodd" d="M13.8433 18.9748C13.8433 18.9748 14.0776 18.9918 14.3733 18.8829C14.669 18.7741 15.1548 18.5398 15.3656 18.6316C15.6611 18.7573 15.5999 19.1515 15.9196 19.5052C16.1131 19.7227 16.4666 19.716 16.6671 19.9505C16.8675 20.185 17.5572 20.0762 17.5572 20.0762L17.8189 21.4874L16.769 22.8332L16.4256 24.5049H15.0059L13.7089 23.9904L13.0701 22.4448L13.3895 20.8817L13.8433 18.9748Z" fill="#D2C281"/>
<path fill-rule="evenodd" clip-rule="evenodd" d="M16.5894 19.0427C16.6246 19.0535 16.6612 19.0593 16.6981 19.0597C16.6573 19.0937 16.5722 19.1683 16.6062 19.3621C16.6403 19.5559 16.7489 19.8005 16.6573 19.9499C16.7304 20.0298 16.785 20.125 16.817 20.2285C16.8748 20.3952 16.8918 20.548 17.2688 20.5719C17.2144 20.6054 17.1642 20.6454 17.1194 20.6909C17.1194 20.6909 17.381 20.9185 17.5137 21.129C17.6494 21.1232 18.0096 21.0112 18.0096 21.0112L18.0844 21.0623L18.2441 20.9951C18.2441 20.9951 18.0947 20.9373 18.2034 20.5737C18.3053 20.2543 18.3971 20.2713 18.405 20.2476C18.4128 20.2238 18.4798 19.8874 18.4798 19.7514C18.5306 19.5749 18.5714 19.038 18.5714 19.038L18.4627 17.8521L17.8512 17.4816L17.3539 17.0016L16.8849 17.885L16.576 18.193L16.5522 18.9576L16.5894 19.0427Z" fill="#E2C270"/>
<path fill-rule="evenodd" clip-rule="evenodd" d="M18.0608 18.0506C18.0608 18.0506 18.1694 18.3597 18.2104 18.5976C18.2249 18.5514 18.2329 18.5033 18.2342 18.4549C18.2342 18.4549 18.3191 18.924 18.3359 19.1177C18.3699 19.1108 18.4031 19.1007 18.4107 19.1345C18.4183 19.1684 18.4958 19.5458 18.4779 19.7564C18.6194 19.5229 18.8152 19.3271 19.0486 19.1856C19.1846 19.1005 19.3443 19.0089 19.511 19.0019C19.7726 18.9952 19.9628 19.1686 20.2755 19.1686C21.0297 19.1686 21.7129 18.6146 22.2158 18.4448C22.586 18.3189 22.9055 18.2273 23.1297 18.0233C23.2385 17.9317 23.4323 17.7278 23.6088 17.4252C23.8433 17.022 24.088 16.671 24.3328 16.6269C24.222 16.6472 24.1093 16.6552 23.9968 16.6506C23.9968 16.6506 24.0716 16.5758 24.1984 16.4739C24.3252 16.3719 24.477 16.2463 24.6943 16.2463C25.0818 16.2463 25.2754 16.3038 25.4929 16.3038C25.7104 16.2971 25.8361 16.2463 25.8361 16.2463C25.8361 16.2463 26.0639 16.406 26.5768 16.406C27.09 16.4127 27.4332 16.4568 27.7018 16.4808C27.9703 16.5048 28.8706 16.406 29.1289 16.4136C29.2972 16.4201 29.4626 16.4606 29.6149 16.5325L28.7823 14.1133L25.7915 11.4993L24.0109 12.7599L21.2718 15.4988L18.6215 16.4808L18.0675 17.1026V18.0506H18.0608Z" fill="#CCB360"/>
<path fill-rule="evenodd" clip-rule="evenodd" d="M24.0075 16.664C24.0075 16.664 24.0823 16.5894 24.2078 16.4875C24.3332 16.3856 24.4866 16.2597 24.7039 16.2597C25.0912 16.2597 25.285 16.3175 25.5025 16.3175C25.72 16.3108 25.8457 16.2597 25.8457 16.2597C25.8457 16.2597 26.0737 16.4192 26.5864 16.4192C27.0996 16.4259 27.4428 16.47 27.7114 16.4938C27.9799 16.5175 28.8802 16.4192 29.1385 16.4266C29.3068 16.4329 29.4721 16.4734 29.6243 16.5455L29.2471 15.4546L28.809 14.6222L27.5584 13.2527C27.5584 13.2527 26.0576 12.3693 26.0461 12.3625C26.0394 12.3558 25.5262 12.2198 25.5262 12.2198L24.167 13.0422L22.9337 16.233L22.9099 16.905L23.7082 17.2822C23.9087 16.9462 24.1298 16.6774 24.337 16.6434C24.15 16.6638 24.0073 16.6638 24.0073 16.6638L24.0075 16.664Z" fill="#D5B457"/>
<path fill-rule="evenodd" clip-rule="evenodd" d="M23.9903 16.8918C23.8714 16.8986 23.773 16.8748 23.7457 16.7899C23.6438 16.5046 23.5623 16.4638 23.4769 16.4638C23.3916 16.4638 23.2764 16.6472 23.2081 16.664C23.1398 16.6808 23.0587 16.4535 23.0587 16.4535L22.9839 16.4194C22.9839 16.4194 22.5455 16.7048 22.2364 17.0413C21.9273 17.3777 21.4208 17.9487 21.1932 18.0504C20.9656 18.1521 20.1839 18.1863 19.9164 18.2441C19.649 18.3019 19.3524 18.4957 19.3116 18.5398C19.2709 18.5839 19.4308 18.6314 19.4545 18.6756C19.4783 18.7163 19.1927 18.6993 19.1689 18.7428C19.1521 18.7768 19.2361 18.9703 19.2778 19.0689C19.3507 19.0327 19.4307 19.0129 19.5121 19.0111C19.7737 19.0044 19.9641 19.1778 20.2766 19.1778C21.0311 19.1778 21.714 18.6238 22.2169 18.4538C22.5874 18.3281 22.9068 18.2363 23.1311 18.0325C23.2397 17.9408 23.4335 17.7368 23.6102 17.4344C23.7392 17.2272 23.8651 17.0334 23.991 16.8907L23.9903 16.8918Z" fill="#D2B257"/>
<path fill-rule="evenodd" clip-rule="evenodd" d="M13.1712 33.7088C13.1712 33.7088 13.104 33.4573 12.4813 32.8083C12.3045 32.6249 12.1959 32.4723 12.0769 32.3632C11.7813 32.0844 11.6079 32.0098 11.3973 31.8501C10.9352 31.5069 10.4323 31.5069 10.045 31.0855C9.65774 30.6642 9.20638 29.8591 8.89278 29.0364C8.58366 28.2141 8.49854 27.9525 8.49854 27.9287C8.49854 27.905 8.58366 27.7453 8.6923 27.769C8.80094 27.7927 8.80094 28.0033 8.82826 28.0544C8.88239 28.1377 8.94378 28.2161 9.01172 28.2887C9.17143 28.4724 9.39902 28.6919 9.5146 29.0194C9.49086 28.7407 9.39566 28.4316 9.39566 28.4316C9.39566 28.4316 9.99374 28.8088 10.5033 29.2028C11.0165 29.5971 11.2271 29.733 11.3769 29.9844C11.5268 30.2357 11.8798 30.8985 12.0489 31.0923C12.2181 31.286 14.5353 32.0165 14.5353 32.0165L15.6376 32.8383L16.1849 34.0379L15.7566 34.7099L14.9343 34.8866L13.5988 34.2885L13.1712 33.7086V33.7088Z" fill="#D2B159"/>
<path fill-rule="evenodd" clip-rule="evenodd" d="M10.2043 29.5768C10.2043 29.5768 10.483 30.0219 11.1626 30.4432C11.7744 30.8137 12.7427 31.1501 13.606 31.3506C14.1019 31.4696 14.5981 31.5612 15.0432 31.5681C16.2427 31.5849 17.0684 31.242 18.0914 31.1298C18.6453 31.072 19.325 31.0278 20.0317 30.861C20.9389 30.6435 21.4758 30.3986 22.2065 30.0546C22.7365 29.8099 23.2226 29.6265 23.6166 29.392C24.1705 29.0658 24.5748 28.7023 25.0439 28.5936C24.9861 28.7533 24.925 29.0387 24.4628 29.3344C24.7074 29.3275 25.0439 29.3107 25.0439 29.3107C25.0439 29.3107 24.7178 29.5042 24.1434 29.9392C23.7899 30.208 23.3211 30.6629 22.842 30.9653C22.5326 31.1591 22.1962 31.3013 21.9753 31.4174C21.4377 31.7131 21.2209 31.8625 20.8676 32.2238C20.9933 32.2171 21.0036 32.2238 21.0036 32.2238C21.0036 32.2238 20.5583 32.2816 20.2391 32.4514C20.1719 32.4514 20.0554 32.4276 19.8516 32.4854C19.6919 32.5363 19.4811 32.6521 19.2638 32.713C18.9545 32.8048 18.8528 32.7641 18.8528 32.7641L18.9036 32.866C18.9036 32.866 18.5004 32.859 18.366 32.8727C18.3898 32.8794 18.383 32.8897 18.383 32.8897C18.3594 32.8937 18.3367 32.9017 18.3158 32.9135C18.2512 32.9554 18.18 32.9863 18.1053 33.0051C18.0645 33.0118 18.0305 33.0118 17.9794 33.0221C17.9964 33.0629 18.129 33.2909 18.1902 33.4253C18.1393 33.4594 17.3746 34.0371 17.3746 34.0371C17.3983 34.0744 17.4177 34.1143 17.4324 34.156C17.4561 34.2306 17.4664 34.3395 17.4902 34.3903C17.5477 34.4922 17.5818 34.5092 17.5818 34.5092C17.5818 34.5092 17.4902 34.5263 17.3302 34.567C17.1945 34.6011 17.0278 34.6587 16.7926 34.6927C16.7205 34.7021 16.6479 34.7078 16.5751 34.7097C16.6092 34.7845 16.7586 35.0699 16.4833 35.3994C16.208 35.7289 16.1231 35.7769 16.0382 35.9874C15.9955 35.9551 15.95 35.9266 15.9022 35.9023C15.8106 35.8615 15.6847 35.8006 15.6406 35.7188C15.6149 35.8278 15.5808 35.9346 15.5387 36.0383C15.4538 36.2659 15.3281 36.4903 15.3044 36.6601C15.2125 36.5582 15.0427 36.3577 14.8082 36.3985C14.5737 36.4392 14.3869 36.7587 14.3461 36.8505C14.3461 36.7927 14.3053 36.7486 14.2953 36.8164C14.2883 36.8913 14.1593 37.6726 13.4389 38.3047C13.4322 38.145 13.4322 37.7915 13.4152 37.6762C13.348 37.7434 13.2658 37.8426 12.7763 38.0534C12.2972 38.2639 12.3731 38.4747 12.3731 38.4747C12.3731 38.4747 12.3323 38.1387 12.5906 37.7848C12.8523 37.4315 13.012 37.2649 13.012 37.2378C13.0077 37.2102 12.996 37.1843 12.9779 37.163C12.9439 37.1289 12.876 37.0882 12.876 37.0611C12.9168 37.0443 13.3211 36.8505 13.2973 36.4493C13.2736 36.0893 13.1208 35.9023 13.012 35.7699C12.9952 35.7529 13.1719 35.6272 13.1479 35.5865C13.1309 35.5627 12.9136 35.4028 12.8863 35.3177C12.8927 35.2669 12.9041 35.2168 12.9203 35.1683C12.9441 35.0934 12.9611 35.0424 12.9544 34.9915C12.9374 34.9066 12.8455 34.6721 12.8184 34.6483C12.8422 34.6551 13.012 34.6483 13.012 34.6483C13.012 34.6483 12.8762 34.4308 12.8523 34.3289C12.8283 34.227 12.7774 33.9584 12.7503 33.9076C12.8081 33.9143 12.9508 33.9244 12.9508 33.9076C12.9578 33.8565 12.8251 33.7716 12.8836 33.706C12.9244 33.7127 13.0026 33.7467 13.0771 33.8419C13.0364 33.7331 12.9685 33.5225 12.8256 33.4376C12.8928 33.4139 13.1213 33.3525 13.3218 33.4715C13.5222 33.5904 13.5906 33.7568 13.5906 33.7568C13.5906 33.7568 13.7095 33.8487 13.8932 33.9846C14.1037 34.1511 14.3721 34.3878 14.8004 34.5554C14.8922 34.6065 15.1265 34.6065 15.2965 34.5724C15.3706 34.5548 15.4415 34.5262 15.5071 34.4875C15.5308 34.4736 15.5558 34.4622 15.5819 34.4535C15.5454 34.3801 15.5034 34.3097 15.4563 34.2427C15.514 34.2427 15.5819 34.2496 15.5819 34.2496C15.5819 34.2496 15.6227 34.1578 15.4392 33.9808C15.48 33.9401 15.5311 33.9136 15.5311 33.8449C15.4733 33.8381 15.3714 33.7532 15.3476 33.7192C15.3814 33.6955 15.4325 33.6173 15.4903 33.5935C15.4392 33.5528 15.3136 33.3827 15.2558 33.3659C15.311 33.3455 15.3644 33.3204 15.4155 33.2911C15.4155 33.2911 15.1301 33.2163 15.0383 33.1552C14.9464 33.088 14.8107 32.9717 14.7291 32.9377C14.644 32.9036 14.4946 32.8868 14.4335 32.8187C14.491 32.8357 14.5829 32.8187 14.651 32.8187C14.7018 32.8187 14.7258 32.8254 14.7426 32.8254C14.7359 32.8017 14.7359 32.7506 14.8685 32.7338C14.9323 32.7242 14.9942 32.7047 15.0519 32.676C15.0519 32.676 14.926 32.6693 14.7831 32.5333C14.6402 32.3974 14.5215 32.2887 14.44 32.2717C14.3551 32.2547 14.1954 32.3295 14.0968 32.3226C13.9608 32.3058 13.903 32.2377 13.903 32.2377C13.903 32.2377 13.4512 32.2784 12.4488 31.6669C11.5822 31.1367 11.205 30.6679 11.205 30.6679C11.1238 30.6384 11.0455 30.602 10.9707 30.559C10.6445 30.3892 10.1925 30.0357 10.2061 29.5734L10.2043 29.5768Z" fill="#C2A44D"/>
<path fill-rule="evenodd" clip-rule="evenodd" d="M22.7057 9.18151C22.7843 9.20705 22.8541 9.25416 22.9073 9.31748C23.067 9.50094 23.1689 9.84746 22.8054 10.218C22.948 10.2688 23.007 10.2852 23.1315 10.2688C23.0058 10.4184 22.7205 10.7379 22.7034 11.0165C22.6864 11.2441 22.8291 11.3122 22.8291 11.3122C22.8291 11.3122 22.6116 11.5635 22.6015 11.9842C22.7042 11.8684 22.8166 11.7615 22.9375 11.6648C23.1891 11.4643 23.5356 11.2367 23.7701 11.094C23.7669 11.1538 23.775 11.2137 23.7939 11.2705C23.7939 11.2705 24.232 10.9103 24.6003 11.0703C24.7667 11.1451 24.6919 11.3794 24.6919 11.3794C24.6919 11.3794 24.9197 11.2945 25.0794 11.4542C25.2391 11.6139 25.4649 12.0259 25.5807 12.1856C25.6316 12.2604 25.7642 12.4031 25.8999 12.6239C26.0854 12.9332 26.2402 13.2597 26.3622 13.599C26.369 13.4223 26.4131 13.1472 26.9162 13.3204C27.4191 13.4971 27.9898 13.8676 28.469 14.5972C28.9481 15.3267 29.0668 16.1504 29.3081 16.464C29.5527 16.7664 29.8042 17.2693 29.8213 17.48C29.8383 17.6908 29.7464 18.3702 30.2493 20.2086C30.392 19.6378 30.6095 18.3702 30.6095 18.3702L30.7285 17.2522L30.8644 13.793L27.2522 10.7921L24.4285 8.74292L22.5901 8.91966L22.7054 9.18129L22.7057 9.18151Z" fill="#CAA13E"/>
<path fill-rule="evenodd" clip-rule="evenodd" d="M29.4171 14.3295C29.4171 14.3295 29.366 13.9935 28.5166 13.4223C27.667 12.8583 27.0044 12.8583 26.3929 12.3792C25.9238 12.002 25.4346 11.1353 25.1161 10.8499C24.8067 10.5679 24.7559 9.75233 24.7559 9.75233L25.799 8.87873L27.3505 6.63627L28.662 5.19214L29.2905 6.06574L30.1641 7.09188L30.65 9.15111L30.8267 12.1653L29.4155 14.3298L29.4171 14.3295Z" fill="#B59544"/>
<path fill-rule="evenodd" clip-rule="evenodd" d="M30.4672 17.9424C30.4929 17.4853 30.4365 17.0273 30.3005 16.5901C30.0765 15.8935 29.5871 14.6566 29.3597 14.1933C29.2679 13.6802 29.336 13.6394 29.4345 13.5816C29.5331 13.5238 29.9036 13.3128 30.1065 12.5725C30.3095 11.8322 30.9392 11.808 30.9392 11.808L31.3265 11.5226L31.9145 12.9938L32.4274 14.3226L32.5871 15.3386L32.7061 16.2051L32.4274 18.0367L31.0514 19.2804L30.467 17.9424H30.4672Z" fill="#C89D3A"/>
<path fill-rule="evenodd" clip-rule="evenodd" d="M11.2646 38.3576V38.3199C11.2932 38.3021 11.3185 38.2793 11.3392 38.2527C11.363 38.2187 11.3802 38.1779 11.397 38.1678C11.4311 38.1508 11.5908 38.1006 11.6757 38.1168C11.7606 38.1329 11.985 38.2254 12.104 38.2187C12.3486 38.212 12.634 38.0249 13.086 38.1101C13.7656 38.2357 13.9253 38.6978 14.3196 38.9595C14.5884 39.1431 14.8666 39.0614 14.9073 39.0614H14.999C15.016 39.0614 15.1416 38.9187 15.2097 38.9256C15.3457 38.9324 15.3591 39.0446 15.444 39.0513C15.6445 39.075 16.032 38.9494 16.2258 39.0005C16.2833 39.0185 16.3355 39.0501 16.3781 39.0926C16.4207 39.1352 16.4524 39.1874 16.4704 39.2448C16.5112 39.3705 16.4771 39.5302 16.3786 39.6221C16.168 39.8156 15.9675 39.9993 15.9268 40.1597C15.9786 40.1992 16.0284 40.2414 16.0759 40.286C14.3946 39.8576 12.777 39.2099 11.2646 38.3596V38.3576Z" fill="#CEB052"/>
<path fill-rule="evenodd" clip-rule="evenodd" d="M29.3594 31.5681C29.3594 31.5681 29.8894 30.8614 30.073 30.5113C30.2565 30.1504 29.492 25.5808 29.492 25.5808L31.028 20.5485L30.987 18.9106C30.987 18.9106 31.0618 17.3983 31.2385 16.7425C31.4493 17.1197 32.1052 17.5751 32.2479 17.8163C32.3151 17.354 32.5433 16.3789 32.5095 15.3391C32.6352 15.5326 32.9376 17.4799 32.9376 17.4799L33.24 18.7914L33.6342 20.1847L34.0726 21.6561L34.3342 22.6722L34.4836 22.9168L34.6095 23.3449L34.7284 23.8072L35.0716 24.8911L35.2732 25.7813L35.4329 27.3955C35.4676 27.5191 35.4927 27.6452 35.5077 27.7727C35.5144 27.9494 35.484 28.0513 35.484 28.082C35.484 28.1127 35.5418 28.4693 35.518 28.7379C35.484 29.0067 35.484 29.217 35.2732 29.4099C35.0624 29.6028 34.93 30.7555 34.93 30.7555L34.5528 30.5041C34.5528 30.5041 34.6276 30.1607 34.4509 29.8483C34.2742 29.5358 33.931 29.471 33.7372 29.5221C33.5437 29.5629 33.1564 29.6238 33.0305 29.7327C32.9116 29.8413 32.6195 30.1778 32.3509 30.3308C32.0149 30.5324 31.4674 30.5483 31.1753 30.6161C30.8797 30.6833 30.5535 30.8849 30.2101 31.119C29.9409 31.2933 29.6566 31.4433 29.3607 31.567L29.3594 31.5681Z" fill="#CCA847"/>
<path fill-rule="evenodd" clip-rule="evenodd" d="M29.3594 38.9927C29.3594 38.9927 29.3818 39.0073 29.425 39.031C31.8392 37.9 34.0023 36.2967 35.7866 34.3158C35.7671 33.6282 35.7418 32.9232 35.714 32.6621C35.6565 32.1081 35.6972 31.5441 35.6802 31.2179C35.6632 30.8918 35.4797 29.563 35.3948 29.2198C35.303 28.8767 35.126 28.7067 35.0992 28.7067C35.0754 28.7136 34.9325 29.3525 34.9325 29.5131C34.9325 29.6737 34.8984 30.0603 34.8984 30.1589C34.8747 30.1519 34.8646 30.0917 34.8646 30.067C34.8306 30.1519 34.7898 30.3015 34.7728 30.3186C34.7558 30.3356 34.7965 30.1759 34.7728 30.1418C34.749 30.1078 34.7056 30.1248 34.715 30.0399C34.719 29.9896 34.727 29.9396 34.7387 29.8905C34.7387 29.8905 34.6368 30.0399 34.5622 30.4205C34.4874 30.7977 34.4874 30.808 34.4603 30.8418C34.4366 30.8828 34.3006 31.0186 34.2936 31.0696C34.2869 31.1613 34.4195 31.2531 34.4296 31.3039C34.4363 31.3891 34.3107 31.7831 34.2699 31.9759C34.2291 32.1688 34.2462 32.5467 34.2027 32.7405C34.1687 32.9172 34.1355 33.0191 34.0192 33.0937C34.1041 33.1107 34.1857 33.1345 34.1857 33.1345C34.1857 33.1345 34.3046 33.6374 34.0022 34.0656C33.8936 34.215 33.8665 34.2831 33.7509 34.4191C33.5231 34.6704 33.3464 34.9567 33.3293 35.1429C33.3176 35.0879 33.3096 35.0322 33.3056 34.9762C33.3056 34.9762 32.9523 35.3875 32.8027 35.622C32.6092 35.9244 32.3406 35.9074 32.2651 35.9822C32.1896 36.057 32.1733 36.1927 32.1979 36.3016C32.1307 36.3184 32.0044 36.3424 31.9192 36.604C31.8785 36.7398 31.7766 36.8728 31.6168 36.9642C31.4571 37.0556 31.2634 37.0831 31.1648 37.1069C31.2497 37.1306 31.2838 37.1306 31.3245 37.1577C31.2737 37.2426 31.0391 37.3752 30.7775 37.5453C30.5159 37.705 30.39 37.9393 30.3255 38.0923C30.2583 38.235 30.1591 38.3268 29.9993 38.3438C30.0665 38.3846 30.166 38.4796 30.2168 38.5102C30.142 38.5273 30.0152 38.5273 29.7888 38.721C29.5509 38.9182 29.4694 38.9759 29.3605 38.993L29.3594 38.9927Z" fill="#C39D3C"/>
<path fill-rule="evenodd" clip-rule="evenodd" d="M24.631 40.5675C24.7611 40.4763 24.902 40.4016 25.0506 40.345C25.5805 40.1345 26.1412 40.0937 26.3621 40.0258C26.5729 39.9586 26.7393 39.8659 27.0009 39.8151C26.994 39.8746 26.9882 39.9306 26.9819 39.9835C26.2105 40.226 25.4251 40.421 24.6299 40.5675H24.631Z" fill="#D2BA6B"/>
<path fill-rule="evenodd" clip-rule="evenodd" d="M34.4064 26.6273C34.4064 26.6273 34.2978 27.2151 34.104 27.5856C33.9102 27.9561 33.7008 28.469 33.7008 28.469C33.7021 28.3534 33.7157 28.2383 33.7416 28.1256C33.497 28.2683 32.9022 28.6117 32.7336 28.7645C32.5739 28.9072 32.3053 29.1587 32.2374 29.2777C32.3971 28.8088 32.5636 28.3875 32.5909 28.1937C32.3463 28.3705 31.2043 29.3117 30.6098 29.9335L28.7578 31.4321C28.5441 31.5474 28.324 31.6504 28.0986 31.7408C27.7794 31.8765 27.4021 31.9921 27.1235 32.101C27.1983 31.9005 27.317 31.7235 27.4837 31.5537C27.6604 31.3873 28.1904 30.813 28.2719 30.5457C28.3468 30.2671 28.3638 30.1006 28.2652 29.8661C28.1734 29.8898 27.9628 29.9002 27.8201 29.9409C27.6774 29.9817 27.5245 30.1345 27.5245 30.1345C27.5245 30.1345 27.6331 29.5126 27.8676 28.9249C27.6909 28.9316 27.3885 28.9824 27.3885 28.9824C27.3885 28.9824 27.8098 28.2757 28.5309 27.7831C28.3101 27.8301 28.094 27.8972 27.8853 27.9834C27.464 28.1601 27.0019 28.4218 26.6587 28.5644C26.8522 28.2956 28.2115 26.3558 29.0203 24.5479C29.8267 22.7436 30.128 22.2815 30.3047 21.3131C30.3964 20.834 30.3719 20.1259 30.3964 19.4918C30.4201 18.863 30.4983 18.299 30.4474 17.9218C30.658 18.1834 31.4465 18.9208 31.4736 20.569C31.4973 22.217 30.7194 24.4428 29.8935 25.6421C30.0951 25.6999 30.6174 25.768 31.1541 24.8357C31.6909 23.9034 31.6844 23.6432 31.8781 23.2556C31.9019 23.4494 31.8949 23.5173 31.8949 23.5173C31.8949 23.5173 32.6767 22.5693 33.0469 21.3765C33.1218 21.8897 33.3426 22.3417 32.9959 23.283C32.6868 24.1324 32.2824 24.3398 32.2824 24.3398C32.2824 24.3398 32.4829 24.3058 32.7784 24.129C32.8294 24.2547 32.8194 24.3978 32.9043 24.4484C32.9892 24.4991 33.1047 24.5844 33.1218 24.6659C33.2134 24.53 33.3561 24.3566 33.4004 24.2276C33.3664 24.4964 33.3426 25.6717 33.4676 26.2698C33.7295 26.246 33.9978 26.229 34.1813 25.7566C34.0556 26.2189 34.0556 26.4974 34.1405 26.8916C34.2798 26.7966 34.4055 26.6266 34.4055 26.6266L34.4064 26.6273Z" fill="#C0993A"/>
<path fill-rule="evenodd" clip-rule="evenodd" d="M25.5772 7.89709C25.5772 7.89709 25.3155 8.00573 24.8704 8.00573C24.4831 8.00573 24.5918 7.85632 23.987 7.85632C23.056 7.85632 19.804 8.39392 19.233 8.38631C18.8625 8.37959 20.4834 8.54602 20.4834 8.54602L24.6258 8.60381L25.4582 8.53661L25.7676 7.90717L25.5772 7.89709Z" fill="#A88F33"/>
<path fill-rule="evenodd" clip-rule="evenodd" d="M14.8359 15.9947C14.8359 15.9947 14.3057 16.3991 14.0815 16.7084C13.8573 17.0177 13.7383 17.2214 13.4834 17.4729C13.5432 17.4752 13.603 17.4672 13.6601 17.4492C13.6601 17.4492 13.6601 17.5164 13.6194 17.5341C13.6546 17.5301 13.6903 17.5341 13.7237 17.5457C13.7572 17.5574 13.7877 17.5763 13.8129 17.6013C13.7381 17.642 13.5342 17.8461 13.694 18.0873C13.8129 18.2708 14.0645 18.2876 14.0645 18.2876C14.0645 18.2876 14.0067 18.4543 14.2479 18.4372C14.7678 18.4135 15.3489 18.1857 15.6172 18.2435C15.886 18.3107 16.0388 18.3353 16.229 18.665C16.4306 18.9912 16.6062 19.0423 16.6062 19.0423C16.6062 19.0423 16.7251 18.7396 16.698 18.2878C16.7955 18.0443 16.8496 17.7855 16.8577 17.5233L16.681 16.2219L15.9098 15.2466L14.9107 15.8005L14.8359 15.9941V15.9947Z" fill="#E3C571"/>
<path fill-rule="evenodd" clip-rule="evenodd" d="M15.7839 15.801C15.7839 15.801 15.8588 15.9777 16.1715 15.9945C16.1374 16.0694 16.1374 16.0797 16.1477 16.1372C16.1544 16.195 16.1645 16.2799 16.1645 16.2799C16.1989 16.2633 16.2301 16.2405 16.2564 16.2127C16.2734 16.2875 16.2393 16.4063 16.2564 16.4914C16.2669 16.5431 16.2839 16.5934 16.3072 16.6408C16.3122 16.6292 16.3178 16.6179 16.3242 16.607C16.3309 16.5899 16.3914 16.7904 16.5588 16.943C16.5586 16.9195 16.5644 16.8964 16.5756 16.8758C16.5781 16.9184 16.5922 16.9595 16.6163 16.9947C16.6038 16.9887 16.5924 16.9807 16.5825 16.971C16.5825 16.971 16.5993 17.5086 16.6911 17.7865C16.7065 17.7686 16.7201 17.7492 16.7319 17.7288C16.7319 17.712 16.7252 17.8784 16.7082 17.9976C16.6844 18.1165 16.7014 18.2829 16.7014 18.2829C16.7627 18.2347 16.83 18.1947 16.9017 18.164C17.0036 18.123 17.1705 17.9973 17.2722 17.7187C17.3312 17.5609 17.3767 17.3983 17.4082 17.2328C17.441 17.2961 17.4637 17.3641 17.4754 17.4344C17.4823 17.5193 17.642 17.4752 17.642 17.4752L17.6761 17.1047L17.8777 16.2654L18.0611 15.7455L18.9446 14.3694L20.5408 13.1401L21.9341 13.4595L23.1096 11.8624L21.0844 10.6459L19.1679 10.8464L17.4285 13.2555L16.0355 15.4406L15.7839 15.8008V15.801Z" fill="#D8B65B"/>
<path fill-rule="evenodd" clip-rule="evenodd" d="M25.8218 12.3147C25.8218 12.3147 25.7028 12.3384 25.3597 12.5163C25.0165 12.6941 24.7786 12.7506 24.646 13.0122C24.5134 13.2738 24.5033 13.4813 24.5033 13.4813C24.5033 13.4813 24.7379 13.3793 24.8738 13.3453C25.0165 13.3115 25.1762 13.3216 25.1592 13.3793C25.1429 13.419 25.1202 13.4557 25.092 13.488C25.092 13.488 25.3608 13.4813 25.3536 13.6139C25.3465 13.7465 25.3028 13.8925 25.2519 13.957C25.2009 14.0242 24.9903 14.1237 24.9666 14.2019C24.9088 14.3616 24.9903 14.3683 24.9596 14.4973C24.9359 14.6232 24.8239 14.8678 24.4567 15.2959C24.0795 15.7242 23.9191 16.0266 23.9191 16.0266C23.9191 16.0266 23.7357 15.6834 23.6405 15.3877C23.5733 15.4216 23.2124 15.622 23.2124 15.622L22.3764 12.71L22.3932 12.5163C22.3932 12.5163 22.4681 12.4247 22.4851 12.2546C22.3594 12.2139 22.3424 12.1798 22.1757 12.0203C22.0091 11.8609 21.8733 11.6669 21.5949 11.5343C21.5541 11.4594 21.5031 11.3577 21.2992 11.3168C21.0954 11.2758 20.9731 11.2422 20.9731 11.2422C20.9731 11.2422 21.0817 11.2012 21.1328 11.1163C21.0069 11.1333 20.9052 11.1741 20.6299 11.1673C20.3513 11.1604 20.3206 11.1503 20.1678 11.1741C20.015 11.1978 19.8318 11.2659 19.7635 11.0314C19.6887 10.9736 19.529 11.0247 19.393 11.2249C19.257 11.4252 19.2095 11.5851 18.9479 11.6633C18.9295 11.7786 18.8891 11.8893 18.829 11.9894C18.7541 12.1153 18.6352 12.241 18.4755 12.4278C18.2239 12.7235 18.2647 13.2093 17.8637 13.5798C17.4594 13.9501 17.9309 12.5535 17.9309 12.5535L18.5765 11.0079L20.4149 9.21026L23.2693 9.01672L23.548 10.4951L24.9412 10.9743L25.8213 12.3165L25.8218 12.3147Z" fill="#D3AE4D"/>
<path fill-rule="evenodd" clip-rule="evenodd" d="M26.2738 12.6408L25.0742 10.9113L24.2349 10.2655C24.2349 10.2655 23.6368 9.16478 23.5961 9.13073C23.562 9.10699 22.998 9.04584 22.6378 9.02209L22.705 9.18853C22.7836 9.21406 22.8535 9.26118 22.9066 9.32449C23.0663 9.50795 23.1682 9.85448 22.8047 10.225C22.9474 10.2758 23.0063 10.2922 23.1308 10.2758C23.0052 10.4255 22.7198 10.7449 22.7028 11.0235C22.6857 11.2511 22.8284 11.319 22.8284 11.319C22.8284 11.319 22.6109 11.5705 22.6008 11.991C22.7035 11.8752 22.816 11.7683 22.9368 11.6716C23.1884 11.47 23.5349 11.2433 23.7694 11.1006C23.7662 11.1605 23.7743 11.2204 23.7932 11.2773C23.7932 11.2773 24.2313 10.9171 24.5996 11.0768C24.766 11.1517 24.6912 11.3862 24.6912 11.3862C24.6912 11.3862 24.919 11.3013 25.0787 11.461C25.2384 11.6207 25.466 12.0318 25.5816 12.1917C25.6324 12.2665 25.7651 12.4092 25.9008 12.6298C26.0863 12.9391 26.2411 13.2658 26.3631 13.6051C26.3699 13.4692 26.3972 13.279 26.6319 13.279L26.2751 12.6401L26.2738 12.6408Z" fill="#CAA13E"/>
<path fill-rule="evenodd" clip-rule="evenodd" d="M8.29139 17.5544C8.29139 17.5544 8.2065 17.3436 8.29139 16.9326C8.37629 16.5215 8.5089 16.3278 8.55303 15.723C8.59715 15.1182 8.99139 14.3637 8.99139 14.3637L10.082 13.8678L10.8535 14.0784L11.0811 15.1114L10.1058 15.649C10.1058 15.649 10.0549 15.8766 9.77965 16.0601C9.50435 16.2435 9.12378 16.3862 9.03216 16.5733C8.97739 16.6878 8.93742 16.8088 8.91322 16.9335C8.91322 16.9335 8.63456 16.8757 8.46813 17.0591C8.29139 17.2462 8.29811 17.4126 8.29139 17.5553V17.5544Z" fill="#F4EFC8"/>
<path fill-rule="evenodd" clip-rule="evenodd" d="M10.4932 17.2791C10.4932 17.2791 10.4014 17.3369 10.3335 17.4807C10.2663 17.3721 10.1057 16.7263 10.099 16.1453C10.0922 15.5642 10.0575 15.4202 10.1919 15.2199C10.3263 15.0197 10.8534 14.8086 10.7786 14.448C10.7038 14.1048 10.3911 13.9621 10.0071 14.0607C9.73832 14.1279 9.53829 14.6996 9.25964 14.9849C9.04885 15.2024 8.79752 15.1684 8.72965 15.2873C8.63781 15.447 8.72271 15.6068 8.69561 15.7087C8.68866 15.7427 8.60376 15.9262 8.45077 16.147C8.14165 16.5921 7.61839 17.2209 7.55029 17.7849C7.57404 17.4655 7.55724 17.4588 7.64213 17.1053L7.59106 17.0204L7.92706 15.9195L8.14456 15.0123L8.63064 13.4931L9.48677 11.9403L10.3194 11.0092L11.1858 11.0669L11.2877 12.3684L11.7839 14.8118L12.8271 16.0962L11.1551 17.2213L10.4925 17.2791H10.4932Z" fill="#EBCC73"/>
<path fill-rule="evenodd" clip-rule="evenodd" d="M11.0131 17.7408C11.0131 17.7408 10.8704 17.7748 10.8194 17.7477C10.7683 17.7206 10.7177 17.6899 10.7345 17.6559C10.7513 17.6218 10.8431 17.5643 10.8431 17.5369C10.845 17.5122 10.8372 17.4878 10.8213 17.4687C10.8055 17.4497 10.7828 17.4376 10.7582 17.435C10.68 17.4249 10.6563 17.4758 10.6563 17.4758C10.6563 17.4758 10.5815 17.4182 10.5205 17.4086C10.5566 17.4042 10.5929 17.4018 10.6292 17.4016C10.5353 17.3591 10.4357 17.3305 10.3335 17.3167C10.4184 17.2659 10.585 17.1163 10.6937 17.1163C10.8023 17.1163 10.8704 17.0995 10.8534 17.0417C10.8364 16.9839 10.7515 16.899 10.6599 16.8649C10.6937 16.8242 10.7177 16.763 10.6361 16.5961C10.551 16.4297 10.585 16.3175 10.6124 16.2769C10.6361 16.2259 10.721 16.1342 10.7618 16.0764C10.8026 16.0187 10.8366 15.9405 10.9045 15.8997C10.9385 15.876 11.0472 15.8325 11.156 15.7911C11.275 15.7503 11.3735 15.6992 11.4414 15.7503C11.5162 15.8012 11.4822 15.8692 11.4822 15.8692C11.4822 15.8692 11.7167 15.7841 11.9273 15.893C12.138 15.9947 12.6512 16.0594 12.6512 16.0594L12.8351 16.4299L11.6186 17.4731L11.1157 17.7246L11.0138 17.7414L11.0131 17.7408Z" fill="#E5C66B"/>
<path fill-rule="evenodd" clip-rule="evenodd" d="M12.7018 16.0354C12.7018 16.0354 12.3246 16.287 12.2397 16.3786C12.2906 16.3856 12.3755 16.4196 12.3414 16.4705C12.3007 16.5213 12.0561 16.698 11.9201 16.8647C11.7774 17.0311 11.6414 17.2419 11.5939 17.3438C11.5431 17.4354 11.1556 17.704 11.0232 17.7378C11.3018 17.7378 11.8625 17.3947 12.0731 17.3947C12.0664 17.4966 12.1309 17.6122 12.2498 17.6223C12.3688 17.6323 12.7119 17.6971 13.174 17.4117C13.6362 17.133 13.4834 16.9256 13.6769 16.7899C14.0474 16.545 14.1968 16.3275 14.4007 16.1918C14.6045 16.0561 14.71 16.0251 14.71 16.0251C14.71 16.0251 14.7167 15.9232 14.7772 15.9335C14.7938 15.9354 14.8095 15.9418 14.8227 15.952C14.8359 15.9622 14.846 15.9758 14.852 15.9913C14.852 15.9913 15.2055 15.7398 15.6584 15.6719C15.6479 15.6672 15.6394 15.6587 15.6347 15.6481C15.6347 15.6481 15.6685 15.6311 15.6754 15.6141C15.6754 15.6141 15.6992 15.5801 15.7162 15.5971C15.7332 15.6141 15.757 15.7398 15.791 15.7908C15.8658 15.7568 16.0085 15.4374 16.0085 15.4374L16.3519 14.4553V13.5582L16.0831 13.6093L14.0671 14.4654L12.8436 15.733L12.701 16.0354H12.7018Z" fill="#E6BD62"/>
<path fill-rule="evenodd" clip-rule="evenodd" d="M18.5057 11.6349C18.6148 11.6085 18.7193 11.5661 18.8159 11.5091C18.7752 11.6179 18.7752 11.7369 18.5984 11.9951C18.4217 12.2534 18.415 12.2908 18.2723 12.5592C18.1296 12.8378 18.1126 13.2388 17.9766 13.4153C18.0376 13.3857 18.1029 13.3662 18.1702 13.3577C18.1702 13.3577 18.0344 13.4767 17.9766 13.6023C17.9188 13.728 17.8169 13.9896 17.5656 14.1496C17.3142 14.3095 16.9946 14.4112 16.6514 14.7884C16.308 15.1587 15.9548 15.6277 15.7778 15.7964C15.8697 15.6367 15.9953 15.3173 16.0294 15.1067C16.0634 14.8962 16.0224 14.6444 16.0802 14.366C16.138 14.0875 16.138 13.8868 16.4162 13.4007C16.6944 12.9147 17.1707 11.2259 17.1707 11.2259L18.1968 10.8998L18.5062 11.6338L18.5057 11.6349Z" fill="#B6933F"/>
<path fill-rule="evenodd" clip-rule="evenodd" d="M17.7649 11.0132C17.7649 11.0132 17.4558 11.4583 17.3709 11.8526C17.286 12.2468 17.3639 12.2128 17.3131 12.4065C17.2827 12.5246 17.2827 12.6486 17.3131 12.7667C17.4202 12.5942 17.5667 12.4497 17.7407 12.3451C18.033 12.1686 18.2709 12.0427 18.4127 11.8933C18.5554 11.7336 18.6743 11.472 18.9835 11.2715C18.8578 11.2545 18.6811 11.1967 18.6475 11.2043C18.7733 11.0616 19.1503 10.8441 19.5309 10.5825C19.9081 10.3137 19.8844 10.2053 20.4961 9.93691C20.2957 9.97096 20.2005 9.91989 20.0338 9.93691C20.101 9.79422 20.3362 9.72613 20.5714 9.49182C20.8066 9.25752 20.422 8.91077 20.422 8.91077L18.63 9.9947L17.7636 11.0141L17.7649 11.0132Z" fill="#C49937"/>
<path fill-rule="evenodd" clip-rule="evenodd" d="M12.9023 10.2043L12.9431 9.87817L13.4563 9.05587L13.9932 7.61174V5.6374L13.9525 4.49567L14.0374 3.74796L14.1019 3.5103L14.17 3.41846L14.6081 3.64604L15.2131 4.46834L15.2709 6.05538L14.6829 8.55971L13.0043 10.3914L12.9023 10.2043Z" fill="#DFC068"/>
<path fill-rule="evenodd" clip-rule="evenodd" d="M14.2378 3.32666C14.2378 3.32666 13.969 3.3336 13.9116 4.45159C13.8543 5.56957 13.8265 6.15735 13.7857 6.7113C13.745 7.26525 13.65 7.60148 13.6023 7.92784C13.5546 8.25421 13.5275 8.69908 13.3747 8.97101C13.3075 9.09668 13.1639 9.49092 12.8275 9.7866C12.4502 10.1127 11.8867 10.3405 11.8013 10.3576C11.6517 10.3914 10.8939 10.4662 10.5848 10.6362C10.4761 10.694 10.2891 10.7619 10.0819 10.9557C9.67062 11.3259 9.12362 11.9885 8.72938 12.7871C8.12458 13.9799 7.51978 17.3473 7.51978 17.3473L7.65574 17.1197C7.65574 17.1197 7.67277 16.8173 7.97517 16.2871C8.27085 15.7571 8.18595 15.1624 8.59699 14.1463C8.7567 13.759 8.95718 13.2561 9.20179 12.8278C9.58931 12.1312 10.0581 11.5331 10.5306 11.207C11.3018 10.677 12.1514 10.5614 12.1514 10.5614L13.0656 9.95661C13.0656 9.95661 13.2253 9.64749 13.4361 9.29402C13.7315 8.79808 14.1081 8.24413 14.1903 7.43885C14.3162 6.24605 14.0135 5.46452 14.0306 4.7578C14.0476 4.05108 14.0543 3.53117 14.1972 3.40528C14.3401 3.2794 14.238 3.32711 14.238 3.32711L14.2378 3.32666Z" fill="#A88F33"/>
<path fill-rule="evenodd" clip-rule="evenodd" d="M14.238 8.66167C14.238 8.66167 14.6412 7.66935 14.8258 6.78925C14.8598 6.61252 14.9277 6.43601 14.9447 6.29332C15.0296 5.46071 15.0534 5.11754 14.9447 4.66215C14.8598 4.32615 14.5337 4.0233 14.3637 3.78855C14.1972 3.54372 14.119 3.45255 14.1531 3.40103C14.1871 3.34951 14.3195 3.26528 14.4486 3.27536C14.5857 3.27936 14.7206 3.3112 14.8451 3.36896C14.9695 3.42673 15.0809 3.5092 15.1725 3.61136C15.4342 3.91376 15.6414 4.94013 15.6414 4.94013L15.8593 6.29444L16.4133 8.0002L14.2384 8.66301L14.238 8.66167Z" fill="#C99E3D"/>
<path fill-rule="evenodd" clip-rule="evenodd" d="M18.0266 7.62881C18.0266 7.62881 17.9517 7.66264 17.816 7.62881C17.8218 7.68429 17.8122 7.74028 17.7882 7.79063C17.7642 7.84098 17.7268 7.88374 17.68 7.91419C17.5373 7.8564 16.2016 7.97198 16.2016 7.97198C16.2016 7.97198 15.5798 7.86312 15.3861 7.04081C15.2503 6.49358 15.488 5.73937 15.4098 5.24321C15.2909 4.51253 15.1244 4.36961 15.1074 4.14225C15.0904 3.91489 15.0733 3.85688 15.0733 3.71419C14.9985 3.69716 14.9544 3.67342 14.8798 3.67342C14.8628 3.60622 14.8966 3.54753 14.822 3.42859C14.8628 3.44561 15.1414 3.47966 15.4676 3.78878C15.7364 4.04033 15.7364 4.13195 15.7769 4.18302C15.8278 4.23387 16.239 4.58622 16.4158 4.93745C16.5925 5.28868 16.9357 6.40869 17.0139 6.59214C17.0376 6.66696 17.0887 6.74177 17.2155 6.91156C17.4126 7.1564 17.7013 7.56116 18.0275 7.62837L18.0266 7.62881Z" fill="#B58634"/>
<path fill-rule="evenodd" clip-rule="evenodd" d="M15.825 4.19995C16.0308 4.53248 16.2157 4.87751 16.3787 5.23304C16.5792 5.68485 16.6981 6.05534 16.9497 6.35774C16.8137 5.96373 16.5724 5.18891 16.4298 4.91362C16.27 4.62242 15.9439 4.30882 15.825 4.20018V4.19995Z" fill="#A88F33"/>
<path fill-rule="evenodd" clip-rule="evenodd" d="M13.5143 9.7866C13.5143 9.7866 13.1711 9.8715 12.5322 10.2079C12.3215 10.3166 12.1212 10.4082 11.9274 10.4933C11.4241 10.7209 10.8843 10.9312 10.456 11.0473C10.49 11.088 10.5068 11.1048 10.5068 11.1048C10.5068 11.1048 10.5068 11.2715 10.5987 11.3665C10.5478 11.4175 9.86799 11.8797 10.0687 13.4257C10.2044 13.3749 10.3641 13.3068 10.3879 13.3068C10.4289 13.3137 10.439 13.4257 10.4898 13.4257C10.5407 13.4257 10.7073 13.3585 10.8841 13.13C10.8773 13.2219 10.7754 14.1461 11.3224 14.7679C11.4243 14.649 11.6826 14.2547 11.6826 14.2547L11.6893 14.1291C11.6893 14.1291 11.7131 13.6907 11.856 13.2897C11.9989 12.8888 12.2773 12.5931 12.2773 12.5931L13.7313 10.5168L13.5138 9.78638L13.5143 9.7866Z" fill="#E6C367"/>
<path fill-rule="evenodd" clip-rule="evenodd" d="M12.1549 12.8352C12.0884 12.8822 12.015 12.9188 11.9374 12.9438C11.9137 12.8589 11.8796 12.5666 12.0801 12.2812C12.3146 11.9378 12.8276 11.4927 12.9703 11.1388C13.0621 10.911 13.0214 10.3403 13.8369 9.60957C14.6525 8.87889 14.9717 8.62756 14.9717 8.62756L16.2902 7.96497L17.9111 8.60381L17.1058 11.76L16.4806 13.2384L13.9942 12.7695L12.1547 12.8352H12.1549Z" fill="#DCBA5A"/>
<path fill-rule="evenodd" clip-rule="evenodd" d="M13.104 11.9781L13.4133 11.5908V11.3155C13.4133 11.3155 13.7565 11.2237 14.1268 10.8465C14.4971 10.4693 15.0102 9.74552 15.4623 9.78965C15.9143 9.84072 15.9584 10.7717 15.9755 11.0335C15.9925 11.2954 16.0503 11.8896 16.1419 12.2093C16.2438 12.5287 15.0409 13.7383 15.0409 13.7383L14.224 14.3601L13.104 11.9781Z" fill="#E9CE77"/>
<path fill-rule="evenodd" clip-rule="evenodd" d="M14.0613 15.2028C14.0613 15.2028 14.3128 14.8086 14.1285 14.7237C14.2371 14.4791 14.4376 14.2208 14.4376 14.2208C14.4376 14.2208 14.5803 13.8676 15.0424 13.4326C15.5045 12.9976 15.7901 12.7086 15.8649 12.4165C15.9111 12.2261 15.9361 12.0313 15.9397 11.8354C15.9897 11.8763 16.0431 11.9126 16.0995 11.9441C16.1743 11.9781 16.5275 12.2702 16.4767 12.8582C16.4258 13.4462 16.2079 13.6908 16.2079 13.6908C16.2079 13.6908 15.9973 13.9014 15.8479 14.0103C15.688 14.1189 15.6304 14.2446 15.3618 14.2549C15.3894 14.2329 15.4205 14.2157 15.4537 14.2038C15.4537 14.2038 15.175 14.17 15.0254 14.3057C14.8757 14.4415 14.5577 14.8597 14.398 14.9856C14.2382 15.0875 14.062 15.2031 14.062 15.2031L14.0613 15.2028Z" fill="#CDAE50"/>
<path fill-rule="evenodd" clip-rule="evenodd" d="M25.3597 8.59356C24.9583 8.44724 24.5364 8.36471 24.1094 8.34895C23.3957 8.3252 22.3525 8.36597 21.3297 8.37269C20.2288 8.37941 19.2297 7.99548 17.8434 7.9276C17.6158 7.79164 17.037 7.19692 15.2302 8.45759C15.3389 8.45087 16.542 8.17893 16.9597 8.70242C17.3811 9.22232 17.2621 10.1058 17.2046 10.3163C17.0957 10.7854 16.7422 11.4684 16.5998 11.9475C16.4573 12.4266 16.4909 12.6784 16.389 13.0144C16.2871 13.3504 16.0628 13.5173 16.1952 13.9046C16.372 13.796 16.464 13.796 16.7592 13.1334C17.0545 12.4708 16.9938 11.9984 17.4832 11.4377C17.9624 10.8737 18.76 10.1022 19.0633 9.90844C19.3666 9.71468 21.7748 8.46431 24.2964 9.65711C24.9046 9.5926 25.36 8.59333 25.36 8.59333L25.3597 8.59356Z" fill="#D2A83E"/>
<path fill-rule="evenodd" clip-rule="evenodd" d="M16.2462 8.13124C16.2437 8.1057 16.238 8.08057 16.2294 8.05642C16.2058 8.00673 16.1748 7.96089 16.1375 7.92045C16.1375 7.92045 15.5394 7.81181 15.237 7.84564C14.7068 7.90343 14.2277 8.5593 14.0035 8.89575C13.7793 9.2322 13.5006 9.75188 13.1982 10.0205C13.2015 9.99429 13.1955 9.96779 13.1812 9.94564C13.1812 9.94564 13.1982 9.96938 13.1644 10.0034C13.1305 10.0375 13.1303 10.0543 13.1473 10.0706L13.1984 10.1215C13.2152 10.1215 13.6843 9.91069 14.3231 9.31508C15.0027 8.69325 15.5226 8.37428 15.7946 8.26497C15.9396 8.20334 16.0912 8.15847 16.2464 8.13124H16.2462Z" fill="#C29637"/>
<path fill-rule="evenodd" clip-rule="evenodd" d="M27.8472 5.57629C27.8472 5.57629 27.7383 5.71204 27.6024 5.86167C27.3 6.18109 26.9057 6.54106 26.5693 6.91156C26.2501 7.26503 25.8899 7.54033 25.4853 8.00244C25.0808 8.46455 24.6117 8.97751 24.493 9.12714C24.3844 9.27677 24.2995 9.52138 24.2995 9.64705C24.2417 9.60628 24.1738 9.56215 24.1738 9.56215C24.2024 9.6155 24.2366 9.66566 24.2757 9.71178C24.3606 9.83073 24.493 9.98058 24.5611 10.072C24.6447 10.1883 24.7046 10.3199 24.7376 10.4593C24.7784 10.466 25.04 10.5171 25.3664 9.98013C25.6928 9.44321 26.1206 8.85543 26.1206 8.85543L26.8002 7.84609L27.2285 6.98996L27.7661 6.03169L27.8479 5.57629H27.8472Z" fill="#AC8132"/>
<path fill-rule="evenodd" clip-rule="evenodd" d="M28.5439 4.88989C28.5439 4.88989 28.1326 5.22589 27.9729 5.42749C27.8132 5.62909 27.4353 6.15818 27.4353 6.15818L27.5713 6.14116L28.2612 5.52964L28.53 5.0505L28.5437 4.89079L28.5439 4.88989Z" fill="#A88F33"/>
<path fill-rule="evenodd" clip-rule="evenodd" d="M28.4181 31.8942C28.4181 31.8942 28.4113 31.6156 28.5677 31.4492C28.7274 31.2825 29.1317 31.0379 29.526 30.1204C29.9202 29.2029 29.9641 28.9957 29.9641 28.9957C29.9641 28.9957 29.2574 29.6005 28.8217 29.7432C28.9236 29.5324 28.9814 29.383 29.0325 29.2741C28.9747 29.2233 28.7301 29.1655 28.7063 29.1384C28.8421 29.0024 28.9169 28.6693 29.1922 28.4485C29.5457 28.1797 30.1912 27.7178 30.693 27.3061C31.1948 26.8943 32.1813 25.9367 32.3071 25.6581C32.382 25.7667 32.3988 25.8346 32.3988 25.8346C32.3988 25.8346 31.9028 26.4804 31.6445 26.8914C31.4167 27.2449 31.4338 27.4454 31.4338 27.4454L31.9028 27.2438C31.9028 27.2438 32.0386 27.7467 31.4237 28.5114C31.6925 28.4095 31.8009 28.4706 31.9537 28.3855C31.7021 28.5454 31.3556 28.7629 31.0294 29.3608C30.71 29.9589 30.275 30.6555 29.5412 31.0903C28.8275 31.5491 28.4163 31.8922 28.4163 31.8922L28.4181 31.8942Z" fill="#A67A2E"/>
<path fill-rule="evenodd" clip-rule="evenodd" d="M26.5763 8.94728C26.5763 8.94728 26.2977 9.52811 26.2569 9.98014C26.2502 10.089 26.2228 10.1739 26.2228 10.2996C26.2161 10.7039 26.2466 11.1559 26.1556 11.3665C26.1216 11.2816 26.1046 11.2238 26.0705 11.19C26.0197 11.3327 25.9278 11.7777 25.853 11.9442C25.8192 11.8355 25.7444 11.4583 25.7513 11.0132C25.7583 10.5681 25.7681 10.483 25.7681 10.3914C25.7513 10.5271 25.6595 10.7108 25.6254 10.8195C25.5746 10.7279 25.5168 10.6089 25.4487 10.5103C25.4079 10.5775 25.3571 10.6768 25.313 10.7279C25.306 10.6871 25.2892 10.5782 25.2789 10.4255C25.2722 10.2487 25.2619 10.0211 25.2722 9.97342C25.289 9.8818 25.4319 9.52161 25.7343 9.19188C26.0945 8.79764 26.465 8.04008 26.5736 7.80555C26.6823 7.57102 27.1444 6.59595 27.1444 6.59595H27.4978L26.9847 7.76478C26.9847 7.76478 26.6755 8.40363 26.5158 8.63838C26.3561 8.87313 26.0197 9.5458 25.87 9.80744C25.9787 9.66475 26.0705 9.58993 26.1794 9.45396C26.2847 9.35876 26.5768 8.94772 26.5768 8.94772L26.5763 8.94728Z" fill="#8C6228"/>
<path fill-rule="evenodd" clip-rule="evenodd" d="M28.5505 4.84558C28.4928 5.02329 28.4016 5.18829 28.2817 5.33166C28.071 5.58321 27.6189 5.91944 27.3983 6.18779C27.1967 6.44942 26.7935 7.16308 26.9767 8.00913C27.0439 7.82568 27.1705 7.46212 27.5069 7.05086C27.8434 6.6396 28.2036 6.16741 28.3805 5.80049C28.557 5.43 28.5808 5.1379 28.5808 5.1379L28.648 5.053L28.6072 4.85924L28.5494 4.84558H28.5505Z" fill="#CBA94C"/>
<path fill-rule="evenodd" clip-rule="evenodd" d="M35.4317 27.3849C35.4317 27.3849 35.2958 27.0147 35.255 26.6782C35.2142 26.3418 35.3222 26.275 35.1972 25.89C35.1224 25.6554 34.9867 25.6884 34.9526 25.6554C34.9186 25.6225 34.8948 25.2681 34.9015 25.0744C34.9083 24.8806 34.8948 24.6293 34.8608 24.5204C34.8099 24.4797 34.7759 24.4456 34.7011 24.1943C34.6162 23.9427 34.5754 23.8171 34.5346 23.7425C34.4939 23.6679 34.3747 23.5998 34.3747 23.525C34.3747 23.3753 34.5107 23.2974 34.5107 23.2562C34.5039 23.1713 34.402 23.2394 34.3747 23.2154C34.3409 23.1746 34.4598 22.93 34.4157 22.896C34.3987 22.8792 34.2797 23.0219 34.249 22.9811C34.215 22.9401 34.1742 22.5358 34.1131 22.2674C34.0555 22.0058 33.9941 21.8156 33.9874 21.7374C33.9807 21.6626 33.5183 20.3442 33.4063 20.0247C33.3161 19.7548 33.2401 19.4803 33.1787 19.2024C33.1447 19.0427 33.121 18.7164 33.1039 18.7504C33.0869 18.7845 33.0972 18.9509 33.0699 18.9442C33.0461 18.9372 32.9612 18.3564 32.9341 18.2645C32.9104 18.1727 32.7675 17.8613 32.7325 17.636C32.6985 17.4082 32.6239 16.8135 32.5728 16.4092C32.5218 16.0048 32.498 15.8384 32.498 15.7372C32.5064 15.4895 32.4927 15.2416 32.4572 14.9964C32.39 14.5681 32.2556 14.0482 32.1378 13.746C31.9102 13.175 31.3052 11.7139 31.197 11.3503C31.197 11.2585 31.316 11.3096 31.316 11.3096C31.316 11.3096 31.6114 12.0503 31.8289 12.6211C32.0397 13.1921 32.2402 13.6949 32.2913 13.746C32.332 13.7969 32.6515 14.3575 32.7941 15.275C32.9368 16.1925 32.9877 17.0386 33.0728 17.6026C33.1136 17.8714 33.1476 18.1566 33.2325 18.442C33.3241 18.7513 33.4668 19.0707 33.6539 19.5599C33.8136 19.9712 33.9325 20.3144 33.997 20.6101C34.0718 20.9873 34.0718 21.2726 34.116 21.4597C34.157 21.6194 34.2179 21.9386 34.3608 22.4005C34.5037 22.8624 34.714 23.4573 34.8567 23.8276C35.1356 24.5684 35.2599 25.1868 35.302 25.5165C35.3392 25.8564 35.4651 27.0321 35.4311 27.3854L35.4317 27.3849Z" fill="#A88F33"/>
<path fill-rule="evenodd" clip-rule="evenodd" d="M28.5675 4.80484L28.5505 4.84561C28.5505 4.84561 28.6013 4.86263 28.5912 4.93073C28.5919 5.02389 28.5863 5.117 28.5742 5.20938C28.5574 5.32833 28.5233 5.41994 28.5166 5.49476C28.5166 5.65447 28.5404 5.83793 28.315 6.29332C28.2478 6.41898 28.2064 6.52762 28.1723 6.60244C28.0874 6.7859 28.0704 6.81322 27.9956 6.89812C28.1145 6.83092 28.5428 6.56212 28.7601 6.60244C28.6107 6.68734 28.3829 6.85399 28.2402 7.0715C28.2743 7.07822 28.4169 7.10554 28.6434 7.0715C29.0206 7.0137 29.442 6.87774 29.8122 6.90484C30.2168 6.92858 30.0571 6.41898 30.0571 6.41898L29.5903 5.39284L28.7068 4.77124L28.5675 4.80506V4.80484Z" fill="#BE9C44"/>
<path fill-rule="evenodd" clip-rule="evenodd" d="M30.8715 12.4914C30.8715 12.4914 30.4773 12.0972 30.3176 10.7442C30.1579 9.38498 30.1919 7.38422 30.1919 7.38422L29.8725 6.60268C29.8725 6.60268 29.8053 6.08278 29.638 5.88924C29.4706 5.6957 29.142 5.36934 28.9924 5.20962C28.8428 5.04991 28.673 4.83241 28.571 4.79836C28.6219 4.71346 28.8497 4.23433 29.7229 4.22761C30.596 4.22089 30.8653 4.70674 30.9564 4.88348C31.0476 5.06022 31.4593 5.82428 31.6121 7.28028C31.7548 8.73449 31.7617 8.84335 31.738 9.34623C31.7209 9.62489 31.6291 10.2705 31.4692 10.9602C31.3231 11.5448 31.1634 12.1973 30.8711 12.4928L30.8715 12.4914Z" fill="#A17C34"/>
<path fill-rule="evenodd" clip-rule="evenodd" d="M29.6352 13.6502C29.7666 13.6596 29.8979 13.63 30.0124 13.565C30.1381 13.5583 30.5935 13.6161 30.9434 13.171C30.9671 13.2727 31.0285 13.5482 30.8686 13.7928C30.9537 13.7077 31.0794 13.6739 31.0964 13.6502C31.1031 13.7758 31.222 14.1631 30.7192 15.1044C30.8549 14.955 31.0146 14.9617 31.1573 14.9447C31.1643 15.1214 31.2592 15.7159 31.0079 16.0355C30.8415 16.253 30.5695 16.1849 30.5695 16.1849C30.5735 16.1375 30.5735 16.0897 30.5695 16.0423C30.5628 15.9504 30.5288 15.8588 30.5527 15.7976C30.4213 15.7376 30.3017 15.6547 30.1993 15.5528C29.9036 15.2742 29.5196 14.7986 29.4925 14.4451C29.4585 14.0509 29.812 13.966 29.812 13.966C29.7824 13.9395 29.7571 13.9085 29.7372 13.8742C29.7201 13.8166 29.7031 13.7247 29.6352 13.6502Z" fill="#8C6228"/>
<path fill-rule="evenodd" clip-rule="evenodd" d="M27.0144 9.37532C27.0144 9.37532 26.9974 9.35157 26.9058 9.46021C26.9228 9.35157 26.9398 9.24943 26.9465 9.15087C26.9899 9.05962 27.046 8.975 27.1132 8.89954C27.0621 9.00124 27.0281 9.09308 27.0281 9.09308C27.0281 9.09308 27.154 8.85855 27.3374 8.71586C27.4631 8.61394 27.6228 8.56645 27.6907 8.47125C27.7655 8.36933 27.7484 8.35231 27.7655 8.33528C27.7655 8.33528 27.9321 8.22664 28.187 7.907C28.2209 7.86623 28.2719 7.8221 28.306 7.78133C28.3636 7.75759 28.4995 7.69644 28.6592 7.61468C28.8259 7.52306 29.0127 7.3974 29.1283 7.34588C29.3559 7.24396 29.5973 7.25426 29.7093 7.09432C29.7942 7.07058 29.8859 6.81567 29.8691 6.59839C29.9947 6.64924 30.6403 7.0502 30.8614 7.92693C31.0211 8.54876 30.7355 9.50703 30.6165 9.96936C30.4976 10.4317 30.4808 10.7746 30.3141 10.9852C30.1034 11.2641 29.424 11.6572 29.2573 11.8519C29.1146 12.0116 28.6866 12.4159 28.7034 12.708C28.7204 12.9255 28.9887 13.044 29.0468 13.0852C29.1048 13.1264 29.1043 13.177 29.2132 13.1524C29.322 13.1278 29.3626 13.0776 29.4069 13.0776C29.4578 13.0843 29.4578 13.0946 29.4815 13.0946C29.4988 13.0941 29.5159 13.0918 29.5326 13.0877C29.5326 13.0877 29.5156 13.397 28.7918 13.4909C28.7408 13.4978 28.6899 13.5146 28.6252 13.5249C28.7103 13.4841 28.7612 13.4841 28.853 13.3585C28.7511 13.3415 28.4588 13.3244 28.3839 13.3007C28.4077 13.2599 28.4859 13.1511 28.5504 13.1002C28.6082 13.0494 28.5436 13.033 28.4928 13.0594C28.4053 13.119 28.3213 13.1836 28.2412 13.253C28.1564 13.3278 28.0815 13.4297 27.9456 13.5218C27.9048 13.3858 27.9115 13.1275 28.0715 12.9407C28.0305 12.9474 27.9523 13.0664 27.8777 13.0426C27.8642 12.9187 27.8722 12.7934 27.9014 12.6721C27.9422 12.5192 28.1631 12.2508 28.1631 12.2508L29.23 10.3443L29.4576 8.90021L27.0144 9.37487V9.37532Z" fill="#92723A"/>
<path fill-rule="evenodd" clip-rule="evenodd" d="M26.9568 9.45688C26.9568 9.45688 26.899 9.49765 27.0146 9.57583C26.9976 9.59957 26.9568 9.68447 26.9057 9.74226C26.8482 9.80946 26.7868 9.85112 26.7631 9.90891C26.7122 10.0279 26.6714 10.1094 26.6714 10.1605C26.6714 10.2115 26.6544 10.5377 26.5117 10.7482C26.4607 10.8231 26.4029 10.9487 26.3621 11.0336C26.2772 11.183 26.2024 11.3024 26.1854 11.3696C26.1515 11.4886 26.1278 11.8147 26.1278 11.8147C26.1278 11.8147 26.2026 11.7229 26.2297 11.689C26.1887 11.7739 26.1446 11.8656 26.0801 11.9337C26.1208 11.8996 26.2398 11.8147 26.4403 11.638C26.7189 11.4037 27.1539 11.0094 27.6841 10.6972C27.5242 10.755 27.3885 10.755 27.2798 10.772C27.3647 10.6871 28.1292 9.78997 28.5302 9.70507C28.5545 9.6742 28.5667 9.63545 28.5642 9.59621L28.2208 9.56239L27.5242 9.71179L27.4225 9.17419L26.9568 9.45621V9.45688Z" fill="#B18E3E"/>
<path fill-rule="evenodd" clip-rule="evenodd" d="M28.0648 12.5151C28.0648 12.5151 27.973 12.6067 27.8881 12.8345C27.8227 12.7663 27.7667 12.6897 27.7214 12.6067C27.5958 12.3961 27.4022 12.1276 26.9502 12.2806C26.9435 12.1379 26.9332 12.063 26.9502 11.9611C27.025 11.9443 27.2526 11.7609 27.4802 11.4923C27.6401 11.3088 27.7895 11.0981 27.8914 10.8297C27.9586 10.7786 28.0749 10.6937 28.2274 10.5952C28.4449 10.4458 28.7066 10.2417 28.7473 10.0141C28.6454 10.0549 28.4279 10.1568 28.1015 10.14C28.2274 10.0822 28.421 10.0211 28.3972 9.76951C28.4483 9.73547 28.4891 9.71172 28.4891 9.71172C28.4508 9.69895 28.4105 9.69318 28.3701 9.6947C28.3632 9.67095 28.3531 9.63713 28.2953 9.65393C28.2375 9.67073 28.2281 9.67095 28.2205 9.6947C28.1967 9.70164 28.1186 9.6947 28.0608 9.73569C28.003 9.77668 27.8433 9.9122 27.7821 9.93595C27.8059 9.89518 27.8397 9.83425 27.8397 9.83425C27.8397 9.83425 27.6733 9.85105 27.5543 9.90145C27.3368 9.97627 27.0855 10.1122 26.8306 10.2446C26.8543 10.2038 26.8646 10.1774 26.8814 10.1698C26.8982 10.1622 26.9392 10.153 26.9392 10.1461C26.9392 10.1391 26.9224 10.0789 26.9325 10.0544C27.0087 9.89299 27.0986 9.73839 27.2013 9.59233C27.3202 9.43239 27.344 9.20481 27.344 9.20481L27.8639 8.94318L29.325 8.60718L30.2732 8.66497L30.1543 9.32084L29.5943 10.4659L29.1151 11.5091L28.5679 12.1482L28.065 12.5151H28.0648Z" fill="#543E26"/>
<path fill-rule="evenodd" clip-rule="evenodd" d="M30.433 9.67683C30.433 9.67683 29.862 10.3835 29.7023 10.4924C29.8042 10.2749 30.433 8.98019 30.6606 8.62C30.6097 8.57923 30.5416 8.57923 30.7014 7.948C30.5656 8.2672 30.5179 8.43385 30.4059 8.51875C30.2939 8.60365 30.28 8.57654 30.2043 8.57654C30.2186 8.55068 30.2245 8.521 30.2211 8.49165C30.2211 8.49165 29.742 8.43385 29.4147 8.43385C29.0874 8.43385 28.4396 8.61059 28.0792 8.75328C27.7938 8.87222 27.6341 8.87222 27.5322 8.94681C27.4303 9.03171 27.3725 9.12355 27.3214 9.14729C27.2806 9.17104 27.0871 9.23219 27.0428 9.2967C27.002 9.3639 26.9341 9.43939 26.9341 9.45641C26.9341 9.47344 26.9171 9.49741 26.9682 9.48016C26.985 9.47344 27.1109 9.40534 27.2535 9.32045C27.4471 9.21181 27.6816 9.08614 27.8516 9.01133C28.3375 8.81757 28.4905 8.85161 28.7078 8.81085C28.9353 8.77008 29.2617 8.67488 29.479 8.67488C29.6965 8.66816 30.1078 8.67488 30.203 8.6919C30.1622 8.72595 30.1281 8.76672 30.1452 8.90941C30.1452 8.95017 30.1111 8.9943 30.078 9.09286C29.9763 9.37152 29.7825 9.83363 29.6748 10.0682C29.5254 10.3874 29.3556 10.6559 29.2716 10.8224C29.1876 10.9888 29.0028 11.4272 28.8198 11.6617C28.6367 11.8962 28.5411 12.0389 28.4838 12.09C28.4264 12.1411 28.0147 12.4432 28.0454 12.5521C28.1202 12.5283 28.5926 12.3505 28.9356 11.9643C29.2785 11.5781 29.3468 11.3425 29.6152 11.1317C29.8835 10.9209 30.0943 10.5677 30.22 10.2756C30.3253 10.0036 30.3015 9.91875 30.4339 9.6775L30.433 9.67683Z" fill="#806031"/>
<path fill-rule="evenodd" clip-rule="evenodd" d="M18.1287 14.9515C18.1287 14.9515 18.0539 15.2606 17.8839 15.4136C17.7175 15.5633 17.4218 15.6923 17.3879 15.9438C17.3472 16.1952 17.6836 16.321 17.6836 16.321C17.6836 16.321 17.4999 16.6234 17.4999 16.851C17.4999 17.0856 17.4932 17.1297 17.517 17.3539C17.49 17.3712 17.4671 17.3942 17.4498 17.4211C17.4498 17.4211 17.4666 17.6386 17.6332 17.7744C17.7999 17.9101 17.9423 17.9919 18.0272 17.9578C18.0402 17.9855 18.0516 18.0139 18.0613 18.0429C18.0613 18.0429 18.1872 17.7235 18.2721 17.4449C18.357 17.1595 18.4318 17.2 18.4656 16.8161C18.4994 16.4322 18.8688 15.7729 18.8688 15.7729L19.1208 15.2096L18.7098 14.8901L18.1287 14.9513V14.9515Z" fill="#B6903C"/>
<path fill-rule="evenodd" clip-rule="evenodd" d="M18.8933 15.5052C18.8085 15.5923 18.7303 15.6854 18.6592 15.7839C18.5506 15.9335 18.4657 16.0693 18.3059 16.1273C18.1462 16.1853 18.0443 16.1849 18.0544 16.3448C18.0645 16.5047 18.2141 16.5724 18.299 16.6539C18.3908 16.7388 18.4657 16.8815 18.4249 17.0414C18.4757 17.0177 18.5676 16.9904 18.6525 16.8069C18.7374 16.6235 19.3312 15.5055 19.3312 15.5055H18.8933V15.5052Z" fill="#685026"/>
<path fill-rule="evenodd" clip-rule="evenodd" d="M21.2352 12.9261C21.2352 12.9261 21.286 12.7904 21.2352 12.6918C21.1841 12.5899 20.875 12.5559 20.722 12.4403C20.5623 12.3213 20.3685 12.2387 20.2088 12.2909C20.2326 12.2331 20.3278 12.1072 20.2496 12.0801C20.1748 12.0564 19.8963 12.182 19.8215 12.2398C19.7467 12.2976 19.5767 12.3655 19.5429 12.4065C19.509 12.4475 19.451 12.5254 19.417 12.4914C19.3829 12.4676 19.3661 12.4065 19.3083 12.4403C19.2505 12.4741 18.9723 12.7019 18.921 12.8345C18.8697 12.9671 18.7544 13.2628 18.4079 13.599C18.0613 13.9353 17.9117 14.153 18.0136 14.2787C18.1155 14.4043 18.1633 14.3127 18.1803 14.4213C18.1934 14.528 18.1876 14.6361 18.1633 14.7408C18.1225 14.9175 18.0546 15.0839 18.1462 15.118C18.3808 15.1928 18.6086 15.0508 18.6594 15.0942C18.7613 15.1859 18.6016 15.5156 18.8429 15.5801C19.0877 15.6473 19.3289 15.5223 19.3289 15.5223L20.2191 15.0432L21.0755 14.5914L21.5136 13.7247L21.2786 13.001L21.2338 12.9261H21.2352Z" fill="#D4B968"/>
<path fill-rule="evenodd" clip-rule="evenodd" d="M20.3951 14.9957C20.3951 14.9957 20.2455 14.7682 20.4292 14.5675C20.6128 14.3667 20.8742 14.2821 20.9762 14.1564C20.9568 14.1325 20.9307 14.1148 20.9013 14.1056C20.969 13.9845 21.0722 13.8871 21.197 13.8267C21.1462 13.7758 21.0781 13.7351 21.0035 13.7351C20.8368 13.7351 20.7347 13.837 20.5819 13.837C20.4325 13.837 20.4155 13.7622 20.4155 13.7622C20.4155 13.7622 20.667 13.7384 20.6431 13.6262C20.6193 13.5073 20.5759 13.5073 20.5759 13.5073C20.5759 13.5073 21.0617 13.3057 21.1466 13.1981C21.2315 13.0906 21.2214 12.9636 21.2385 12.9128C21.296 12.9128 21.6325 12.736 21.7684 12.8108C21.9044 12.8857 21.8092 13.0895 21.8092 13.0895C21.8092 13.0895 22.2207 12.7802 22.4304 12.4769C22.6138 12.4939 22.6992 12.3512 22.8336 12.3512C23.0002 12.3512 23.2619 12.5788 23.3127 13.0646C23.3468 13.3433 23.3976 13.503 23.3468 13.9958C23.323 14.2745 23.3297 14.8694 23.414 15.1646C23.4715 15.3992 23.6075 15.3754 23.6075 15.3754C23.5866 15.4469 23.5453 15.5107 23.4885 15.5589C23.3967 15.6438 23.3866 15.8682 23.3967 15.9531C23.4102 16.0152 23.4273 16.0764 23.4478 16.1366C23.4478 16.1366 23.3391 16.2622 23.3118 16.3474C23.2881 16.4323 23.1761 16.49 23.0943 16.49C23.0125 16.49 23.0535 16.4831 22.9449 16.49C22.8363 16.497 22.8022 16.5138 22.7341 16.49C22.666 16.4663 22.6152 16.439 22.6425 16.2212C22.6662 16.0037 21.8032 15.4975 21.8032 15.4975L20.392 14.9946L20.3951 14.9957Z" fill="#CCA849"/>
<path fill-rule="evenodd" clip-rule="evenodd" d="M18.7743 17.1432C18.7743 17.1432 19.0834 17.5544 20.3544 17.5544C20.9592 17.5544 21.17 17.4967 21.2952 17.4626C21.4312 17.4286 21.9408 17.2283 22.454 16.6233C22.9161 16.0763 22.8142 15.852 22.8142 15.852L22.5454 15.8113L21.6718 15.9302L19.0868 17.0312L18.7732 17.1432H18.7743Z" fill="#585136"/>
<path fill-rule="evenodd" clip-rule="evenodd" d="M19.7223 17.245C19.7223 17.245 18.6213 17.4899 18.6213 16.7932C18.6213 16.1136 19.301 15.4 19.471 15.2743C19.6477 15.1484 20.0691 15.0055 20.0691 15.0055H21.0851L21.2787 15.5187L21.1938 16.6264L19.7223 17.2448V17.245Z" fill="#252211"/>
<path fill-rule="evenodd" clip-rule="evenodd" d="M20.7384 15.2132C20.7384 15.2132 20.5278 15.0195 20.0487 15.2804C19.5695 15.5414 19.182 16.0868 19.1583 16.5821C19.1345 17.0202 19.5185 17.3466 20.1165 17.3636C20.5616 17.3804 20.8302 17.3296 20.9662 17.2964C20.9321 17.2557 20.7554 17.0348 20.7554 17.0348L20.7386 15.2135L20.7384 15.2132Z" fill="#C3B378"/>
<path fill-rule="evenodd" clip-rule="evenodd" d="M20.5312 15.3216C20.5312 15.3216 20.4804 15.2808 20.3296 15.3624C20.204 15.4296 20.0205 15.6072 19.8778 15.7329C19.786 15.8077 19.7282 15.8415 19.6762 15.8993C19.4655 16.1508 19.2887 16.5621 19.3909 16.7659C19.493 16.9698 19.8292 17.2043 20.6856 17.0446L20.5288 15.3218L20.5312 15.3216Z" fill="#E6D89C"/>
<path fill-rule="evenodd" clip-rule="evenodd" d="M20.2525 15.7432C20.2525 15.7432 20.1166 15.954 20.1166 16.2904C20.1166 16.6336 20.3103 17.1806 21.024 17.2214C21.571 17.2554 21.9379 16.4331 22.3355 16.1137C22.6379 15.8691 22.8214 15.8621 22.8214 15.8621C22.8214 15.8621 22.5122 15.5261 21.6866 15.0909C20.871 14.6525 19.9569 14.5947 19.4607 15.2676C19.6952 15.2506 20.453 15.0569 20.453 15.0569L20.8235 15.1758L20.2525 15.7434V15.7432Z" fill="#252211"/>
<path fill-rule="evenodd" clip-rule="evenodd" d="M21.3194 16.1882C21.2957 16.1374 21.2787 16.0693 21.3772 16.0525C21.4758 16.0357 21.5199 16.0455 21.554 16.1197C21.588 16.1938 21.6212 16.2556 21.5708 16.2863C21.5199 16.3134 21.3873 16.2863 21.3192 16.1878L21.3194 16.1882ZM21.1597 15.7091C21.1597 15.7091 21.1257 15.7328 21.1427 15.6853C21.1494 15.6278 21.1938 15.5256 21.3024 15.5496C21.4111 15.5736 21.3875 15.6923 21.3696 15.7263C21.3517 15.7604 21.261 15.818 21.1929 15.7935C21.1842 15.7913 21.1763 15.7871 21.1696 15.7812C21.1629 15.7754 21.1576 15.768 21.1543 15.7597C21.151 15.7515 21.1497 15.7425 21.1505 15.7336C21.1513 15.7248 21.1541 15.7162 21.1588 15.7086L21.1597 15.7091Z" fill="#6F674D"/>
<path fill-rule="evenodd" clip-rule="evenodd" d="M11.9617 15.9265C11.9617 15.9265 12.2305 16.1281 12.5427 16.1202C12.8518 16.1133 13.2494 15.7941 13.4329 15.59C13.5415 15.4711 13.6345 15.3454 13.7353 15.2468C13.8204 15.1619 13.878 15.1212 13.9188 15.0634C13.9765 14.9962 14.0377 14.8698 14.0684 14.8289C13.9936 14.8866 13.8849 14.9888 13.7727 15.0567C13.6641 15.1239 13.4295 15.2502 13.3343 15.2842C13.2427 15.3183 12.2912 15.8218 12.2912 15.8218L11.9617 15.9265Z" fill="#AC924C"/>
<path fill-rule="evenodd" clip-rule="evenodd" d="M12.3723 13.4156C12.3723 13.4156 12.5217 13.3137 12.8107 13.2489C13.0893 13.1817 13.65 13.13 13.65 13.13L14.1121 13.3316L14.2956 14.0282L13.9596 14.7522L13.5315 15.021L13.0454 14.2395L12.3734 13.4169L12.3723 13.4156Z" fill="#9F8E57"/>
<path fill-rule="evenodd" clip-rule="evenodd" d="M11.7676 14.0374L11.6077 14.1568C11.6077 14.1568 11.6487 14.082 11.6825 13.8544C11.7163 13.6269 11.8933 13.0729 12.1515 12.7535C12.4098 12.4341 12.4031 12.4511 12.4031 12.4511C12.3793 12.4467 12.3549 12.4475 12.3315 12.4533C12.308 12.4592 12.2861 12.4699 12.2671 12.4849C12.3012 12.4096 12.5187 12.1408 12.7362 12.0064C12.9537 11.872 13.0386 11.8297 13.2662 11.9392C13.4937 12.0488 13.5515 12.1057 13.7182 12.0989C13.8848 12.0922 14.0273 11.9155 14.0273 11.9155C14.0273 11.9155 14.0614 12.0241 13.9357 12.2757C13.81 12.5272 13.3139 13.0402 13.3139 13.0402L12.2808 13.7469L11.7676 14.0381V14.0374Z" fill="#EAC970"/>
<path fill-rule="evenodd" clip-rule="evenodd" d="M12.5319 13.3307C12.5319 13.3307 13.2796 13.4326 13.5072 13.222C13.5139 13.2458 13.5412 13.2458 13.5412 13.2628C13.5394 13.2756 13.5334 13.2875 13.5242 13.2966C13.549 13.2927 13.574 13.2904 13.599 13.2899C13.629 13.2988 13.6597 13.3045 13.6909 13.3069C13.716 13.3064 13.741 13.3041 13.7657 13.3C13.7633 13.3169 13.7576 13.3331 13.7488 13.3477C13.74 13.3624 13.7284 13.3751 13.7146 13.3851C13.7487 13.3851 13.7818 13.3918 13.7818 13.4189C13.7818 13.446 13.7885 13.5278 13.7478 13.5448C13.714 13.5541 13.6781 13.5517 13.6459 13.5379C13.6485 13.6022 13.666 13.6651 13.6969 13.7215C13.7641 13.8472 13.9075 13.9903 14.1001 13.9491C14.1001 13.9491 14.2018 14.1937 13.7738 14.7374C13.7162 14.8122 13.6548 14.9141 13.5802 14.999C13.5507 15.0633 13.5282 15.1305 13.513 15.1995C13.513 15.1995 14.237 14.9208 14.4442 14.2854C14.655 13.6465 14.6957 13.018 14.655 12.4302C14.648 12.2635 14.6209 12.1448 14.5802 12.0597C14.4782 11.8489 14.1926 11.883 14.0773 12.0019C13.9106 12.1686 13.632 12.583 13.2447 12.8683C12.8504 13.1537 12.8336 13.2043 12.531 13.3307H12.5319Z" fill="#D7BC6B"/>
<path fill-rule="evenodd" clip-rule="evenodd" d="M11.6351 14.2482C11.6351 14.2482 11.4924 14.3331 11.4176 14.6514C11.3428 14.9776 11.4848 15.3752 11.567 15.5008C11.6492 15.6265 11.8358 15.9699 12.2229 15.9869C12.3187 15.9864 12.4134 15.9667 12.5015 15.9291C12.6366 15.8671 12.7634 15.7883 12.8787 15.6946C13.0454 15.5689 13.1811 15.4603 13.1641 15.45C13.1233 15.4329 12.138 14.6174 12.138 14.6174L11.7675 14.2039L11.6349 14.2487L11.6351 14.2482Z" fill="#585136"/>
<path fill-rule="evenodd" clip-rule="evenodd" d="M12.5664 15.6004C12.5664 15.6004 12.7669 15.5836 12.8858 15.5088C13.0048 15.434 12.1892 14.6254 12.1892 14.6254L12.247 15.499L12.5664 15.6004Z" fill="#453A25"/>
<path fill-rule="evenodd" clip-rule="evenodd" d="M11.6995 14.1868C11.6995 14.1868 11.5976 14.3806 11.5976 14.4316C11.5806 14.5981 11.6317 15.1213 11.6724 15.2878C11.7132 15.4645 11.9341 15.7329 12.2197 15.7329C12.3962 15.7329 12.641 15.6242 12.641 15.5971C12.641 15.5631 12.3894 15.5299 12.3216 15.4034C12.2808 15.3362 12.2638 15.1691 12.2544 15.0002C12.2477 14.8915 12.2477 14.7726 12.2884 14.7314C12.3803 14.6294 12.3971 14.3371 12.3971 14.3371L12.7232 13.7312H12.2942L11.7811 14.0506L11.6995 14.1868Z" fill="#84754B"/>
<path fill-rule="evenodd" clip-rule="evenodd" d="M11.5737 14.3739C11.5737 14.3739 11.9097 13.9288 12.2126 13.8267C12.5154 13.7245 12.6509 13.7859 12.6509 13.7859L12.4742 14.238L12.2227 14.5166L12.2397 14.6593C12.2397 14.6593 12.1987 15.0365 12.4502 15.2981C12.7018 15.5598 12.8886 15.5497 12.9975 15.5497C13.1063 15.5497 13.4188 15.4579 13.5785 15.0806C13.7212 14.7274 13.8402 14.2742 13.5548 13.82C13.2759 13.3679 12.7833 13.3505 12.6881 13.3505C12.5929 13.3505 11.8454 13.3879 11.5737 14.3732V14.3739Z" fill="#252211"/>
<path fill-rule="evenodd" clip-rule="evenodd" d="M20.2014 15.8858C20.0758 15.828 20.1947 15.4748 20.3204 15.3659C20.446 15.2571 20.6057 15.1316 20.8846 15.1144C20.9863 15.1077 21.0849 15.1722 21.0681 15.2403C21.0443 15.3659 20.8676 15.5427 20.7079 15.6683C20.487 15.8417 20.3441 15.9503 20.2014 15.8858Z" fill="#F7F7E7"/>
<path fill-rule="evenodd" clip-rule="evenodd" d="M13.4052 13.9593C13.4971 13.9526 13.616 14.0265 13.6398 14.1259C13.6635 14.2346 13.582 14.4521 13.4052 14.4521C13.2626 14.4521 13.1877 14.2754 13.1877 14.2245C13.1894 14.1827 13.201 14.1419 13.2218 14.1056C13.2285 14.0953 13.2455 13.9763 13.4052 13.9593Z" fill="#F8F6DE"/>
<path fill-rule="evenodd" clip-rule="evenodd" d="M12.08 14.0374C12.08 14.0374 11.8455 14.146 11.7369 14.3734C11.6592 14.5412 11.6357 14.7291 11.6697 14.911C11.6867 14.9958 11.7716 15.2064 11.8294 15.2812C11.8872 15.356 11.9653 15.4071 12.0231 15.4002C12.0809 15.3932 12.1996 15.2405 12.1996 15.1488C12.1996 15.0572 12.2066 14.6697 12.3186 14.4589C12.4171 14.2484 12.0807 14.0376 12.0807 14.0376L12.08 14.0374Z" fill="#D4C38B"/>
<path fill-rule="evenodd" clip-rule="evenodd" d="M12.1142 14.0204C12.0735 14.0441 12.0056 14.0782 12.0224 14.1223C12.0394 14.1631 12.1821 14.1895 12.2332 14.289C12.291 14.3909 12.291 14.4995 12.2739 14.5506C12.3183 14.5295 12.3586 14.5007 12.3929 14.4655C12.4677 14.3806 12.5593 14.2652 12.6375 14.2652C12.6886 14.2652 12.7394 14.289 12.7871 14.289C12.8619 14.289 12.9365 14.2652 12.9468 14.1871C12.9636 14.0851 12.8042 13.9933 12.7123 14.0103C12.7293 13.9431 12.7531 13.8439 12.6783 13.7758C12.6035 13.7077 12.3691 13.8269 12.3181 13.8609C12.267 13.895 12.1142 14.0206 12.1142 14.0206V14.0204Z" fill="#E2D59D"/>
<path fill-rule="evenodd" clip-rule="evenodd" d="M17.5136 21.1597L18.0164 21.0112L18.1591 21.1132C18.1591 21.1132 18.2608 21.3307 18.4208 21.3578C18.3697 21.4664 18.2371 21.5594 18.244 21.6364C18.251 21.7135 18.3188 21.7724 18.3188 21.7724C18.3188 21.7724 17.8668 22.5199 18.7572 23.2732C18.5464 23.3581 18.2781 23.4748 18.1354 23.542C18.2371 23.5657 18.4546 23.6092 18.5464 23.6916C18.6383 23.774 18.6383 23.8003 18.7232 23.8513C18.8081 23.9024 18.8589 23.9703 18.8421 24.0007C18.7843 23.9667 18.5906 23.865 18.5567 23.96C18.5229 24.0549 17.7174 24.0178 17.7174 24.0178L16.3582 24.2794C16.3582 24.2794 16.409 24.1434 16.2663 24.0178C16.0999 23.8683 15.8961 24.0245 15.6786 23.858C15.3932 23.6405 15.3829 23.389 15.2913 23.294C15.3829 23.2362 15.5699 23.1513 16.015 23.0924C15.998 23.0584 15.9402 22.9564 15.9742 22.8648C16.015 22.7459 16.1848 22.6711 16.1339 22.5288C16.2088 22.5118 16.2426 22.5118 16.4296 22.2773C16.6064 22.0428 16.715 21.9919 16.851 21.9749C16.9869 21.9579 17.0685 21.9749 17.32 21.7404C17.4965 21.5739 17.439 21.4312 17.439 21.4312C17.439 21.4312 17.5543 21.3938 17.5138 21.1593L17.5136 21.1597Z" fill="#CBAC5A"/>
<path fill-rule="evenodd" clip-rule="evenodd" d="M16.0289 21.2352C16.0356 21.2011 16.0629 21.1841 16.2464 21.2011C16.4298 21.2181 17.5919 21.0925 17.908 21.0755C18.2274 21.0517 19.3521 21.0685 19.8994 21.1841C20.4466 21.2997 21.0003 21.4357 21.2687 21.5035C21.5375 21.5783 21.6221 21.6052 21.6118 21.6393C21.6051 21.6733 21.5446 21.7065 21.5099 21.6971C21.4761 21.6903 20.5857 21.4184 20.3106 21.3611C20.0356 21.3037 19.0838 21.1503 18.5634 21.1595C18.0776 21.1664 17.8838 21.1527 17.4728 21.2002C17.0615 21.2513 16.3819 21.3192 16.178 21.2921C15.9764 21.2683 16.0181 21.2683 16.0284 21.2343L16.0289 21.2352Z" fill="#D6BC6F"/>
<path fill-rule="evenodd" clip-rule="evenodd" d="M18.764 23.8985C18.764 23.8985 19.4606 24.2757 19.7122 24.7378C19.8957 25.081 19.6036 25.251 19.6036 25.251C19.6036 25.251 19.9978 25.251 19.9467 25.4685C19.923 25.6043 19.2671 25.9712 18.8287 26.1649C18.3837 26.3587 18.4007 26.3486 18.1832 26.3824C17.9724 26.4165 17.3947 26.3152 17.2757 26.4844C17.1568 26.6535 17.2085 26.8278 17.2417 26.8549C17.2757 26.8786 17.551 26.9127 17.551 26.9127C17.551 26.9127 17.4933 27.0724 16.9225 27.0894C16.3517 27.1064 16.2088 27.147 16.1748 27.2083C16.1407 27.2659 16.2834 27.2321 16.5453 27.2755C16.8069 27.3163 17.1738 27.3427 17.1738 27.3427C17.1738 27.3427 17.0549 27.4447 16.7458 27.5262C16.3923 27.6178 15.8383 27.7029 15.6719 27.8048C15.7568 27.8626 15.8827 27.9475 15.9407 27.9543C15.798 27.9883 15.5973 28.0631 15.5635 28.0902C15.6143 28.1243 15.6824 28.165 15.6824 28.165C15.6824 28.165 15.3968 28.5082 15.2304 28.5933C15.064 28.6784 14.1057 29.1233 13.776 29.0384C12.9537 28.8209 12.8517 27.9204 12.6513 27.8526C12.3489 27.7506 12.2062 27.9543 11.9376 27.8116C12.0565 27.7267 12.1213 27.6758 12.2469 27.618C12.111 27.5508 11.4076 27.1048 11.4076 27.1048C11.3341 26.9445 11.2524 26.7881 11.163 26.636C11.027 26.4015 10.827 26.0888 10.6769 25.8135C10.3508 25.2087 10.3338 24.93 10.0381 24.5869C10.0892 24.5197 10.2657 24.5291 10.2657 24.5291L12.7431 25.3447L17.136 25.4719L18.2784 23.8409L18.7642 23.8987L18.764 23.8985Z" fill="#DFC677"/>
<path fill-rule="evenodd" clip-rule="evenodd" d="M12.2568 26.3858C12.2833 26.4153 12.3142 26.4405 12.3485 26.4606C12.4336 26.5184 12.5592 26.5865 12.6441 26.6882C12.6782 26.6374 12.7631 26.5455 12.9129 26.6882C13.0628 26.8309 13.2489 26.7292 13.3647 26.763C13.4837 26.804 13.4904 26.8208 13.4904 26.8208C13.4904 26.8208 13.5576 26.763 13.7079 26.7019C13.7997 26.6678 13.9084 26.6441 14.0273 26.6103C14.136 26.5865 14.2549 26.5525 14.3367 26.5525C14.4115 26.6033 14.6798 26.8885 15.7571 26.4676C16.7731 26.0733 17.0074 26.0292 17.1774 26.0901C17.1945 26.0494 17.2115 25.9712 17.4731 25.9815C17.4731 25.8728 17.2556 25.5023 17.2556 25.5023L16.0561 25.0913H15.4L13.4326 25.4515L12.3424 26.0735L12.2575 26.3871L12.2568 26.3858Z" fill="#C4A859"/>
<path fill-rule="evenodd" clip-rule="evenodd" d="M11.6008 25.6962C11.6008 25.6962 11.6246 25.8796 11.8965 26.0734C12.1653 26.2669 12.2498 26.3825 12.2498 26.3825C12.2498 26.3825 12.3008 26.3153 12.3416 26.2467C12.3824 26.1719 12.4164 26.087 12.4843 26.0633C12.6203 26.0055 12.9294 26.1141 12.9975 26.0971C13.0553 26.0803 13.0382 25.9614 13.0994 25.9614C13.2421 25.9544 13.3337 26.053 13.3848 26.053C13.4358 26.053 13.5613 26.0463 13.5783 26.0192C13.5953 25.9921 13.602 25.7098 13.7958 25.5738C14.0066 25.4244 14.2649 25.489 14.3334 25.523C14.3334 25.5738 14.3401 25.6997 14.4761 25.7065C14.6121 25.7132 14.6255 25.6894 14.7449 25.7302C14.8643 25.771 15.0065 25.7235 15.071 25.9237C15.1288 25.9069 15.2648 25.8899 15.2307 25.6962C15.2979 25.6453 15.3566 25.6113 15.4995 25.4108C15.5336 25.3599 15.5912 25.3021 15.6355 25.2273C15.7545 25.2273 15.8971 25.2036 16.0873 25.37C16.0295 25.4108 15.9955 25.4372 15.9787 25.4786C16.0284 25.5279 16.0738 25.5813 16.1144 25.6384C16.1655 25.7056 16.1995 25.788 16.2641 25.805C16.4067 25.8458 16.6413 25.788 16.9029 25.805C17.1545 25.822 17.365 25.9137 17.4569 25.9714C17.4909 25.9546 17.4909 25.9477 17.5758 25.9647C17.6607 25.9818 17.7252 25.9885 17.6336 25.8798C17.6844 25.9036 17.7422 25.9546 17.7933 25.9036C17.8444 25.8525 17.8849 25.7779 18.0276 25.7609C18.1703 25.7439 18.2214 25.7676 18.2792 25.6182C18.354 25.4347 18.0957 25.4347 18.0957 25.4347C18.0957 25.4347 18.2147 25.3259 18.3473 25.1832C18.507 25.0338 18.6904 24.84 18.7346 24.6021C18.8094 24.1638 18.3813 24.1062 18.3813 24.1062L16.3051 24.745L13.7667 24.6192L11.6022 25.6964L11.6008 25.6962Z" fill="#927D49"/>
<path fill-rule="evenodd" clip-rule="evenodd" d="M9.73546 19.6986C9.73546 19.6986 9.66826 19.7835 9.62682 19.984C9.58538 20.1845 9.60307 20.1607 9.56903 20.3034C9.53498 20.4461 9.11677 21.8665 9.27357 22.3456C9.43037 22.8248 9.70186 23.0015 9.87165 23.3888C9.9057 23.4737 9.93885 23.5248 9.95655 23.5996C10.0143 23.8509 9.96349 24.0447 10.0314 24.2962C10.0551 24.3811 10.1165 24.4797 10.2081 24.5816C10.4097 24.7921 10.7383 24.9926 10.8801 25.1353C11.0804 25.3461 11.366 25.7744 11.7295 25.8149C11.9233 25.8387 12.1986 25.7571 12.4261 25.6214C12.6277 25.4955 12.7523 25.319 12.9637 25.2182C13.1132 25.1434 13.2729 25.1163 13.4156 25.0822C13.7112 25.0244 13.9798 25.015 14.1395 25.0482C14.3841 25.0993 14.9618 25.276 15.2819 25.276C15.532 25.272 15.7808 25.2377 16.0227 25.1741C16.5085 25.0314 17.0963 24.7865 17.4838 24.6779C17.7114 24.6107 17.8949 24.593 18.0819 24.5522C18.4013 24.4774 18.6697 24.3755 18.8227 24.1817C18.7208 24.0628 18.5951 23.8793 17.9153 23.8861C17.144 23.9031 16.2536 24.3312 15.8153 24.3993C15.3769 24.4673 15.1867 24.5249 14.6973 24.3482C14.2175 24.1697 14.2016 24.0516 14.2016 24.0516C14.2016 24.0516 13.6978 23.6993 13.487 22.801C13.2762 21.9028 13.487 21.2482 14.0342 20.6262C14.1769 20.4665 14.1429 20.3238 14.1429 20.3238C14.1429 20.3238 14.5031 19.8379 14.4045 19.383C14.2959 18.931 13.5992 19.0228 13.5992 19.0228L9.73568 19.6986H9.73546Z" fill="#6E6342"/>
<path fill-rule="evenodd" clip-rule="evenodd" d="M10.3166 21.2108C10.2867 21.2671 10.2726 21.3306 10.2759 21.3943C10.2826 21.4859 10.3099 21.6048 10.585 21.8734C10.8195 22.1077 10.7684 22.3693 10.7684 22.3693C10.7684 22.3693 10.8865 22.3931 11.2068 22.2432C11.4584 22.1243 11.5428 22.3351 11.5428 22.3351C11.616 22.2967 11.6954 22.2714 11.7773 22.2603C11.8516 22.2534 11.9234 22.2305 11.9879 22.1931C11.9879 22.1931 12.2836 22.4955 12.5418 22.6381C12.7764 22.764 12.9123 22.8489 13.0279 22.764C13.1366 22.6892 13.1366 22.5362 13.1296 22.4684C13.1027 22.4057 13.0685 22.3464 13.0279 22.2916C12.9531 22.183 12.8342 22.0571 12.8263 21.9556C12.8093 21.7213 13.0031 21.4424 12.9621 21.3746C12.9211 21.3067 12.7685 21.2897 12.3913 21.4256C12.0007 21.5547 10.3151 21.2115 10.3151 21.2115L10.3166 21.2108Z" fill="#39331F"/>
<path fill-rule="evenodd" clip-rule="evenodd" d="M11.2067 22.7297C11.2067 22.7297 11.0132 22.5463 11.0811 21.6559C11.1632 21.6547 11.2453 21.6626 11.3257 21.6796C11.3257 21.6796 11.4312 22.3695 11.2067 22.7297Z" fill="#292311"/>
<path fill-rule="evenodd" clip-rule="evenodd" d="M9.82735 19.0189C9.85436 18.9989 9.87941 18.9764 9.90217 18.9517C9.83497 19.0774 9.52473 19.5802 9.77628 20.3721C10.0278 21.1603 10.6597 21.7481 11.4379 21.7754C12.2161 21.8028 12.6251 21.422 13.0928 20.8512C13.2763 20.6236 13.4871 20.338 13.6739 20.1445C13.9525 19.8419 14.17 19.757 14.17 19.4649C14.17 18.8668 13.5583 18.5982 12.6578 18.3299C11.7573 18.0615 10.9451 18.0947 10.5238 18.2783C10.1127 18.4786 9.93599 18.6894 9.82713 19.0191L9.82735 19.0189Z" fill="#252211"/>
<path fill-rule="evenodd" clip-rule="evenodd" d="M12.7189 22.9981L12.7861 22.964C12.7861 22.964 12.8029 22.6952 12.9118 22.7024C13.0204 22.7194 13.0715 22.8623 13.0612 22.9132C13.0545 22.964 13.0274 23.0492 12.9185 23.0389C12.7758 23.0422 12.7183 22.9981 12.7183 22.9981H12.7189Z" fill="#3F3824"/>
<path fill-rule="evenodd" clip-rule="evenodd" d="M12.4165 21.8564C12.4165 21.8564 12.4837 21.8326 12.5659 21.9142C12.6331 21.9142 12.9261 21.8801 13.0179 21.9379C13.1098 21.9957 13.1369 22.0465 13.1369 22.0465C13.1369 22.0465 12.7937 22.1214 12.6067 22.0465C12.4165 21.982 12.4165 21.8564 12.4165 21.8564Z" fill="#2D2815"/>
<path fill-rule="evenodd" clip-rule="evenodd" d="M13.9289 21.9072C13.9289 21.8902 13.7454 21.7645 13.5516 21.7235C13.5176 21.7168 13.5106 21.7405 13.4844 21.7405C13.4674 21.7338 13.4607 21.6827 13.4607 21.6827L13.3505 21.7408C13.3505 21.7408 13.3335 21.7645 13.3913 21.808C13.4421 21.8487 13.5272 21.8828 13.551 21.9506C13.5747 22.0185 13.5747 22.0423 13.585 22.0526C13.5917 22.0593 13.7107 22.0526 13.7685 22.0185C13.8263 21.9845 13.9351 21.9289 13.9282 21.9065L13.9289 21.9072Z" fill="#82764F"/>
<path fill-rule="evenodd" clip-rule="evenodd" d="M12.2126 22.5971C12.2126 22.5971 12.2465 22.3628 12.4743 22.3525C12.7086 22.3354 12.7529 22.563 12.7529 22.563L12.617 22.699C12.617 22.6956 12.515 22.553 12.2138 22.5971H12.2126Z" fill="#2D2816"/>
<path fill-rule="evenodd" clip-rule="evenodd" d="M13.6908 21.5877C13.6908 21.5877 13.5649 21.7237 13.2865 21.7645C13.2628 21.7304 13.2117 21.6625 13.2865 21.5539C13.3613 21.4453 13.4462 21.4112 13.5311 21.445C13.5686 21.4511 13.6035 21.4678 13.6318 21.493C13.6601 21.5183 13.6806 21.5512 13.6908 21.5877Z" fill="#574F35"/>
<path fill-rule="evenodd" clip-rule="evenodd" d="M14.2038 21.7544C14.2108 21.7204 14.187 21.7136 14.2038 21.6966C14.2206 21.6796 14.3127 21.6458 14.3297 21.6626C14.3364 21.6695 14.3297 21.6966 14.3297 21.7298C14.3297 21.7629 14.3297 21.797 14.3127 21.8214C14.2889 21.8554 14.2211 21.8725 14.187 21.8624C14.153 21.8523 14.1462 21.8046 14.1462 21.7952C14.163 21.7885 14.2038 21.7714 14.2038 21.7544ZM14.784 21.3875C14.784 21.3705 14.8418 21.3364 14.8758 21.3364C14.9267 21.3364 14.9267 21.3772 14.9336 21.3875C14.9504 21.3942 14.9504 21.3806 14.9674 21.4112C14.9844 21.4419 15.0084 21.4961 14.9912 21.5302C14.9739 21.5642 14.9063 21.5878 14.8895 21.581C14.8657 21.564 14.7909 21.4112 14.784 21.3875Z" fill="#82764F"/>
<path fill-rule="evenodd" clip-rule="evenodd" d="M13.616 21.8326C13.616 21.8326 13.6908 21.8494 13.7927 21.9345C13.7587 21.9583 13.7076 21.9854 13.7076 21.9854C13.7076 21.9854 13.7009 21.9072 13.616 21.8324V21.8326Z" fill="#6E6342"/>
<path fill-rule="evenodd" clip-rule="evenodd" d="M13.4497 21.0849C13.4327 21.0681 13.5006 21.0274 13.5413 21.0341C13.5821 21.0408 13.5991 21.0681 13.6432 21.0748C13.6874 21.0816 13.6943 21.0578 13.7104 21.0408C13.7266 21.0238 13.7853 21.0341 13.7953 21.0408C13.8016 21.0483 13.8073 21.0562 13.8124 21.0645C13.8131 21.0516 13.8164 21.039 13.8223 21.0274C13.8281 21.0159 13.8362 21.0056 13.8462 20.9973C13.8592 20.9878 13.8743 20.9813 13.8902 20.9783C13.9061 20.9754 13.9224 20.9761 13.938 20.9803C13.9447 21.0041 13.9788 21.089 13.9721 21.106C13.9654 21.123 13.8634 21.147 13.8462 21.1297C13.8632 21.1707 13.938 21.2556 13.9481 21.2724C13.9582 21.2892 13.8733 21.3302 13.8395 21.3235C13.792 21.3201 13.4997 21.1501 13.4488 21.0856L13.4497 21.0849ZM13.8948 20.5209C13.8885 20.5038 13.8765 20.4894 13.8607 20.4801C13.837 20.4734 13.7588 20.4801 13.7588 20.5209C13.7588 20.5617 13.826 20.7897 13.9015 20.9084C13.9866 21.0274 14.0442 21.1257 14.102 21.153C14.1201 21.1613 14.1407 21.1624 14.1597 21.156C14.1786 21.1497 14.1944 21.1365 14.2039 21.119C14.2106 21.102 14.2277 20.9763 14.2209 20.6806C14.2142 20.3849 14.2039 20.0995 14.1869 20.0825C14.1699 20.0655 14.102 20.0657 14.0783 20.0996C14.0545 20.1334 13.9015 20.47 13.8946 20.5209H13.8948Z" fill="#585136"/>
<path fill-rule="evenodd" clip-rule="evenodd" d="M13.5924 22.2607C13.5924 22.2607 13.4734 22.1859 13.3579 22.237C13.2492 22.288 13.2559 22.4885 13.2559 22.4885C13.2804 22.4981 13.3068 22.5015 13.3329 22.4986C13.3589 22.4956 13.3839 22.4863 13.4056 22.4715C13.4804 22.4206 13.5754 22.3357 13.5924 22.2609V22.2607Z" fill="#574F35"/>
<path fill-rule="evenodd" clip-rule="evenodd" d="M13.8165 22.5293C13.8097 22.4621 13.7493 22.4621 13.7493 22.4273C13.7534 22.4108 13.763 22.396 13.7766 22.3856C13.7901 22.3751 13.8068 22.3694 13.8239 22.3696C13.8579 22.3696 13.8911 22.4103 13.9327 22.4368C13.9735 22.4605 14.0346 22.504 14.0414 22.5557C14.0481 22.6074 13.9742 22.7492 13.892 22.7492C13.8097 22.7492 13.8342 22.5962 13.8171 22.5284L13.8165 22.5293ZM14.4723 22.4374C14.4723 22.4374 14.3364 22.4782 14.3465 22.4374C14.3565 22.3967 14.3874 22.3866 14.4316 22.3866C14.454 22.3631 14.4841 22.3486 14.5165 22.3456C14.535 22.3447 14.5531 22.3508 14.5673 22.3626C14.5673 22.3626 14.6592 22.3218 14.6863 22.3456C14.7134 22.3693 14.6932 22.3693 14.71 22.3967C14.7314 22.427 14.7454 22.4619 14.751 22.4986C14.751 22.5257 14.6491 22.5835 14.5673 22.5734C14.4723 22.553 14.4891 22.4545 14.4723 22.4374ZM15.264 22.2844C15.264 22.2844 15.3047 22.3082 15.2709 22.3355C15.2472 22.3593 15.1282 22.4027 15.0261 22.4103C14.9241 22.4103 14.8325 22.4271 14.8325 22.3933C14.8325 22.3595 14.9174 22.2914 14.9683 22.2744C14.9785 22.2616 14.9914 22.2513 15.0062 22.2442C15.0209 22.2372 15.0371 22.2335 15.0534 22.2336C15.0942 22.2336 15.2537 22.2166 15.298 22.2098C15.3388 22.2029 15.3728 22.2266 15.3489 22.2607C15.3388 22.2844 15.264 22.2844 15.264 22.2844ZM15.4985 21.2352C15.4985 21.2352 15.4474 21.3439 15.3898 21.3439C15.3321 21.3371 15.3321 21.3201 15.3321 21.3031C15.3321 21.2794 15.3898 21.2182 15.3829 21.2012C15.3661 21.2012 15.3251 21.2012 15.3321 21.1604C15.3321 21.1264 15.3898 21.0856 15.4407 21.0932C15.4791 21.0616 15.5269 21.0437 15.5767 21.0424C15.6345 21.0424 15.6853 21.0592 15.6853 21.0932C15.6853 21.1273 15.6181 21.2018 15.5935 21.2191C15.5664 21.2462 15.5323 21.2639 15.4985 21.2359V21.2352ZM14.7237 23.2434C14.7237 23.2434 14.6565 23.2503 14.6565 23.2841C14.6565 23.3012 14.6733 23.3012 14.6972 23.2911C14.711 23.2903 14.7247 23.288 14.738 23.2841C14.7447 23.2911 14.7447 23.3249 14.7958 23.3249C14.8377 23.3193 14.8781 23.3054 14.9147 23.2841C14.9555 23.2673 14.9896 23.2501 14.9896 23.2169C14.9725 23.1592 14.9385 23.1318 14.8876 23.1318C14.8616 23.1302 14.8356 23.1361 14.8128 23.1489C14.8128 23.1489 14.7958 23.1148 14.738 23.1489C14.6802 23.1829 14.6869 23.1829 14.704 23.1999C14.7344 23.227 14.7243 23.2447 14.7243 23.2447L14.7237 23.2434ZM14.3397 23.5969C14.3397 23.5798 14.4246 23.5458 14.4484 23.5561C14.4721 23.5628 14.54 23.6918 14.54 23.7055C14.54 23.7225 14.4551 23.7633 14.421 23.7633C14.387 23.7633 14.3294 23.7055 14.3294 23.6961C14.3294 23.6894 14.3702 23.6793 14.3702 23.6723C14.3803 23.6555 14.3397 23.6145 14.3397 23.5975V23.5969ZM14.0709 23.1007C14.088 23.094 14.088 23.0769 14.1117 23.0599C14.1191 23.055 14.1276 23.0518 14.1365 23.0506C14.1453 23.0495 14.1543 23.0504 14.1628 23.0532C14.1688 23.0425 14.1771 23.0333 14.1871 23.0262C14.197 23.0191 14.2085 23.0143 14.2206 23.0122C14.2613 23.0055 14.2954 23.0122 14.2878 23.0292C14.2878 23.0803 14.3218 23.1141 14.3218 23.1549C14.3218 23.1957 14.2981 23.2467 14.2132 23.2808C14.1283 23.3045 14.0127 23.3045 13.9957 23.2978C13.9786 23.2911 13.9616 23.223 13.9786 23.1889C13.9957 23.1549 14.0432 23.1177 14.0705 23.1007H14.0709Z" fill="#82764F"/>
<path fill-rule="evenodd" clip-rule="evenodd" d="M14.1791 23.1238C14.1791 23.1238 14.1213 23.1578 14.1213 23.1748C14.1162 23.1913 14.1139 23.2085 14.1146 23.2257C14.1146 23.2358 14.1894 23.219 14.1995 23.2087C14.2029 23.202 14.1791 23.1415 14.1791 23.1238Z" fill="#6E6342"/>
<path fill-rule="evenodd" clip-rule="evenodd" d="M13.6739 22.9641C13.7077 22.971 13.7655 22.9641 13.8097 22.9811C13.8437 22.9981 13.8674 23.0322 13.8334 23.0729C13.7994 23.1137 13.7662 23.1748 13.6907 23.1645C13.6058 23.1578 13.5243 23.1137 13.5243 23.0796C13.5229 23.0581 13.5257 23.0365 13.5327 23.0161C13.5397 22.9957 13.5507 22.9768 13.5651 22.9607C13.5991 22.9336 13.6159 22.9506 13.6737 22.9641H13.6739Z" fill="#585136"/>
<path fill-rule="evenodd" clip-rule="evenodd" d="M13.6331 22.998C13.6331 22.998 13.5244 23.0829 13.4971 23.1239C13.463 23.1647 13.2966 23.3753 13.2458 23.4194C13.2627 23.3896 13.2819 23.3612 13.3033 23.3345C13.2361 23.3775 13.1858 23.4422 13.1606 23.518C13.1199 23.6438 13.3885 23.7117 13.565 23.7628C13.7415 23.8139 13.8098 23.83 13.8098 23.83C13.7448 23.7323 13.689 23.6288 13.6431 23.5209C13.5759 23.3612 13.5412 23.3441 13.5853 23.2693C13.6194 23.1945 13.6705 23.1436 13.6705 23.0859C13.6501 23.0321 13.6331 22.998 13.6331 22.998Z" fill="#574F35"/>
<path fill-rule="evenodd" clip-rule="evenodd" d="M9.75924 23.2667C9.78397 23.2712 9.80932 23.2712 9.83405 23.2667C9.8849 23.2597 10.4151 23.0651 10.9691 23.1C11.3838 23.1251 11.7948 23.1926 12.1957 23.3016C12.8923 23.4851 13.7588 23.8486 14.3194 24.0561C14.4688 24.1136 14.6151 24.2158 14.7226 24.2563C15.1509 24.423 15.1677 24.423 15.4193 24.4671C15.7149 24.5079 16.0173 24.4093 16.3334 24.3414C16.7207 24.2563 17.3833 24.2155 17.9644 24.1306C18.1522 24.1046 18.3376 24.0626 18.5183 24.005C18.5183 24.005 18.0562 24.4671 16.9483 24.6335C16.5005 24.7015 16.0454 24.7073 15.596 24.6505C15.2425 24.6165 15.0082 24.5654 14.8315 24.5146C14.631 24.4568 14.2197 24.3038 13.7135 24.1786C13.36 24.0867 12.9658 24.0189 12.514 23.934C11.3994 23.7299 10.1898 23.4956 9.75879 23.268L9.75924 23.2667Z" fill="#252211"/>
<path fill-rule="evenodd" clip-rule="evenodd" d="M8.50871 21.1666C8.23991 21.3942 7.95476 21.6117 7.67633 21.8223L6.837 22.4672C6.55163 22.6777 6.27297 22.8952 5.98737 23.106C5.70177 23.3168 5.41662 23.5171 5.11377 23.7108C5.38257 23.4832 5.66772 23.2724 5.9531 23.0652C6.23847 22.858 6.53438 22.6549 6.80967 22.4448L7.649 21.799C7.93774 21.5884 8.21639 21.3709 8.50871 21.1671V21.1666ZM7.02382 23.5453C7.02382 23.5453 7.32622 23.2937 7.70343 22.9405C8.17227 22.5023 8.7466 21.9414 8.93006 21.8397L7.02359 23.5455L7.02382 23.5453Z" fill="#CFB66C"/>
<path fill-rule="evenodd" clip-rule="evenodd" d="M7.02368 23.5451C7.17331 23.3957 7.33303 23.2496 7.49274 23.1067L7.73735 22.8962C7.81216 22.829 7.89728 22.7535 7.97187 22.6787C8.12128 22.5293 8.26755 22.3693 8.41696 22.2166C8.49101 22.1397 8.56931 22.0671 8.65149 21.9991C8.69257 21.9627 8.7382 21.9318 8.78723 21.9072C8.82823 21.8835 8.87235 21.84 8.92992 21.8324C8.8961 21.8835 8.85533 21.9072 8.82128 21.9513C8.78051 21.9854 8.74647 22.0262 8.71264 22.06C8.63783 22.1348 8.55293 22.2027 8.47811 22.2708C8.3184 22.4067 8.15197 22.5396 7.99226 22.6818C7.83255 22.824 7.68314 22.9775 7.5232 23.1202C7.35005 23.2664 7.19034 23.4091 7.02368 23.5458V23.5451ZM9.05581 22.1859C9.05581 22.1859 7.94813 23.27 7.72032 23.4465L9.05581 22.1859Z" fill="#CFB66C"/>
<path fill-rule="evenodd" clip-rule="evenodd" d="M9.05595 22.1858C8.9563 22.3011 8.84946 22.4101 8.73607 22.5119L8.40007 22.8314C8.29143 22.94 8.18929 23.0489 8.07393 23.1575C7.95499 23.2594 7.84635 23.3591 7.72046 23.4532L8.0466 23.1338C8.15547 23.0251 8.27441 22.9335 8.38999 22.8246L8.71614 22.5052C8.82814 22.3932 8.937 22.2844 9.05595 22.1858ZM9.10679 22.7736C9.00469 23.0585 8.88438 23.3366 8.7466 23.6062C8.46123 24.1772 8.03316 24.8906 7.84612 25.2544L9.10679 22.7736Z" fill="#CFB66C"/>
<path fill-rule="evenodd" clip-rule="evenodd" d="M9.10668 22.7738C9.10668 22.8995 9.07263 23.0083 9.03186 23.117C8.99212 23.2257 8.94681 23.3323 8.89612 23.4364C8.84504 23.5383 8.78725 23.6472 8.72946 23.7457C8.67167 23.8443 8.6038 23.946 8.55273 24.0481L8.20956 24.6529C8.09061 24.8545 7.97503 25.0573 7.84937 25.251C7.93426 25.0335 8.04985 24.8297 8.15871 24.6292C8.27765 24.4276 8.38629 24.226 8.49471 24.0175C8.54764 23.9135 8.59527 23.807 8.6374 23.6983C8.68825 23.5894 8.73909 23.4875 8.78009 23.3889C8.83093 23.2803 8.8717 23.1781 8.92277 23.0798C8.98034 22.9743 9.02805 22.8724 9.10623 22.7738H9.10668Z" fill="#CFB66C"/>
<path fill-rule="evenodd" clip-rule="evenodd" d="M10.3165 25.5602C10.3165 25.5602 9.98048 26.0053 10.0141 26.5693C10.1057 26.2738 10.2213 25.8218 10.3165 25.5602ZM10.6359 26.0064C10.6359 26.0064 10.517 27.216 10.4184 27.8107C10.5577 27.1233 10.5848 27.181 10.6359 26.0064ZM12.8616 27.8822C12.8616 27.8822 12.3587 29.3606 12.3484 29.7714C12.4572 29.3489 12.6678 28.4858 12.8616 27.881V27.8822Z" fill="#DEC270"/>
<path fill-rule="evenodd" clip-rule="evenodd" d="M14.0374 25.4688C14.0374 25.4688 14.8529 26.8143 15.4647 27.9628C15.2991 27.3848 14.9183 26.3249 14.0374 25.4688Z" fill="#CBAF59"/>
<path fill-rule="evenodd" clip-rule="evenodd" d="M16.2292 27.4496C16.677 28.2411 17.0809 29.0568 17.4388 29.8928C17.371 29.3151 17.1873 28.3263 16.2292 27.4496Z" fill="#E3C677"/>
<path fill-rule="evenodd" clip-rule="evenodd" d="M22.6718 29.4335C22.8075 29.3487 23.0761 28.8863 23.3106 28.771C23.545 28.652 23.7217 28.6283 23.9325 28.3937C24.143 28.1489 24.2013 27.9995 24.6629 27.806C25.3087 27.5271 24.8645 27.1669 24.8645 27.1669C24.9357 27.097 25.0117 27.0323 25.0921 26.9734C25.2588 26.8477 25.4523 26.6947 25.4355 26.4261C25.4118 25.9743 25.3269 25.3184 24.9564 24.9379C25.3166 24.8631 26.0063 24.8122 26.4348 24.7036C26.9307 24.5777 27.1585 24.4009 27.1585 24.4009C27.1585 24.4009 26.8731 23.9151 27.3353 23.4259C27.7974 22.9367 28.1746 22.6443 28.4532 22.0971C28.1338 22.0563 27.6468 21.8865 26.4041 22.3587C26.4712 22.3903 26.5359 22.4266 26.5978 22.4674C26.5978 22.4674 25.8333 22.6782 25.5547 22.9127C25.0686 23.3237 25.0074 23.6602 24.4808 23.9117C23.9542 24.1633 23.424 24.0952 22.9858 24.299C22.5477 24.5029 22.483 24.6762 22.323 24.751C22.3571 24.7918 22.3163 24.8597 22.3808 24.9175C22.3401 24.9753 22.1022 25.3626 21.8609 25.3626C21.8847 25.4544 22.0885 25.5223 22.0885 25.5223C22.0885 25.5223 21.9391 25.6311 21.5585 25.6582C21.7521 25.8598 21.9357 26.0796 22.442 26.399C22.4012 26.4839 22.2312 26.6098 22.2993 26.7695C22.3741 26.9292 22.5681 27.1467 23.3425 27.3235C22.9482 27.3403 22.4863 27.4321 21.8641 27.3472C21.2422 27.2724 21.1403 27.2283 20.7564 27.3235C20.7971 27.3642 20.9058 27.3642 21.001 27.4729C20.8991 27.4796 20.2602 27.3981 20.0427 27.6837C19.8151 27.9791 19.7166 28.4652 19.7336 28.7913C19.6146 28.8491 19.4991 28.9511 19.5569 29.1618C19.6146 29.3726 19.917 29.4405 20.1108 29.5729C20.3043 29.7156 20.3214 29.7664 20.505 29.7326C20.6986 29.6918 20.984 29.4983 21.1506 29.4983C21.3173 29.4983 21.436 29.6239 21.436 29.6239C21.436 29.6239 21.888 29.4064 21.9322 29.4472C21.9729 29.488 21.9389 29.7496 21.983 29.7904C22.0278 29.8211 22.537 29.5187 22.6729 29.4335H22.6718Z" fill="#ECD592"/>
<path fill-rule="evenodd" clip-rule="evenodd" d="M32.5502 15.835C30.4265 10.3505 25.1764 9.33447 25.1764 9.33447H10.1977L10.2555 14.9208H13.2385V27.3951H10.1975V32.9714H24.7618C28.2718 32.9714 31.0855 29.4441 31.0855 29.4441C35.5913 23.0491 32.55 15.835 32.55 15.835H32.5502ZM24.8399 25.6858C24.8399 25.6858 23.6975 27.334 22.4546 27.334H19.9682L19.9093 14.9345H23.1001C23.1001 14.9345 24.5785 15.2436 25.6114 18.1693C25.6114 18.1693 26.9807 22.3581 24.8399 25.6858Z" fill="white" fill-opacity="0.8"/>
</svg>
