<svg width="42" height="42" viewBox="0 0 42 42" fill="none" xmlns="http://www.w3.org/2000/svg">
<rect width="42" height="42" rx="21" fill="#E6007A"/>
<path d="M21.0008 11.3412C24.4271 11.3412 27.2046 9.70782 27.2046 7.69292C27.2046 5.67802 24.4271 4.04462 21.0008 4.04462C17.5746 4.04462 14.7971 5.67802 14.7971 7.69292C14.7971 9.70782 17.5746 11.3412 21.0008 11.3412Z" fill="white"/>
<path d="M21.0008 38.8305C24.4271 38.8305 27.2046 37.1971 27.2046 35.1822C27.2046 33.1673 24.4271 31.5339 21.0008 31.5339C17.5746 31.5339 14.7971 33.1673 14.7971 35.1822C14.7971 37.1971 17.5746 38.8305 21.0008 38.8305Z" fill="white"/>
<path d="M12.3553 16.3913C14.0684 13.3911 14.0573 10.1417 12.3304 9.13361C10.6036 8.12548 7.81498 9.74037 6.10186 12.7406C4.38875 15.7408 4.39987 18.9902 6.1267 19.9983C7.85352 21.0064 10.6421 19.3915 12.3553 16.3913Z" fill="white"/>
<path d="M35.8967 30.1344C37.6098 27.1342 37.5996 23.8853 35.874 22.8779C34.1483 21.8704 31.3606 23.4859 29.6475 26.4861C27.9344 29.4863 27.9446 32.7351 29.6702 33.7425C31.3959 34.75 34.1836 33.1346 35.8967 30.1344Z" fill="white"/>
<path d="M12.3312 33.7418C14.058 32.7336 14.0691 29.4842 12.356 26.484C10.6429 23.4838 7.85426 21.8689 6.12743 22.8771C4.4006 23.8852 4.38948 27.1346 6.1026 30.1348C7.81571 33.135 10.6043 34.7499 12.3312 33.7418Z" fill="white"/>
<path d="M35.8754 19.9991C37.6011 18.9916 37.6113 15.7428 35.8982 12.7426C34.185 9.7424 31.3974 8.12695 29.6717 9.13441C27.946 10.1419 27.9359 13.3907 29.649 16.3909C31.3621 19.3911 34.1498 21.0065 35.8754 19.9991Z" fill="white"/>
</svg>
