<svg width="43" height="43" viewBox="0 0 43 43" fill="none" xmlns="http://www.w3.org/2000/svg">
<path d="M21.5 43C33.3741 43 43 33.3741 43 21.5C43 9.62587 33.3741 0 21.5 0C9.62587 0 0 9.62587 0 21.5C0 33.3741 9.62587 43 21.5 43Z" fill="#7866D5"/>
<path d="M30.2031 11.0381C30.9309 11.129 31.689 11.1897 32.4168 11.311C33.8421 11.5839 34.3272 12.3117 34.0847 13.7673C34.024 14.3131 33.5995 14.7376 33.0536 14.8286C32.7201 14.8893 32.3562 14.9196 32.0226 14.8893C27.292 14.8893 22.5917 14.9196 17.8611 14.9196C17.1636 14.9196 16.4359 14.9802 15.7384 15.1015C13.4034 15.4654 12.4937 16.4358 12.3117 18.8011C12.2208 19.8928 12.2208 19.8928 13.3428 19.8928H32.1439C32.3258 19.8928 32.5078 19.8928 32.6897 19.8928C32.993 19.8928 33.2659 19.9838 33.5388 20.1354C34.3879 20.6812 34.1756 21.5606 34.1453 22.3491C34.115 22.9859 33.7208 23.3498 33.0536 23.4711C32.7807 23.5317 32.5078 23.5317 32.2045 23.5317C25.7758 23.5317 19.347 23.5317 12.9182 23.5317C12.2208 23.5317 12.2208 23.5317 12.2814 24.2292C12.3117 24.866 12.3724 25.5028 12.524 26.1396C12.8273 27.2919 13.5247 28.0197 14.7074 28.3533C15.981 28.7172 17.3153 28.7778 18.6192 28.8082C23.1982 28.8082 27.8075 28.8082 32.4168 28.8082C32.993 28.8082 33.5388 28.8688 33.9027 29.4146C34.4789 30.3244 34.1756 31.507 33.2659 32.0832C33.1446 32.1742 33.0233 32.2348 32.8717 32.2651C31.871 32.5987 30.8399 32.6594 29.7786 32.6897C25.4422 32.7806 21.1361 32.7806 16.8301 32.6897C15.4958 32.6594 14.1615 32.5077 12.8576 32.2348C9.79482 31.598 8.24828 30.0211 7.73276 26.928C7.61146 26.2306 7.55082 25.5028 7.45984 24.775V19.1347C7.52049 18.5888 7.58114 18.0127 7.64179 17.4668C8.03601 13.9795 9.61287 12.251 13.0395 11.4626C14.2525 11.1897 15.5261 11.129 16.7391 11.0077L30.2031 11.0381Z" fill="white"/>
<path d="M23.289 33.2962C21.1056 33.2962 18.9526 33.2658 16.7996 33.2355C15.435 33.2052 14.0704 33.0536 12.7361 32.7503C9.43075 32.0529 7.73259 30.2941 7.18675 27.019C7.09578 26.5035 7.03513 25.988 7.0048 25.5028C6.97448 25.2905 6.94415 25.0783 6.91383 24.8357V24.775V19.074L6.97448 18.5282C7.0048 18.134 7.06545 17.7701 7.09578 17.4062C7.52032 13.6763 9.27913 11.7659 12.9484 10.9471C13.9188 10.7348 14.8588 10.6439 15.7989 10.5529C16.1021 10.5226 16.4054 10.4922 16.7086 10.4619H16.7693H30.2636H30.2939C30.5062 10.4922 30.7488 10.5226 30.9611 10.5226C31.4766 10.5832 31.9921 10.6135 32.5379 10.7348C34.2664 11.0684 34.9336 12.0388 34.6303 13.7976C34.5393 14.5557 33.9329 15.1925 33.1141 15.3138C32.7502 15.3745 32.3863 15.4048 31.9921 15.4048C27.2918 15.4351 22.5612 15.4654 17.8609 15.4654C17.1938 15.4654 16.4963 15.5261 15.8292 15.6474C13.7368 15.981 13.0394 16.7391 12.8574 18.8618C12.8574 19.0437 12.8271 19.2257 12.8271 19.3773C12.9484 19.3773 13.1607 19.3773 13.3426 19.3773H32.6896C33.0838 19.3773 33.478 19.4986 33.8116 19.6805C34.8426 20.3477 34.7516 21.3484 34.691 22.0762C34.691 22.1671 34.6606 22.2884 34.6606 22.3794C34.6 23.2285 34.0845 23.8046 33.1444 23.9866C32.8109 24.0472 32.5076 24.0472 32.2044 24.0472H12.9484C12.9181 24.0472 12.8574 24.0472 12.8271 24.0472C12.8271 24.0776 12.8271 24.1079 12.8271 24.1382V24.1685C12.8574 24.8053 12.9181 25.4118 13.0697 26.0183C13.3123 26.9584 13.8884 27.5345 14.8588 27.8075C16.1628 28.1714 17.497 28.232 18.6494 28.232C22.2276 28.2623 25.8666 28.2623 29.4145 28.2623H32.447C32.9018 28.2623 33.8419 28.2623 34.3877 29.1417C34.7516 29.7179 34.8426 30.385 34.691 31.0218C34.5393 31.6587 34.1451 32.2045 33.569 32.5684C33.4173 32.6594 33.2354 32.7503 33.0534 32.811C31.9314 33.1749 30.7791 33.2355 29.8087 33.2658C27.6557 33.2658 25.4724 33.2962 23.289 33.2962ZM8.00551 24.7447C8.03583 24.957 8.06616 25.1692 8.06616 25.3815C8.12681 25.8667 8.18745 26.3519 8.2481 26.8371C8.73329 29.6876 10.0979 31.0825 12.9484 31.689C14.222 31.9619 15.526 32.1135 16.8299 32.1438C21.1056 32.2348 25.4724 32.2348 29.7784 32.1438C30.6578 32.1135 31.7192 32.0529 32.6896 31.7496C32.7805 31.7193 32.8715 31.6587 32.9625 31.6283C33.2657 31.4161 33.5083 31.1128 33.5993 30.7489C33.6903 30.385 33.6296 30.0211 33.4173 29.6876C33.2354 29.4147 32.9928 29.3237 32.4166 29.3237H29.3842C25.8666 29.3237 22.1973 29.3237 18.619 29.2934C17.4061 29.2934 15.9808 29.2327 14.5556 28.8082C13.191 28.4443 12.3419 27.5649 12.0083 26.2003C11.8567 25.5331 11.7657 24.8357 11.7657 24.1685V24.1382C11.7354 23.7137 11.7051 23.4104 11.9477 23.1375C12.1903 22.8646 12.5238 22.8646 12.9484 22.8646H32.2347C32.4773 22.8646 32.7502 22.8646 32.9928 22.8039C33.478 22.713 33.5993 22.5007 33.6296 22.1974C33.6296 22.0762 33.6599 21.9852 33.6599 21.8639C33.7206 21.1058 33.7206 20.7419 33.296 20.469C33.1444 20.378 32.9322 20.3173 32.7502 20.3173H13.3426C12.6755 20.3173 12.2812 20.3173 11.978 20.0141C11.6748 19.7109 11.7354 19.2863 11.7657 18.6495C11.978 16.0416 13.0697 14.8589 15.6473 14.4647C16.375 14.3434 17.1028 14.2828 17.8609 14.2525C22.5915 14.2525 27.2918 14.2221 32.0224 14.2221C32.356 14.2221 32.6592 14.2221 32.9625 14.1615C33.2657 14.1312 33.5083 13.8886 33.5386 13.5853C33.7509 12.3723 33.4477 11.9781 32.2953 11.7355C31.8101 11.6446 31.325 11.5839 30.8398 11.5536C30.6275 11.5233 30.3849 11.4929 30.1726 11.4929H16.7693C16.466 11.5233 16.1628 11.5536 15.8595 11.5839C14.9195 11.6749 14.0401 11.7355 13.1303 11.9478C9.94627 12.7362 8.55135 14.2828 8.18745 17.5578C8.15713 17.9217 8.09648 18.2856 8.06616 18.6798L8.00551 19.1953V24.7447Z" fill="white"/>
</svg>
