<svg width="42" height="42" viewBox="0 0 42 42" fill="none" xmlns="http://www.w3.org/2000/svg">
<rect width="42" height="42" rx="21" fill="#141414"/>
<path d="M13.8418 19.8186V25.4811L11.3918 26.8967V18.403L13.8418 19.8186Z" fill="#FBA219"/>
<path d="M33.2666 14.1561V28.3123L30.8166 29.7279V18.403L28.3666 19.8186V31.1435L21.1333 35.3903V21.2342L23.5833 19.8186V31.1435L26.0333 29.7279V18.403L33.2666 14.1561Z" fill="#FBA219"/>
<path d="M16.2916 12.7405L13.8416 14.1561L16.2916 15.5717V12.7405Z" fill="#FBA219"/>
<path d="M21.1333 9.90936L18.6833 11.325L21.1333 12.7406V9.90936Z" fill="#FBA219"/>
<path d="M33.2667 14.1561L30.8167 15.5717L21.1333 9.90929L18.6833 11.3249L21.1333 12.7405L28.425 16.9874L25.975 18.403L16.2917 12.7405L13.8417 14.1561L23.525 19.8186L21.1333 21.2342L9 14.1561L21.1333 7.07806L33.2667 14.1561Z" fill="#323232"/>
<path d="M18.6833 28.3124V31.1436L11.45 26.8968L13.9 25.4811L18.6833 28.3124Z" fill="#323232"/>
<path d="M23.5247 31.1435L25.9747 29.7279L23.5247 28.3123V31.1435Z" fill="#323232"/>
<path d="M9 14.1561V28.3123L21.1333 35.3903V21.2342L9 14.1561ZM18.6833 31.1435L11.45 26.8966V18.403L18.7417 22.6498V31.1435H18.6833Z" fill="#F8691A"/>
<path d="M30.8165 29.7279L28.4248 28.3123V19.8186L30.8748 18.403L30.8165 29.7279Z" fill="#F8691A"/>
<path d="M30.8166 15.5718L28.3666 16.9874L21.1333 12.7406V9.90936L30.8166 15.5718Z" fill="#F8691A"/>
<path d="M16.2915 12.7405V15.5717L23.5832 19.8185V28.3122L26.0332 29.7278V18.4029L16.2915 12.7405Z" fill="#F8691A"/>
</svg>
