<svg width="42" height="42" viewBox="0 0 42 42" fill="none" xmlns="http://www.w3.org/2000/svg">
<rect width="42" height="42" rx="21" fill="#345D9D"/>
<circle cx="21" cy="21" r="10.8281" fill="white"/>
<path d="M21 6.5625C18.1445 6.5625 15.3532 7.40924 12.979 8.99566C10.6047 10.5821 8.75424 12.8369 7.6615 15.475C6.56876 18.1131 6.28285 21.016 6.83992 23.8166C7.39699 26.6172 8.77203 29.1897 10.7912 31.2089C12.8103 33.228 15.3828 34.603 18.1834 35.1601C20.984 35.7172 23.8869 35.4312 26.525 34.3385C29.1631 33.2458 31.4179 31.3953 33.0043 29.021C34.5908 26.6468 35.4375 23.8555 35.4375 21C35.443 19.1095 35.0761 17.2365 34.3578 15.4879C33.6394 13.7392 32.5837 12.1492 31.2508 10.8085C29.918 9.46786 28.3341 8.40286 26.5897 7.67433C24.8452 6.9458 22.9744 6.568 21.0839 6.5625H21ZM21.2447 21.4894L19.7415 26.5583H27.7818C27.835 26.5564 27.8881 26.565 27.9381 26.5837C27.988 26.6024 28.0337 26.6307 28.0727 26.6671C28.1116 26.7034 28.1431 26.7471 28.1651 26.7956C28.1872 26.8441 28.1995 26.8965 28.2013 26.9498V27.0826L27.5021 29.4947C27.4713 29.6088 27.4026 29.709 27.3073 29.7788C27.212 29.8487 27.0958 29.8841 26.9778 29.8792H14.6727L16.7352 22.8528L14.428 23.5519L14.9523 21.9439L17.2595 21.2447L20.161 11.3867C20.193 11.2732 20.2619 11.1737 20.357 11.1041C20.452 11.0344 20.5676 10.9985 20.6854 11.0021H23.7966C23.8499 11.0002 23.903 11.0089 23.9529 11.0276C24.0028 11.0462 24.0486 11.0746 24.0875 11.1109C24.1265 11.1473 24.1579 11.191 24.1799 11.2395C24.202 11.288 24.2143 11.3404 24.2161 11.3936V11.5265L21.7691 19.8464L24.0763 19.1472L23.5869 20.8252L21.2447 21.4894Z" fill="#345D9D"/>
</svg>
