<svg width="42" height="42" viewBox="0 0 42 42" fill="none" xmlns="http://www.w3.org/2000/svg">
<rect width="42" height="42" rx="21" fill="url(#paint0_linear_15304_309)"/>
<path d="M21.8535 28.8972C22.3232 28.6138 22.6317 28.0796 22.6764 27.4719L22.7039 23.0563L22.801 20.1055L22.7932 15.7484C22.8049 15.2005 23.1134 14.6662 23.6162 14.323L26.5807 12.6322C26.8245 12.4865 27.1026 12.4082 27.3866 12.4052C27.6706 12.4022 27.9503 12.4747 28.1971 12.6152L31.0637 14.2702C31.5218 14.5347 31.8432 15.0385 31.856 15.6779L31.816 19.0572C31.8054 19.6058 31.497 20.14 30.9931 20.4826L28.0296 22.174C27.5598 22.4575 26.9293 22.489 26.4133 22.1911L24.5208 21.0984L24.4805 24.082L26.4298 25.2075C26.889 25.4726 27.4854 25.5002 28.0462 25.1904L33.4812 21.9979C33.951 21.7144 34.2594 21.1802 34.3035 20.5737L34.3628 14.1184C34.3839 13.8427 34.3258 13.5668 34.1953 13.3231C34.0648 13.0794 33.8674 12.8781 33.6263 12.7429L28.2374 9.6316C27.7782 9.36647 27.1818 9.33891 26.621 9.64866L21.1512 12.9014C20.681 13.1831 20.3725 13.7173 20.3289 14.3256L20.2776 18.6487L20.2373 21.6322L20.1883 25.9565C20.1765 26.5045 19.8681 27.0387 19.366 27.3808L16.4576 29.1055C15.9896 29.3885 15.3591 29.42 14.8431 29.1221L11.9764 27.467C11.5172 27.2019 11.1956 26.701 11.1824 26.0599L11.1893 22.7403C11.1999 22.1917 11.5083 21.6575 12.0123 21.3149L14.9177 19.59C15.1616 19.4445 15.4396 19.3662 15.7236 19.3632C16.0075 19.3602 16.2872 19.4326 16.5341 19.573L18.3686 20.6321L18.4089 17.6486L16.5175 16.5566C16.0583 16.2914 15.462 16.2639 14.9012 16.5736L9.43139 19.8264C8.96225 20.1087 8.65382 20.6429 8.60911 21.2506L8.52705 27.614C8.51712 28.1614 8.80505 28.7232 9.3211 29.0212L14.768 32.1659C15.226 32.4304 15.8224 32.458 16.3843 32.1489L21.8535 28.8972Z" fill="white"/>
<defs>
<linearGradient id="paint0_linear_15304_309" x1="42" y1="32.8125" x2="1.35132e-06" y2="9.84375" gradientUnits="userSpaceOnUse">
<stop stop-color="#7C3FE3"/>
<stop offset="1" stop-color="#962FCF"/>
</linearGradient>
</defs>
</svg>
