<svg width="53" height="53" viewBox="0 0 53 53" fill="none" xmlns="http://www.w3.org/2000/svg">
<rect x="5.3" y="5.3" width="42.4" height="42.4" rx="21" fill="url(#paint0_linear_15304_233)"/>
<path d="M14.1707 35.7246C14.1645 35.8404 14.1141 35.9494 14.0299 36.0291C13.9457 36.1089 13.8342 36.1533 13.7183 36.1533C13.6023 36.1533 13.4908 36.1089 13.4066 36.0291C13.3224 35.9494 13.272 35.8404 13.2658 35.7246V17.7709C13.2658 17.3959 13.6937 17.1826 13.9919 17.4092L25.0357 25.7792C25.0913 25.8214 25.1364 25.8759 25.1674 25.9385C25.1984 26.001 25.2146 26.0698 25.2146 26.1396V35.7246C25.2084 35.8404 25.158 35.9494 25.0738 36.0291C24.9896 36.1089 24.8781 36.1533 24.7621 36.1533C24.6462 36.1533 24.5347 36.1089 24.4505 36.0291C24.3663 35.9494 24.3159 35.8404 24.3096 35.7246V26.3648L14.1707 18.6798V35.7246ZM28.6146 35.7246C28.6083 35.8404 28.5579 35.9494 28.4737 36.0291C28.3896 36.1089 28.278 36.1533 28.1621 36.1533C28.0461 36.1533 27.9346 36.1089 27.8504 36.0291C27.7663 35.9494 27.7159 35.8404 27.7096 35.7246V26.1396C27.7096 25.9978 27.7758 25.864 27.8885 25.7792L38.9323 17.4092C38.9995 17.3585 39.0795 17.3275 39.1633 17.3197C39.2471 17.3119 39.3314 17.3276 39.4068 17.365C39.4822 17.4024 39.5456 17.4601 39.5901 17.5315C39.6345 17.603 39.6582 17.6854 39.6584 17.7696V35.7246C39.6522 35.8404 39.6018 35.9494 39.5176 36.0291C39.4334 36.1089 39.3219 36.1533 39.206 36.1533C39.09 36.1533 38.9785 36.1089 38.8943 36.0291C38.8101 35.9494 38.7597 35.8404 38.7535 35.7246V18.6825L28.6146 26.3662V35.726V35.7246Z" fill="white"/>
<defs>
<linearGradient id="paint0_linear_15304_233" x1="26.5" y1="5.3" x2="26.5" y2="47.7" gradientUnits="userSpaceOnUse">
<stop stop-color="#50AA9D"/>
<stop offset="1" stop-color="#67CBB7"/>
</linearGradient>
</defs>
</svg>
