<svg width="42" height="42" viewBox="0 0 42 42" fill="none" xmlns="http://www.w3.org/2000/svg">
<rect width="42" height="42" rx="21" fill="#05121F"/>
<path fill-rule="evenodd" clip-rule="evenodd" d="M28.0835 22.2772L28.0514 14.8811C28.05 14.5004 27.8984 14.1396 27.6293 13.8706C27.3597 13.6015 26.9987 13.4484 26.6172 13.4484C26.236 13.4484 25.8749 13.6015 25.6058 13.8706C25.3366 14.1396 25.1835 14.5006 25.1835 14.8817V27.1185C25.1835 28.2317 24.7409 29.2907 23.9541 30.0775C23.1671 30.8643 22.1076 31.3067 20.9939 31.3067C19.8807 31.3067 18.8211 30.8643 18.034 30.0775C17.247 29.2907 16.8045 28.2317 16.8045 27.1185V14.8817C16.8045 14.5006 16.6517 14.1396 16.3822 13.8706C16.113 13.6015 15.752 13.4484 15.3705 13.4484C14.9893 13.4484 14.6282 13.6015 14.3591 13.8706C14.0899 14.1396 13.9384 14.5004 13.9368 14.8811L13.9047 22.2772C13.7895 23.2032 13.3676 24.06 12.7072 24.7199C11.9202 25.5067 10.8607 25.9491 9.74697 25.9491C8.63341 25.9491 7.57397 25.5067 6.78715 24.7199C6.12693 24.0598 5.70442 23.2026 5.58965 22.2764L5.55535 20.2424L1.77316 20.2416H0L0.0140893 19.9529C0.270169 14.7394 2.4493 9.84119 6.14082 6.15092C10.0929 2.19995 15.4052 0 20.9943 0C26.5833 0 31.8955 2.19995 35.8475 6.15092C38.4337 8.73632 40.3083 11.9542 41.2677 15.4838L41.3618 15.8308H38.5025L38.4431 15.6363C37.5688 12.7914 36.0036 10.2023 33.899 8.09855C30.4652 4.66572 25.8504 2.75485 20.9943 2.75485C16.1377 2.75485 11.5232 4.66572 8.08939 8.09855C5.56453 10.6229 3.83079 13.8265 3.11483 17.3246L3.08133 17.4873H8.31342V21.7607C8.31342 22.1418 8.46657 22.5028 8.73572 22.7718C9.00487 23.0413 9.36592 23.194 9.74738 23.194C10.1286 23.194 10.4897 23.0409 10.7588 22.7718C11.028 22.5028 11.1811 22.1418 11.1811 21.7607V14.8815C11.1811 13.7683 11.6237 12.7093 12.4107 11.9225C13.1977 11.1357 14.2574 10.6933 15.3709 10.6933C16.4845 10.6933 17.5439 11.1357 18.3308 11.9225C19.1178 12.7093 19.5603 13.7685 19.5603 14.8815V27.1183C19.5603 27.4994 19.7135 27.8604 19.9826 28.1294C20.2518 28.3985 20.613 28.5516 20.9943 28.5516C21.3755 28.5516 21.7366 28.3985 22.0059 28.1294C22.2751 27.8604 22.428 27.4994 22.428 27.1183V14.8815C22.428 13.7683 22.8706 12.7093 23.6576 11.9225C24.4446 11.1357 25.5043 10.6933 26.6178 10.6933C27.7314 10.6933 28.7906 11.1357 29.5777 11.9225C30.3647 12.7093 30.8072 13.7685 30.8072 14.8815V21.7607C30.8072 22.1418 30.9604 22.5028 31.2295 22.7718C31.4987 23.0413 31.8599 23.194 32.2412 23.194C32.6224 23.194 32.9835 23.0409 33.2526 22.7718C33.5222 22.5028 33.6754 22.1418 33.6754 21.7607V17.4873H38.9066L38.9062 17.4853H41.7082L41.7447 17.7176C41.9148 18.8031 42 19.9015 42 21C42 26.5877 39.7996 31.8981 35.8475 35.8493C31.8955 39.8003 26.5835 42 20.9943 42C15.405 42 10.0929 39.8003 6.14082 35.8493C2.48422 32.1935 0.309174 27.3494 0.0218494 22.1865L0.00530968 21.8962H2.76379L2.77992 22.1539C3.05724 26.595 4.94271 30.7552 8.08919 33.9012C11.523 37.3341 16.138 39.245 20.9941 39.245C25.8502 39.245 30.465 37.3341 33.8988 33.9012C37.3326 30.468 39.244 25.8548 39.244 21C39.244 20.7914 39.2405 20.5823 39.2334 20.3737L39.2291 20.2424H36.4326L36.3985 22.2764C36.2833 23.2026 35.861 24.0598 35.2008 24.7199C34.4138 25.5067 33.3543 25.9491 32.2406 25.9491C31.1272 25.9491 30.0676 25.5067 29.2807 24.7199C28.6207 24.06 28.1986 23.2032 28.0835 22.2772Z" fill="url(#paint0_linear_15304_322)"/>
<defs>
<linearGradient id="paint0_linear_15304_322" x1="8.85376" y1="35.9397" x2="32.661" y2="6.96912" gradientUnits="userSpaceOnUse">
<stop stop-color="#E78B1F"/>
<stop offset="1" stop-color="#FFDB45"/>
</linearGradient>
</defs>
</svg>
