<svg width="42" height="43" viewBox="0 0 42 43" fill="none" xmlns="http://www.w3.org/2000/svg">
<rect width="42" height="42" rx="21" fill="white"/>
<path fill-rule="evenodd" clip-rule="evenodd" d="M21 3.03346C11.0625 3.03346 3 11.1859 3 21.2342C3 31.2825 11.0625 39.4349 21 39.4349H31.7813C28.5938 41.3309 24.9375 42.4684 21 42.4684C9.375 42.4684 0 32.8941 0 21.2342C0 9.47955 9.375 0 21 0C32.625 0 42 9.47955 42 21.2342C42 22.277 41.9062 23.3197 41.8125 24.2677H38.8125C39 23.3197 39.0938 22.277 39.0938 21.2342C39 11.1859 30.9375 3.03346 21 3.03346Z" fill="#06070A"/>
<path fill-rule="evenodd" clip-rule="evenodd" d="M38 33.368C37.2558 34.4108 36.3256 35.4535 35.3954 36.4015H30.7442H20.8837C12.6977 36.4015 6 29.5762 6 21.2342C6 12.8922 12.6977 6.06689 20.8837 6.06689C29.0698 6.06689 35.7674 12.8922 35.7674 21.2342C35.7674 22.2769 35.6744 23.3197 35.4884 24.2676H32.4186C32.6977 23.3197 32.7907 22.2769 32.7907 21.2342C32.7907 14.5037 27.4884 9.10035 20.8837 9.10035C14.2791 9.10035 8.97674 14.5037 8.97674 21.2342C8.97674 27.9647 14.2791 33.368 20.8837 33.368H29.814H34.1861H38Z" fill="#06070A"/>
<path fill-rule="evenodd" clip-rule="evenodd" d="M39.8846 30.3346C40.3494 29.3866 40.7212 28.3439 41 27.3011H37.8397H34.6795H31.3333H27.7083H21.016C17.7628 27.3011 15.0673 24.5521 15.0673 21.2342C15.0673 17.9164 17.7628 15.1673 21.016 15.1673C24.2692 15.1673 26.9647 17.9164 26.9647 21.2342C26.9647 22.3718 26.6859 23.4145 26.1282 24.2677H29.3814C29.7532 23.3197 29.8462 22.277 29.8462 21.2342C29.8462 16.2101 25.8494 12.1339 20.9231 12.1339C15.9968 12.1339 12 16.2101 12 21.2342C12 26.2584 15.9968 30.3346 20.9231 30.3346H28.8237H32.8205H36.5385H39.8846Z" fill="#06070A"/>
</svg>
