<svg width="42" height="42" viewBox="0 0 42 42" fill="none" xmlns="http://www.w3.org/2000/svg">
<rect width="42" height="42" rx="21" fill="white"/>
<path fill-rule="evenodd" clip-rule="evenodd" d="M30.6115 20.8983V29.7588L15.2947 14.441C16.1422 13.5911 17.152 12.9206 18.264 12.4692C19.376 12.0178 20.5675 11.7949 21.7675 11.8136C24.1439 11.8481 26.4095 12.8238 28.0673 14.5268C29.7252 16.2297 30.6397 18.5208 30.6104 20.8972L30.6115 20.8983ZM11.8132 21.1006V12.2412L27.1288 27.5591C26.2815 28.4087 25.2719 29.0792 24.1601 29.5306C23.0483 29.982 21.857 30.205 20.6572 30.1864C18.2806 30.1523 16.0146 29.1766 14.3566 27.4736C12.6985 25.7707 11.7838 23.4794 11.8132 21.1028V21.1006Z" fill="#49A3FF"/>
</svg>
