<svg width="42" height="42" viewBox="0 0 42 42" fill="none" xmlns="http://www.w3.org/2000/svg">
<path d="M21 42C32.598 42 42 32.598 42 21C42 9.40202 32.598 0 21 0C9.40202 0 0 9.40202 0 21C0 32.598 9.40202 42 21 42Z" fill="#3D8130"/>
<path d="M29.3363 28.0067L29.3269 27.9973L29.3363 28.0067Z" fill="#3D8130"/>
<path d="M10.3437 15.1437L9.25917 17.2561L8.13695 19.4723L7.34479 21.547L6.81669 23.7537L6.48662 26.1679L6.28859 28.252L6.06226 29.6194L6.28859 30.6851L6.67523 31.5998L7.39195 32.8635L9.0517 33.9008L10.2777 34.3818C10.5794 34.4761 10.9001 34.5704 11.1735 34.6553L12.6258 34.9193L14.7005 35.0136H16.4169C16.6149 35.0136 18.3501 34.9193 18.3595 34.9099L20.5662 34.9476L22.6975 34.6836L23.6217 34.2969L24.2535 33.5425L24.2818 32.5429C24.2441 32.458 24.1215 32.1374 24.0838 32.0148C24.0555 31.9299 23.6311 31.4301 23.2445 30.9963L23.235 30.9868C23.0653 30.7417 22.7918 30.3173 22.7918 30.1758C22.7918 30.0344 22.9616 29.6194 22.9993 29.544L23.0182 29.5063L23.9046 29.2516L24.4893 29.676L25.0174 29.3837L25.6115 28.7896L26.6489 28.0257L27.5919 27.4882L28.3369 27.3467L29.3177 28.0163L29.2517 27.9408L29.6572 27.5825L30.0344 26.9601V26.3094L29.9589 26.1207L29.478 26.5074L28.6198 26.7526H28.601L27.2807 26.7243L25.3663 26.9223L24.7628 26.9883L24.3007 26.9223L23.0653 26.7526L21.6696 26.4885L19.4157 26.1207H19.4063L17.2467 25.2249L15.3512 24.1309L14.1913 23.3482L14.0781 22.7918L14.229 22.2731L14.6911 21.9336L15.7662 22.1788L18.1143 22.905C19.2648 23.1407 21.0189 23.4897 21.1321 23.4991C21.1886 23.4991 21.415 23.5368 21.9808 23.6311C22.5844 23.7254 23.4142 23.8669 23.584 23.8669C23.8763 23.8669 26.1302 23.9895 26.2622 23.9989C26.3848 23.9989 28.2143 23.9612 28.4124 23.9612C28.5444 23.9612 29.2517 23.7254 29.676 23.5745L30.3173 22.8107L30.9303 21.745C30.968 21.4338 30.9303 21.1226 30.8171 20.8303C30.6662 20.4342 30.3833 20.0947 30.025 19.8684C29.8363 20.2267 29.5912 20.4531 29.3082 20.5568C29.2045 20.5945 29.0819 20.6134 28.9687 20.6134C28.799 20.6134 28.6292 20.5757 28.4878 20.5002L28.5821 20.3305C28.7896 20.4342 29.0253 20.4531 29.2517 20.3776C29.5063 20.2833 29.7232 20.057 29.8929 19.7081C29.6855 19.7835 29.4591 19.8307 29.2328 19.8307C29.0913 19.8307 28.9499 19.8212 28.8084 19.7835L28.8273 19.6892L28.8461 19.5949C28.8556 19.5949 29.5817 19.7741 30.1287 19.3497C30.5153 19.0574 30.7322 18.5293 30.77 17.8031L30.1381 18.5481L29.3743 18.897C29.0348 18.9819 27.9031 19.2648 27.7994 19.2648C27.7617 19.2648 27.6108 19.246 27.243 19.18C26.7809 19.1045 26.0925 19.0008 25.9133 19.0008C25.5927 19.0008 25.14 18.6519 25.0928 18.6141L25.0363 18.5764L25.3946 17.5296L26.3848 16.4074L27.4316 15.6624H28.733L29.9589 15.7944L30.487 16.398L30.7417 16.7752V15.7567L29.7232 15.3889C29.61 15.3701 28.601 15.2286 28.3558 15.2286C28.12 15.2286 27.2147 15.3701 27.0638 15.3889L25.753 16.2377L25.6492 16.0773L26.9884 15.2097H27.0072C27.0544 15.2003 28.0729 15.04 28.3463 15.04C28.6104 15.04 29.7043 15.2003 29.7515 15.2097L29.7703 15.2192L30.8737 15.6247L30.9774 15.6813L30.9869 15.6058L30.4682 15.1532L29.5346 14.7005L28.4029 14.6062L27.1015 14.8325L26.5828 15.0589L26.5074 14.8797L27.0544 14.6439L28.3935 14.4082L29.5817 14.5119L29.6289 14.5402L29.2705 13.9838L28.2615 13.0973L28.2709 13.0879L24.3478 13.2011C24.3478 13.2011 23.8386 13.2671 23.2539 13.3425L23.8103 14.1441L24.0932 14.6439L23.9518 15.1437L23.7632 15.0872L23.8857 14.6628L23.6406 14.2384L23.0464 13.3802L23.0842 13.352C22.3486 13.4463 21.5659 13.5406 21.5187 13.5406C21.4338 13.5406 18.2841 13.7763 18.1521 13.7763C17.888 13.7575 17.624 13.7292 17.3693 13.6726C17.3222 13.6443 15.2192 12.8804 15.1438 12.8333C15.0683 12.7861 14.3327 12.0788 14.3327 12.0788L12.8993 11.6356L11.6451 13.1822L10.3437 15.1437ZM25.6492 19.4723C25.8378 19.5572 26.0076 19.6609 26.1868 19.7646L27.2618 19.8872L27.8748 19.7552L27.9125 19.9438L27.2713 20.0758L26.5263 19.991C26.8469 20.2267 27.1392 20.4908 27.4033 20.7926C27.5919 21.0095 27.7617 21.2452 27.9031 21.4904L27.7334 21.5847C27.5636 21.3018 27.3656 21.0283 27.1298 20.7926C26.8186 20.4719 26.4697 20.1796 26.0925 19.9438L25.5455 19.6326L25.6492 19.4723ZM14.8703 15.9453L15.7284 15.1249L16.4734 14.5119L17.5391 14.3044L18.6613 14.2667H19.859L20.8492 14.3044L22.8578 14.3422L23.4897 14.7288L24.263 15.4361L24.7062 15.983L24.9137 17.0958L24.7251 17.1336L24.527 16.0679L24.1215 15.5587L23.3765 14.8797L22.8107 14.5308L21.2358 14.5025L21.9242 14.8797C22.292 15.0683 22.9238 15.4078 22.9899 15.5492C23.037 15.6247 23.5368 16.1151 23.9989 16.5489L24.0083 16.5583L24.7156 17.473L24.8194 18.2275L24.6308 18.2558L24.5364 17.5579L23.8669 16.6903C23.6311 16.4734 22.8956 15.7756 22.8295 15.6435C22.773 15.5681 22.2826 15.2852 21.8488 15.0589L20.8397 14.5025L19.8684 14.4742H18.6802L17.5674 14.5025L16.5772 14.6911L15.8699 15.2663L15.0683 16.0396L14.9834 16.5489L15.1532 16.6998L15.5775 16.4734L16.2754 15.6058L17.5391 15.1249L19.18 14.9551L20.5662 15.0872L22.3675 16.0208L23.1125 16.464L23.8292 17.4165L24.1592 18.4538L24.6402 18.765V19.1894L24.197 19.5949L23.4048 19.925L23.0653 20.2079L22.7069 20.7926L22.5278 21.0849L22.5089 21.0943C22.2731 21.2169 21.8582 21.4338 21.745 21.4338C21.6602 21.4527 21.1321 21.6884 20.6605 21.9242L20.6134 21.9336C20.5757 21.9431 19.7458 22.1977 19.5383 22.2354L19.51 22.0468C19.6892 22.0185 20.4719 21.7828 20.5474 21.7545C21.0189 21.5281 21.6036 21.2546 21.7073 21.2546C21.9337 21.1698 22.1506 21.066 22.3675 20.9434L22.4523 20.802L22.8861 20.0947L22.9899 20.0098C22.6881 19.9815 22.292 19.9344 22.1883 19.8778C22.1411 19.8589 21.8582 19.8212 20.3776 19.8212C20.0098 19.8212 19.1422 19.6232 19.0197 19.5855C18.9253 19.5572 18.0389 19.2931 18.0295 19.2931L18.0106 19.2837L17.9917 19.2648C17.9823 19.2554 17.1619 18.4727 16.5583 18.1237L16.6526 17.954C17.2373 18.2935 17.9823 18.9913 18.1143 19.1139C18.2558 19.1517 18.9914 19.378 19.0857 19.4063C19.1894 19.444 20.0381 19.6326 20.3776 19.6326C22.16 19.6326 22.2354 19.6798 22.2826 19.7175C22.3486 19.7552 22.773 19.8024 23.1313 19.8307L23.1219 19.8967L23.2633 19.7741L24.0555 19.444L24.4044 19.1234V18.8876L24.1592 18.7273L24.1687 18.7556L23.3482 19.0574L22.2166 19.1894C22.16 19.1894 21.9148 19.1988 21.6413 19.1988C21.3207 19.1988 20.9718 19.1894 20.868 19.1517C20.7171 19.1045 19.7647 18.897 19.2931 18.7933H19.2837L19.2743 18.7839C18.6802 18.4632 17.9446 18.0577 17.888 17.954C17.8409 17.8974 17.4731 17.7088 17.1619 17.5579H17.1524L16.1057 16.9449L15.9642 16.9732L15.9453 16.8506L15.6153 16.662L15.106 16.9355L14.7477 16.6243L14.8703 15.9453ZM15.3041 20.4625L15.3512 20.6511L14.71 20.802L14.3893 20.8774L14.3705 20.802L14.3422 20.6888L15.3041 20.4625ZM15.7096 21.3584L15.6624 21.547C15.4455 21.4998 15.2192 21.5093 15.0023 21.547C14.6439 21.613 14.1158 21.8205 13.6066 22.4052L13.4651 22.2826C14.5119 21.0566 15.6624 21.3395 15.7096 21.3584Z" fill="#3D8130"/>
<path d="M17.0016 16.5865C17.0582 16.5771 18.3973 16.4168 18.567 16.4168C18.6331 16.4168 18.8217 16.4356 19.0669 16.4545C19.3969 16.4828 19.9533 16.5299 20.0382 16.5205C20.1702 16.4828 21.4905 16.3696 21.6414 16.3507L22.4241 16.2942L22.2638 16.1999L20.5003 15.2851L19.1706 15.1531L17.5674 15.3134L16.3792 15.7661L15.7756 16.5205L16.1623 16.7468L17.0016 16.5865Z" fill="#3D8130"/>
<path d="M21.6505 16.5488C21.0659 16.6054 20.17 16.6903 20.0757 16.7092C19.9908 16.728 19.689 16.7092 19.0477 16.6526C18.8308 16.6337 18.6234 16.6148 18.5668 16.6148C18.4348 16.6148 17.4163 16.7374 17.0296 16.7752L16.4072 16.8883L17.256 17.3881C17.52 17.5107 17.9727 17.7371 18.0481 17.8502C18.1236 17.9257 18.7648 18.2935 19.3589 18.6141C19.5098 18.6424 20.7547 18.9159 20.9433 18.9819C21.0753 19.029 21.8014 19.0196 22.2258 19.0102L23.3386 18.8781L24.0081 18.6235L23.9704 18.6047L23.6309 17.5296L22.9614 16.6337L22.5653 16.3979L22.5747 16.4923L21.6505 16.5488Z" fill="#3D8130"/>
<path d="M30.3645 16.4734L29.893 15.9453L28.7425 15.8132H27.5165L26.5263 16.5205L25.5833 17.5862L25.2815 18.4632C25.4324 18.5763 25.7342 18.765 25.9322 18.765C26.1302 18.765 26.7715 18.8687 27.2902 18.9536C27.5354 18.9913 27.7806 19.029 27.8183 19.029C27.9032 19.0196 28.7896 18.8027 29.3366 18.6706L30.0344 18.35L30.5908 17.7087L30.5437 17.407L28.8273 16.7091L26.63 16.6431L26.6395 16.4545L28.8745 16.5205L30.7228 17.2749L30.7983 17.7559C30.7983 17.7276 30.7983 17.6993 30.7983 17.671V17.1429L30.3645 16.4734Z" fill="#3D8130"/>
<path d="M28.3085 27.5354L27.6673 27.658L26.7619 28.1767L25.7435 28.9311L25.4605 29.214L26.1018 29.6667L26.149 30.025L25.7152 30.4588L25.5831 30.3268L25.9509 29.959L25.9321 29.7798L25.3285 29.3555L25.1493 29.5347L24.7721 29.7421L24.6684 30.2514L25.1965 30.7135L25.9604 30.6852C26.1018 30.5814 26.3376 30.4305 26.4507 30.4211C26.5639 30.3551 26.6771 30.2797 26.7808 30.1948C27.0354 29.9967 27.1392 29.9307 27.2146 29.9307C27.4409 29.8176 27.6578 29.695 27.8653 29.5535L27.8936 29.5347L28.8178 29.6384L29.1384 29.959L29.0724 30.025C28.8744 30.2419 28.648 30.5248 28.6386 30.5909C28.6386 30.638 28.6292 30.6852 28.6103 30.7229L28.8272 30.6003L29.8457 29.8741L29.9589 30.0345L28.9215 30.77L28.4406 31.0341C28.4217 31.0624 28.4028 31.0907 28.3934 31.1001L28.3557 31.0718L27.6201 31.4773L27.1109 32.2129L26.9317 32.6467L27.2995 33.1654L27.705 33.6275L28.1859 33.684L28.6292 33.5897L28.6197 33.4954L29.1101 32.7221L30.0343 31.8262L30.1663 31.9677L29.2516 32.8542L28.8083 33.5426L28.8366 34.0613L29.3082 34.3819L29.9306 34.4479L30.2795 34.3442L30.2135 34.2404L30.2606 34.1838C30.2795 34.1556 30.7887 33.5803 30.8925 33.486C30.9679 33.4106 31.4017 32.9107 31.6186 32.6655L31.7601 32.7881C31.7318 32.8164 31.1282 33.5237 31.0245 33.618C30.949 33.6935 30.5813 34.099 30.4492 34.2499L30.7793 34.7402H31.3357L31.8166 34.5233L32.2127 33.9387L32.7408 33.3728L32.8823 33.5049L32.3542 34.0613L31.9487 34.6742L31.3734 34.9288H30.6756L30.3832 34.4951L29.94 34.6271L29.2327 34.5611L28.648 34.1556L28.6292 33.7783L28.1859 33.8726L27.6013 33.7972L27.158 33.288L26.4979 32.8919L25.8095 32.128L25.6397 30.9398L25.8283 30.9115L25.9698 31.93L26.7902 31.2793L27.6767 30.4305L28.1859 29.7327L27.9407 29.7044C27.6673 29.8836 27.3466 30.0816 27.2335 30.1005C27.1203 30.1665 27.0071 30.2419 26.9034 30.3268C26.6393 30.5248 26.5356 30.5909 26.4696 30.5909C26.3281 30.6569 26.1867 30.7417 26.0641 30.836L26.0358 30.8549L25.1399 30.8926L24.4704 30.2985L24.5647 29.8459L24.4986 29.8836L23.8951 29.4498L23.1878 29.6572C23.1124 29.827 23.0558 29.9967 23.0181 30.1759C23.0275 30.2514 23.235 30.6003 23.4236 30.8738C23.6782 31.1567 24.2629 31.8262 24.3006 31.9677C24.3289 32.0714 24.4515 32.3732 24.4986 32.4864L24.5081 32.5052L24.4798 33.7878L24.8476 34.3347C25.0362 34.4479 26.4224 35.2589 26.5828 35.3532C26.6959 35.4192 27.6956 35.7021 28.3085 35.8719L30.3738 36.0699L32.0335 35.8436L33.4575 35.1929L34.2308 34.4479L34.0517 33.7878L33.0992 32.0148L32.4108 30.9681L31.2131 29.6667L29.4496 28.6953L29.1856 28.1295L28.3085 27.5354Z" fill="#3D8130"/>
<path d="M29.8079 23.716L29.7796 23.7254C29.591 23.7914 28.6291 24.1309 28.4216 24.1309C28.2236 24.1309 26.2903 24.1592 26.2715 24.1687C26.2432 24.1687 23.8856 24.0366 23.5932 24.0366C23.4046 24.0366 22.6408 23.914 21.9618 23.8009C21.5845 23.7349 21.1979 23.6783 21.1413 23.6783C21.0093 23.6783 18.5668 23.1785 18.0764 23.0842H18.067L15.7188 22.358L14.7381 22.1411L14.3986 22.3957L14.2854 22.8012L14.3703 23.235L15.4642 23.9706L17.3409 25.0551L19.4721 25.9416L21.7071 26.2999L23.1028 26.564L24.772 26.7903L27.2805 26.5263H27.2899L28.6008 26.5546L29.3929 26.3282L30.0625 25.7907L30.6095 24.9514L30.7321 24.5647L30.5529 24.1309C29.7607 24.8476 29.6758 24.8759 29.6287 24.8854L28.8177 25.0834L26.5638 25.1871H26.5544L24.1968 25.0551L21.858 24.6307L19.9719 24.6685H19.9625L18.001 24.1687L16.2658 23.5651L15.3416 22.9993L15.4453 22.839L16.3601 23.3954L18.067 23.9895L20.0002 24.4799L21.8863 24.4421H21.8958L24.2345 24.8665L26.5732 24.9985L28.8082 24.9042L29.591 24.7062C29.6381 24.6873 29.9022 24.4799 30.4586 23.9706C30.534 23.9046 30.5812 23.8575 30.6 23.8386L31.3167 22.8578L31.5619 22.3957C31.5242 22.2354 31.4865 22.0845 31.4676 21.9242C31.3733 21.7733 31.2696 21.6413 31.147 21.5093C31.147 21.5942 31.147 21.679 31.1281 21.7639V21.7828L30.4774 22.905L29.8079 23.716Z" fill="#983B1F"/>
<path d="M34.2026 33.7216L33.2407 31.9298L32.5428 30.8642L31.3357 29.5156L29.5911 28.5632L29.3365 28.0162L29.2893 28.0445C29.2893 28.0445 29.4496 28.6292 29.5628 28.6858C29.676 28.7424 31.1848 29.5156 31.2603 29.5534C31.3357 29.5911 32.6466 31.1565 32.6466 31.1565L33.7028 32.9955L34.3346 34.41C34.3346 34.41 33.5236 35.2399 33.4764 35.2493C33.4293 35.2588 31.8638 36.0226 31.8167 36.0226C31.7695 36.0226 30.2512 36.1924 30.1664 36.1735C30.0815 36.1452 28.2143 35.9849 28.0728 35.9755C27.9219 35.9661 26.1962 35.2776 26.1962 35.2776L24.7061 34.3817L24.2818 33.7216L23.6877 34.3912C23.6877 34.3912 22.8484 34.8155 22.7352 34.8155C22.622 34.8155 20.5662 35.089 20.4059 35.089H16.2659C16.2659 35.089 12.1731 35.0136 11.9939 34.9287C11.9374 34.9004 11.6073 34.7967 11.1735 34.6552L10.8246 34.5892L10.2776 34.3817C9.60804 34.1743 9.0045 33.9951 9.0045 33.9951L7.31645 32.9012C7.31645 32.9012 6.60917 31.6752 6.58088 31.6092C6.55259 31.5432 6.11879 30.5153 6.11879 30.4681C6.11879 30.421 5.9679 29.6005 5.9679 29.6005L6.26967 27.7239L6.4017 25.7529L6.72233 23.6028C6.72233 23.6028 7.25987 21.4432 7.2693 21.3489C7.27873 21.2452 8.14633 19.1139 8.14633 19.1139L9.06108 17.4636L10.2682 14.9739L11.5979 13.0973L12.8898 11.5601L12.9747 11.5884L12.8238 11.4658L11.5696 13.0218L10.1739 15.0494L9.07994 17.1807L7.95772 19.3874L7.15613 21.4809L6.6186 23.7065L6.28854 26.1396L6.0905 28.2237L5.85474 29.6288L6.0905 30.7416L6.49601 31.6846L7.24101 33.0049L8.94791 34.08L10.7491 34.7872L12.5881 35.1267L14.691 35.2305H16.4074C16.6054 35.2305 18.2557 35.1362 18.3595 35.1267L20.5756 35.1645H20.5851L22.7446 34.9004H22.754L23.7442 34.4855L24.2535 33.8725L24.6779 34.5043L24.6967 34.5138C24.7156 34.5232 26.2905 35.4379 26.4508 35.5417C26.6205 35.6454 28.0634 36.0415 28.2331 36.0792L30.3455 36.2773L32.043 36.0415H32.0524L33.5236 35.3719L33.5424 35.3625L34.4195 34.5138L34.2026 33.7216Z" fill="black"/>
<path d="M11.598 13.0973L10.2683 14.974L9.0612 17.4636L8.14645 19.1139C8.14645 19.1139 7.27885 21.2452 7.26942 21.349C7.25999 21.4527 6.72245 23.6028 6.72245 23.6028L6.40182 25.753L6.26979 27.7239L5.96802 29.6006C5.96802 29.6006 6.1189 30.421 6.1189 30.4682C6.1189 30.5153 6.5527 31.5432 6.58099 31.6093C6.60929 31.6753 7.31657 32.9012 7.31657 32.9012L9.00461 33.9951C9.00461 33.9951 9.60816 34.1743 10.2777 34.3818L9.05176 33.9008L7.39201 32.8635L6.6753 31.5998L6.28865 30.6851L6.06232 29.6194L6.28865 28.252L6.48669 26.1679L6.81676 23.7537L7.34486 21.547L8.13701 19.4723L9.25923 17.2562L10.3437 15.1437L11.73 13.1351L12.9843 11.5885L12.8994 11.5602L11.598 13.0973Z" fill="black"/>
<path d="M28.3462 27.3373L27.6012 27.4787L26.6582 28.0163L25.6208 28.7801L25.0267 29.3743L24.4986 29.6666L23.9139 29.2422L23.0275 29.4968L23.0086 29.5346C22.9709 29.6194 22.8011 30.025 22.8011 30.1664C22.8011 30.3079 23.0841 30.7417 23.2444 30.9774L23.2538 30.9869C23.6404 31.4207 24.0648 31.9205 24.0931 32.0053C24.1214 32.1279 24.2534 32.4486 24.2911 32.5334L24.2629 33.5331L23.631 34.2875L22.7068 34.6741L20.5756 34.9382L18.3688 34.9005C18.35 34.9005 16.6148 35.0042 16.4262 35.0042H14.7098L12.6351 34.9099L11.1829 34.6459C11.6072 34.7779 11.9467 34.891 12.0033 34.9193C12.1731 35.0042 16.2753 35.0797 16.2753 35.0797H20.4152C20.5756 35.0797 22.6408 34.8062 22.7446 34.8062C22.8577 34.8062 23.697 34.3818 23.697 34.3818L24.2911 33.7122L24.7155 34.3724L26.2055 35.2683C26.2055 35.2683 27.9313 35.9473 28.0822 35.9661C28.2331 35.9755 30.0909 36.1359 30.1757 36.1642C30.2606 36.1924 31.7789 36.0133 31.826 36.0133C31.8732 36.0133 33.4387 35.2588 33.4858 35.24C33.533 35.2305 34.344 34.4007 34.344 34.4007L33.7121 32.9861L32.6559 31.1472C32.6559 31.1472 31.3451 29.5817 31.2697 29.544C31.1942 29.5063 29.6853 28.733 29.5722 28.6764C29.459 28.6198 29.2987 28.0351 29.2987 28.0351L29.3458 28.0068V27.9974L28.3462 27.3373ZM29.4402 28.6953L31.2036 29.6666L32.3824 30.968L33.0709 32.0148L34.0233 33.7877L34.2025 34.4478L33.4292 35.1928L32.0052 35.8435L30.3455 36.0698L28.2802 35.8718C27.6672 35.7021 26.6676 35.4192 26.5544 35.3531C26.3941 35.2588 25.0079 34.4478 24.8192 34.3347L24.4515 33.7877L24.4798 32.5052V32.4957C24.4326 32.3826 24.31 32.0808 24.2817 31.977C24.244 31.8356 23.6593 31.166 23.4047 30.8831C23.2161 30.6002 22.9992 30.2513 22.9992 30.1853C23.0369 30.0061 23.0935 29.8363 23.1689 29.6666L23.8762 29.4591L24.4798 29.8929L24.5458 29.8552L24.4515 30.3079L25.121 30.902L26.0169 30.8643L26.0452 30.8454C26.1678 30.7511 26.3093 30.6662 26.4507 30.6002C26.5262 30.6002 26.6205 30.5342 26.8845 30.3362C26.9882 30.2513 27.1014 30.1758 27.2146 30.1098C27.3277 30.1004 27.6578 29.8929 27.9219 29.7137L28.167 29.742L27.6578 30.4399L26.7713 31.2886L25.9509 31.9393L25.8094 30.9208L25.6208 30.9491L25.7906 32.1374L26.479 32.9012L27.1391 33.2973L27.5824 33.8065L28.167 33.882L28.6103 33.7877L28.6291 34.1649L29.2138 34.5704L29.9211 34.6364L30.3643 34.5044L30.6567 34.9382H31.3545L31.9298 34.6836L32.3353 34.0706L32.8634 33.5142L32.7219 33.3822L32.1938 33.948L31.7978 34.5327L31.3168 34.7496H30.7604L30.4303 34.2592C30.5624 34.1083 30.9302 33.7028 31.0056 33.6274C31.1093 33.5236 31.7129 32.8258 31.7412 32.7975L31.5997 32.6749C31.3828 32.9295 30.949 33.4199 30.8736 33.4953C30.7698 33.5991 30.2606 34.1743 30.2417 34.1932L30.1946 34.2498L30.2606 34.3535L29.9117 34.4572L29.2893 34.3912L28.8177 34.0706L28.7895 33.5519L29.2327 32.8635L30.1474 31.977L30.0154 31.8356L29.0912 32.7315L28.6008 33.5048L28.6103 33.5991L28.167 33.6934L27.6861 33.6368L27.2806 33.1747L26.9128 32.656L27.092 32.2222L27.6012 31.4867L28.3368 31.0812L28.3745 31.1094C28.3839 31.0906 28.4028 31.0717 28.4217 31.0434L28.9026 30.7794L29.94 30.0438L29.8268 29.8835L28.8083 30.6096L28.5914 30.7322C28.6103 30.6945 28.6197 30.6474 28.6197 30.6002C28.6291 30.5248 28.8555 30.2513 29.0535 30.0344L29.1195 29.9684L28.7989 29.6477L27.8747 29.544L27.8464 29.5629C27.6389 29.7043 27.422 29.8363 27.1957 29.9401C27.1203 29.9401 27.0165 30.0155 26.7619 30.2041C26.6582 30.289 26.545 30.3644 26.4319 30.4305C26.3187 30.4399 26.0924 30.5908 25.9415 30.6945L25.1776 30.7228L24.6495 30.2607L24.7532 29.7515L25.1305 29.544L25.3096 29.3648L25.9132 29.7892L25.932 29.9684L25.5643 30.3362L25.6963 30.4682L26.1301 30.0344L26.0829 29.676L25.4417 29.2234L25.7246 28.9405L26.7431 28.186L27.6484 27.6673L28.2896 27.5448L29.1572 28.1389L29.4402 28.6953ZM26.8562 32.9107L26.6016 32.7598L26.0358 32.1374L26.9034 31.4584L27.7993 30.5908L28.3839 29.7798L28.714 29.8175L28.8555 29.9589C28.6763 30.157 28.4311 30.4493 28.4311 30.5813C28.4028 30.6945 28.3462 30.7982 28.2802 30.8831L27.4598 31.3358L26.9128 32.1185L26.6865 32.6843L26.8562 32.9107Z" fill="black"/>
<path d="M29.1668 13.6915L29.6477 14.3233C29.6477 14.3233 29.8835 14.6911 29.9684 14.7194C30.0533 14.7477 30.836 15.2003 30.836 15.2003L31.1566 15.5587L31.0906 15.7662L30.8454 15.6907L30.8831 16.9073H30.9586V15.8133L31.1755 15.9359L31.2321 15.4738L30.6191 14.9363L29.9589 14.6157L29.9872 14.5968L29.478 13.7952L28.4501 12.8899L28.3369 13.0219H28.4406L29.1668 13.6915Z" fill="black"/>
<path d="M30.7698 18.6613C30.7698 18.6613 30.4208 19.3591 30.3831 19.378C30.3454 19.4063 30.0342 19.5383 30.0342 19.5383L30.0625 19.708C30.2039 19.8118 30.3454 19.9249 30.468 20.0475C30.4868 20.0758 30.6943 20.4908 30.8641 20.802H31.0338C30.8735 20.3304 30.5529 19.9249 30.1285 19.6703C30.1473 19.6326 30.1662 19.5854 30.1851 19.5477C30.2134 19.5289 30.2511 19.51 30.2794 19.4817C30.7415 19.1328 30.9772 18.5292 31.0055 17.6805V17.0864L30.8923 16.9166L30.9206 17.8314L30.7698 18.6613Z" fill="black"/>
<path d="M29.3366 13.9366L29.6949 14.493L29.6478 14.4647L28.4595 14.361L27.1204 14.5968L26.5734 14.8325L26.6489 15.0117L27.1676 14.7854L28.469 14.559L29.6006 14.6533L30.5342 15.106L31.0529 15.5587L31.0435 15.6341L30.9397 15.5775L29.8364 15.172L29.8175 15.1626C29.7704 15.1532 28.6859 14.9928 28.4124 14.9928C28.1389 14.9928 27.1204 15.1532 27.0733 15.1626H27.0544L25.7153 16.0302L25.819 16.1905L27.1298 15.3418C27.2807 15.3229 28.186 15.1814 28.4218 15.1814C28.667 15.1814 29.676 15.3323 29.7892 15.3418L30.8077 15.7095V16.7469L30.5531 16.3697L30.025 15.7661L28.799 15.6341H27.4976L26.4508 16.3791L25.4606 17.5013L25.1023 18.5481L25.1589 18.5858C25.206 18.6235 25.6587 18.9725 25.9793 18.9725C26.1585 18.9725 26.8564 19.0856 27.309 19.1517C27.6768 19.2082 27.8277 19.2365 27.8654 19.2365C27.9691 19.2365 29.1008 18.9536 29.4403 18.8687L30.2042 18.5198L30.836 17.7748C30.7983 18.501 30.5814 19.0291 30.1947 19.3214C29.6383 19.7458 28.9122 19.5666 28.9122 19.5666L28.8933 19.6609L28.8745 19.7552C29.0159 19.7835 29.1574 19.8024 29.2988 19.8024C29.5252 19.8024 29.7515 19.7646 29.959 19.6798C29.7892 20.0287 29.5723 20.255 29.3177 20.3493C29.1008 20.4248 28.8556 20.4059 28.6481 20.3022L28.5538 20.4719C28.7047 20.5474 28.8745 20.5851 29.0348 20.5851C29.1479 20.5851 29.2611 20.5662 29.3743 20.5285C29.6572 20.4248 29.8929 20.1984 30.091 19.8401C30.4493 20.0664 30.7323 20.4059 30.8831 20.802H30.9114C30.7511 20.4908 30.5342 20.0758 30.5154 20.0475C30.3833 19.9249 30.2513 19.8118 30.1098 19.708L30.0816 19.5383C30.0816 19.5383 30.3928 19.4063 30.4305 19.378C30.4682 19.3497 30.8171 18.6613 30.8171 18.6613L30.968 17.8408L30.9397 16.9261L30.902 15.7095L31.1472 15.785L31.2132 15.5775L30.8926 15.2192C30.8926 15.2192 30.1098 14.7571 30.025 14.7382C29.9401 14.7099 29.7043 14.3421 29.7043 14.3421L29.2234 13.7103L28.4878 13.0502H28.3841L28.3746 13.0596L29.3366 13.9366ZM30.8077 17.7559L30.7323 17.275L28.8839 16.5206L26.6489 16.4546L26.6395 16.6432L28.8367 16.7092L30.5531 17.407L30.6002 17.7088L30.0438 18.3501L29.346 18.6707C28.799 18.8027 27.9126 19.0196 27.8277 19.0291C27.79 19.0291 27.5448 18.9913 27.2996 18.9536C26.7809 18.8687 26.1396 18.765 25.9416 18.765C25.753 18.765 25.4512 18.5764 25.2909 18.4632L25.5927 17.5862L26.5357 16.5206L27.5259 15.8133H28.7519L29.9024 15.9453L30.3739 16.4734L30.8171 17.143V17.6711C30.8077 17.6994 30.8077 17.7277 30.8077 17.7559Z" fill="black"/>
<path d="M24.7817 26.9696L25.3852 26.9036H24.3196L24.7817 26.9696Z" fill="black"/>
<path d="M30.1474 26.9413C30.1191 26.9884 29.5721 27.8749 29.5721 27.8749L29.3269 28.0069L29.3835 28.0729L29.8173 27.6957L30.2322 26.9979V26.9036H30.1474C30.1568 26.9224 30.1568 26.9319 30.1474 26.9413Z" fill="black"/>
<path d="M30.1475 26.9413C30.1475 26.9319 30.157 26.913 30.157 26.9036H30.0532V26.9413L29.676 27.5637L29.2705 27.922L29.3365 27.9975L29.346 28.0069L29.5911 27.8749C29.5817 27.8749 30.1287 26.9979 30.1475 26.9413Z" fill="black"/>
<path d="M31.0529 21.1604L31.1377 21.283C31.1189 21.1226 31.0906 20.9623 31.034 20.802H30.8643C30.968 21 31.0529 21.1604 31.0529 21.1604Z" fill="black"/>
<path d="M31.6659 22.2166C31.6564 22.2637 31.5433 22.6409 31.515 22.6975C31.4867 22.7635 30.6002 23.9801 30.6002 23.9801L30.8077 24.4044C30.8077 24.4044 30.8454 24.7062 30.8171 24.7534C30.7888 24.8005 30.0061 26.017 30.0061 26.017L30.1287 26.3565C30.1287 26.3565 30.157 26.7809 30.1476 26.9129H30.2324V26.2622L30.1287 25.9793L30.2136 25.9133L30.7888 25.0268L30.9397 24.5459L30.7134 23.9895C30.7322 23.9706 30.7417 23.9612 30.7417 23.9612L31.4772 22.9521L31.7696 22.4146L31.7602 22.3769C31.7224 22.226 31.6847 22.0657 31.6659 21.9054C31.6659 21.8676 31.6659 21.7639 31.1755 21.2452L31.1378 21.283L31.4301 21.6979C31.4301 21.6979 31.6753 22.1694 31.6659 22.2166Z" fill="black"/>
<path d="M30.8644 20.802H30.8361C30.9492 21.0943 30.987 21.4056 30.9492 21.7168L30.3268 22.7824L29.6856 23.5463C29.2518 23.6971 28.5445 23.9329 28.4219 23.9329C28.2238 23.9329 26.3943 23.9612 26.2717 23.9706C26.1303 23.9612 23.8859 23.8386 23.5935 23.8386C23.4238 23.8386 22.5939 23.7066 21.9903 23.6028C21.4339 23.5085 21.1982 23.4708 21.1416 23.4708C21.019 23.4614 19.2744 23.1125 18.1239 22.8767L15.7757 22.1506L14.7006 21.9054L14.2385 22.2449L14.0876 22.7635L14.2008 23.3199L15.3608 24.1026L17.2563 25.1966L19.4158 26.0925H19.4253L21.6791 26.4603L23.0748 26.7243L24.3102 26.8941H25.3853L27.2997 26.696L28.6199 26.7243H28.6388L29.497 26.4791L29.9779 26.0925L30.0533 26.2811V26.8941H30.1571C30.1665 26.762 30.1382 26.3377 30.1382 26.3377L30.0156 25.9982C30.0156 25.9982 30.7983 24.7816 30.8266 24.7345C30.8549 24.6873 30.8172 24.3856 30.8172 24.3856L30.6097 23.9612C30.6097 23.9612 31.5056 22.7447 31.5245 22.6787C31.5528 22.6126 31.6565 22.2449 31.6754 22.1977C31.6848 22.1506 31.4396 21.679 31.4396 21.679L31.1473 21.2641L31.0624 21.1415C31.053 21.1604 30.9681 21 30.8644 20.802ZM31.1378 21.7639C31.1473 21.679 31.1567 21.5942 31.1567 21.5093C31.2793 21.6319 31.383 21.7733 31.4773 21.9242C31.4962 22.0845 31.5245 22.2449 31.5716 22.3957L31.3265 22.8578L30.6097 23.8386C30.5909 23.8575 30.5343 23.9046 30.4683 23.9706C29.9119 24.4799 29.6573 24.6779 29.6007 24.7062L28.818 24.9042L26.583 24.9985L24.2442 24.8665L21.9055 24.4421H21.896L20.01 24.4799L18.0767 23.9895L16.3698 23.3954L15.4551 22.839L15.3513 22.9993L16.2755 23.5651L18.0107 24.1687L19.9722 24.6685H19.9817L21.8677 24.6308L24.2065 25.0551L26.5641 25.1871H26.5735L28.8274 25.0834L29.6384 24.8854C29.6761 24.8759 29.7704 24.8477 30.5626 24.1309L30.7418 24.5647L30.6192 24.9514L30.0722 25.7907L29.4026 26.3282L28.6105 26.5546L27.2997 26.5263H27.2902L24.7817 26.7903L23.1126 26.564L21.7169 26.2999L19.4818 25.9416L17.3506 25.0551L15.4739 23.9706L14.38 23.235L14.2951 22.8013L14.4083 22.3957L14.7478 22.1411L15.7285 22.358L18.0767 23.0842H18.0861C18.5765 23.1879 21.0096 23.6783 21.151 23.6783C21.1982 23.6783 21.5943 23.7443 21.9715 23.8009C22.6505 23.914 23.4143 24.0366 23.6029 24.0366C23.8953 24.0366 26.2529 24.1687 26.2812 24.1687C26.3 24.1687 28.2333 24.1309 28.4313 24.1309C28.6388 24.1309 29.6007 23.7914 29.7893 23.7254L29.8176 23.716L30.4966 22.905L31.1473 21.7828L31.1378 21.7639Z" fill="black"/>
<path d="M15.0022 21.5469C15.2191 21.4998 15.4455 21.4998 15.6624 21.5469L15.7095 21.3583C15.6624 21.3489 14.5119 21.0566 13.4651 22.2825L13.6065 22.4051C14.1158 21.811 14.6439 21.6129 15.0022 21.5469Z" fill="black"/>
<path d="M14.7006 20.802L15.3419 20.6511L15.3042 20.4625L14.3423 20.6889L14.3706 20.802H14.7006Z" fill="black"/>
<path d="M14.3895 20.8774L14.7007 20.802H14.3706L14.3895 20.8774Z" fill="black"/>
<path d="M26.1115 19.9532C26.4887 20.1984 26.8376 20.4813 27.1489 20.8019H27.4129C27.1489 20.5002 26.8565 20.2361 26.5359 20.0004L27.2809 20.0852L27.9221 19.9532L27.8844 19.7646L27.2715 19.8966L26.1964 19.774C26.0266 19.6609 25.8475 19.5666 25.6588 19.4817L25.574 19.6514L26.1115 19.9532Z" fill="black"/>
<path d="M27.7428 21.5942L27.9125 21.4999C27.7711 21.2547 27.6013 21.0189 27.4127 20.802H27.1487C27.375 21.0472 27.5731 21.3112 27.7428 21.5942Z" fill="black"/>
<path d="M15.6155 16.662L15.9455 16.8506L15.9644 16.9732L16.1058 16.9449L17.1526 17.5579H17.1621C17.4733 17.7088 17.841 17.8974 17.8882 17.954C17.9542 18.0483 18.6803 18.4538 19.2745 18.7839L19.2839 18.7933H19.2933C19.7743 18.897 20.7173 19.1045 20.8682 19.1516C20.9814 19.1894 21.3303 19.1988 21.6415 19.1988C21.915 19.1988 22.1696 19.1894 22.2168 19.1894L23.3484 19.0573L24.1689 18.7556L24.1594 18.7273L24.4046 18.8876V19.1234L24.0557 19.444L23.2635 19.7741L23.1221 19.8967L23.1315 19.8306C22.7732 19.8023 22.3488 19.7458 22.2828 19.7175C22.2356 19.6892 22.1602 19.6326 20.3778 19.6326C20.0383 19.6326 19.1896 19.444 19.0859 19.4063C18.9916 19.378 18.256 19.1517 18.1145 19.1139C17.9919 18.9913 17.2469 18.3029 16.6528 17.954L16.5585 18.1237C17.1715 18.4821 17.9919 19.2554 17.9919 19.2648L18.0108 19.2837L18.0297 19.2931C18.0391 19.2931 18.9255 19.5572 19.0198 19.5854C19.133 19.6232 20.0006 19.8212 20.3778 19.8212C21.8584 19.8212 22.1319 19.8589 22.1885 19.8778C22.2922 19.9344 22.6883 19.9815 22.9901 20.0098L22.8863 20.0947L22.4525 20.802H22.6788L23.0372 20.2173L23.3767 19.9344L24.1689 19.6043L24.6121 19.1988V18.7744L24.1311 18.4632L23.8011 17.4259L23.0844 16.4734L22.3394 16.0302L20.5381 15.0966L19.1519 14.9645L17.511 15.1343L16.2473 15.6152L15.5495 16.4828L15.1251 16.7092L14.9553 16.5583L15.0402 16.049L15.8418 15.2757L16.5491 14.7005L17.5393 14.5119L18.6521 14.4836H19.8403L20.8116 14.5119L21.8207 15.0683C22.2545 15.2946 22.7543 15.5775 22.8014 15.653C22.8675 15.785 23.603 16.4828 23.8388 16.6997L24.5083 17.5673L24.6027 18.2652L24.7913 18.2369L24.6875 17.4825L23.9802 16.5677L23.9708 16.5583C23.5087 16.1339 23.0089 15.6435 22.9618 15.5587C22.8957 15.4172 22.2639 15.0777 21.8961 14.8891L21.2077 14.5119L22.7826 14.5402L23.3484 14.8891L24.0934 15.5681L24.4989 16.0773L24.697 17.143L24.8856 17.1052L24.6781 15.9925L24.2349 15.4455L23.4616 14.7382L22.8297 14.3516L20.8211 14.3138L19.8309 14.2761H18.6332L17.511 14.3138L16.4453 14.5213L15.7003 15.1343L14.8422 15.9547L14.729 16.6337L15.0874 16.9449L15.6155 16.662ZM22.9712 16.6243L23.6408 17.5202L23.9802 18.5953L24.018 18.6141L23.3484 18.8687L22.2356 19.0008C21.8113 19.0102 21.0851 19.0196 20.9531 18.9725C20.7645 18.9065 19.5197 18.6424 19.3688 18.6047C18.7747 18.2841 18.124 17.9163 18.0579 17.8408C17.9825 17.7371 17.5298 17.5108 17.2658 17.3787L16.417 16.8789L17.0395 16.7658C17.4261 16.7186 18.4446 16.6054 18.5766 16.6054C18.6332 16.6054 18.8407 16.6243 19.0576 16.6432C19.6988 16.6997 20.0006 16.7186 20.0855 16.6997C20.1798 16.6809 21.0757 16.5866 21.6604 16.5394L22.5845 16.4734L22.5751 16.3791L22.9712 16.6243ZM16.3699 15.7756L17.5581 15.3229L19.1613 15.1626L20.491 15.2946L22.2545 16.2094L22.4148 16.3037L21.6321 16.3602C21.4812 16.3697 20.1609 16.4923 20.0289 16.53C19.944 16.5489 19.3971 16.4923 19.0576 16.464C18.8124 16.4451 18.6238 16.4263 18.5578 16.4263C18.388 16.4263 17.0489 16.5866 16.9923 16.596L16.1436 16.7563L15.7569 16.53L16.3699 15.7756Z" fill="black"/>
<path d="M22.3674 20.9435C22.1505 21.0661 21.9336 21.1604 21.7073 21.2547C21.6036 21.2547 21.0189 21.5282 20.5474 21.7545C20.4625 21.7828 19.6892 22.0186 19.51 22.0469L19.5383 22.2355C19.7363 22.1977 20.5756 21.9431 20.6134 21.9337L20.6228 21.9243C21.0943 21.6979 21.6319 21.4527 21.7073 21.4339C21.8205 21.4244 22.2354 21.217 22.4712 21.0944L22.49 21.0849L22.6692 20.7926H22.4429L22.3674 20.9435Z" fill="black"/>
<path d="M23.2727 13.22L23.1501 13.3048C23.2067 13.2954 23.2633 13.2954 23.3199 13.286L23.2727 13.22Z" fill="black"/>
<path d="M23.7162 14.1913L23.9614 14.6157L23.8388 15.04L24.0274 15.0966L24.1688 14.5968L23.8859 14.097L23.3295 13.2954C23.273 13.3048 23.2164 13.3048 23.1598 13.3143L23.1221 13.3426L23.7162 14.1913Z" fill="black"/>
<path d="M29.4873 13.9649L30.3266 13.8801C30.3266 13.8801 32.4202 14.5025 32.5051 14.5873C32.5899 14.6722 33.6461 15.1343 33.6461 15.1343L34.2685 15.1909L34.3534 14.6251L33.8913 13.9649L32.5616 12.9842L31.0433 12.2486L30.0909 11.9185L29.7514 7.10901L28.9498 5.91135L27.7521 4.93058L26.2055 4.16672L24.6024 4.13843L21.5846 4.51564L18.8121 5.06261L18.6518 4.59109C18.4349 4.5345 18.218 4.49678 18.0011 4.46849C17.8408 4.46849 16.3696 4.92115 16.3696 4.92115L15.4737 5.39267L15.2851 5.93964L14.0026 6.64692L12.9652 7.94832L12.3711 9.20256C12.3711 9.20256 12.0693 10.4568 12.0693 10.5323C12.0693 10.6077 12.2297 11.2961 12.3428 11.3433C12.456 11.3904 13.2953 11.6168 13.2953 11.6168L14.3987 12.1637L15.9924 13.0879L17.9728 13.7386C17.9728 13.7386 19.8494 13.6066 20.038 13.6066C20.2266 13.6066 23.0558 13.3048 23.2161 13.3048C23.3764 13.3048 26.479 13.0596 26.5639 13.0596C26.6488 13.0596 28.4971 13.0313 28.4971 13.0313L29.2327 13.682L29.4873 13.9649Z" fill="#C82727"/>
<path d="M28.7519 16.6338L28.9971 17.1525L29.148 17.7466L29.0726 18.1238L28.7519 18.9443L27.7335 19.114L26.0926 18.8217L25.8945 18.2464L25.97 17.7278L26.1397 16.9073L26.5641 16.4358L26.8376 16.5867L28.6482 16.6338" fill="black"/>
<path d="M21.2832 16.5583L21.5849 17.1336L21.6132 17.8314L21.4623 18.4538L21.1417 18.9536L20.623 18.9819L18.6332 18.3878L17.8411 17.69L17.9448 17.2467L18.2183 16.8224L18.5861 16.53L19.9818 16.5678C19.9629 16.5583 21.2266 16.6621 21.2832 16.5583Z" fill="black"/>
<path d="M34.0989 14.0404L33.3256 13.3614L32.2128 12.6164L30.3833 11.9469L30.1287 11.8431L30.0532 10.2682C29.9589 9.49494 29.8269 8.32557 29.8269 8.23127C29.8269 8.09924 29.7609 7.13734 29.7609 7.09962V7.08076L29.2139 6.09056L28.2992 5.14752L26.894 4.34593L25.7247 4.01587H24.1215L22.5466 4.21391C21.9148 4.31764 20.9246 4.47796 20.8114 4.47796C20.6417 4.47796 19.3214 4.77973 19.1705 4.80802L18.7084 4.93062L18.7839 4.8929L18.633 4.59112L18.1426 4.40252L17.4259 4.46853L16.2754 4.75144L15.4078 5.30784L15.2286 5.76993L15.3512 5.81708L14.8702 5.93967H14.8514L13.8329 6.58094L13.1256 7.38253L12.4843 8.4576L11.9751 10.2117V10.8435L12.3052 11.4282L14.3704 12.1638L15.0588 12.7862L16.596 13.484L17.954 13.8235L20.4908 13.6538L24.1592 13.2577L26.7714 13.0596L28.9404 13.0879L31.232 13.418L33.0427 14.2762L33.1275 14.1064L31.298 13.2388L28.9687 12.9088L26.7714 12.871L24.1498 13.0691L20.4813 13.4651L17.9823 13.6255L16.6809 13.3048L15.1814 12.6164L14.4836 11.9846L12.4466 11.2584L12.1826 10.7869V10.2305L12.6729 8.53304L13.2954 7.49569L13.9743 6.7224L14.9457 6.10942L19.2271 4.9872C19.7835 4.86461 20.7171 4.65714 20.8303 4.65714C21 4.65714 22.4334 4.42138 22.5938 4.39309L24.1403 4.19505H25.7058L26.8092 4.51568L28.1766 5.29841L29.0536 6.20373L29.5628 7.13734C29.5817 7.48626 29.6288 8.13696 29.6288 8.23127C29.6288 8.36329 29.8363 10.0985 29.8646 10.2871L29.94 11.7677L28.8273 11.3433L26.63 11.1075L24.9702 10.9378L23.3388 11.0698L21.4527 11.2679L19.2554 11.7677L17.6051 12.1638L16.5017 12.2298L15.0871 11.9469L15.8038 12.4655L16.3885 12.805L17.7277 13.1351L19.0385 13.1728H19.0479L20.2173 13.0408L21.8676 12.7767L23.4802 12.5127L25.2909 12.3807L26.5451 12.3146L28.054 12.4089L30.1004 12.673L32.7409 13.1728L33.203 13.4746L33.9385 14.1158L34.146 14.5968L34.0989 14.9552L33.7028 14.9834L32.9295 14.6251L31.5055 14.0593L30.3833 13.7198L29.4025 13.8235L29.4214 14.0121L30.3644 13.9178L31.4301 14.2384L32.8446 14.7948L33.6651 15.1721L34.2592 15.1343L34.3441 14.5685L34.0989 14.0404ZM15.4266 5.78879L15.5681 5.43043L16.3508 4.93062L17.4542 4.66657L18.1237 4.60055L18.5009 4.74201L18.6047 4.94948L15.4266 5.78879ZM30.1287 12.5221L28.0634 12.2581L26.5357 12.1543L25.272 12.2203L23.4519 12.3524L21.8205 12.6164L20.1701 12.8805L19.0196 13.0125L17.7465 12.9842L16.4451 12.6636L15.8982 12.3429H15.8887L16.464 12.4561L17.6051 12.3901L19.2742 11.994L21.4527 11.5036L23.3293 11.3056L24.9419 11.1736L26.5828 11.3339L28.7518 11.5602L30.2984 12.1543L32.109 12.8145L32.3165 12.9559L30.1287 12.5221Z" fill="black"/>
<path d="M20.6616 18.1215C20.9761 18.028 21.1672 17.7377 21.0885 17.4731C21.0098 17.2085 20.6911 17.0698 20.3766 17.1634C20.0621 17.2569 19.8709 17.5473 19.9496 17.8118C20.0283 18.0764 20.3471 18.2151 20.6616 18.1215Z" fill="white"/>
<path d="M19.1236 18.0672C19.259 18.0672 19.3688 17.9574 19.3688 17.822C19.3688 17.6866 19.259 17.5768 19.1236 17.5768C18.9882 17.5768 18.8784 17.6866 18.8784 17.822C18.8784 17.9574 18.9882 18.0672 19.1236 18.0672Z" fill="white"/>
<path d="M18.9725 17.3034C19.1079 17.3034 19.2177 17.1936 19.2177 17.0582C19.2177 16.9228 19.1079 16.813 18.9725 16.813C18.8371 16.813 18.7273 16.9228 18.7273 17.0582C18.7273 17.1936 18.8371 17.3034 18.9725 17.3034Z" fill="white"/>
<path d="M26.96 18.3784C27.085 18.3784 27.1863 18.2771 27.1863 18.1521C27.1863 18.0271 27.085 17.9258 26.96 17.9258C26.835 17.9258 26.7336 18.0271 26.7336 18.1521C26.7336 18.2771 26.835 18.3784 26.96 18.3784Z" fill="white"/>
<path d="M26.9317 17.5202C27.0671 17.5202 27.1769 17.4104 27.1769 17.275C27.1769 17.1396 27.0671 17.0298 26.9317 17.0298C26.7963 17.0298 26.6865 17.1396 26.6865 17.275C26.6865 17.4104 26.7963 17.5202 26.9317 17.5202Z" fill="white"/>
<path d="M28.2804 18.218C28.5252 18.218 28.7236 18.0196 28.7236 17.7748C28.7236 17.53 28.5252 17.3315 28.2804 17.3315C28.0356 17.3315 27.8372 17.53 27.8372 17.7748C27.8372 18.0196 28.0356 18.218 28.2804 18.218Z" fill="white"/>
</svg>
