<svg width="42" height="42" viewBox="0 0 42 42" fill="none" xmlns="http://www.w3.org/2000/svg">
<path d="M20.9751 42C32.5836 42 41.9502 32.6007 41.9502 21.0247C42 9.39929 32.5836 0 20.9751 0C9.41637 0 0 9.39929 0 20.9753C0 32.6007 9.41637 42 20.9751 42Z" fill="#0071F3"/>
<path d="M24.3132 8.40991H22.0214H16.9395C16.1424 8.40991 15.3951 9.00355 15.2954 9.84454L14.7972 13.2085V13.258H12.3061C11.6584 13.258 11.1104 13.8021 11.1104 14.4452C11.1104 15.1378 11.6584 15.6325 12.3061 15.682H14.3986L14.0499 18.0071V18.205H11.5588C10.9111 18.205 10.363 18.7491 10.363 19.3922C10.363 20.0354 10.9111 20.5795 11.5588 20.5795H13.6513L12.5054 27.8021L12.1566 30.2262L11.9573 31.5124C11.8079 32.5513 12.5552 33.4417 13.6015 33.4417H15.1958H17.3879H19.1815C19.9787 33.4417 20.6762 32.8481 20.8257 32.0071L21.8719 25.3781H22.4698H24.4627C29.146 25.3781 32.9823 21.5195 32.8826 16.8198C32.8328 12.0212 28.9467 8.40991 24.3132 8.40991ZM16.8399 15.5831L24.3132 15.6325C24.9609 15.6325 25.5588 16.1767 25.5588 16.8693C25.5588 17.5619 25.0107 18.106 24.3132 18.106H16.4413L16.8399 15.5831ZM24.363 22.8057H23.1175H22.5196H21.2741C20.4769 22.8057 19.7794 23.3993 19.6299 24.2403L18.5837 30.8693H14.4484L16.0428 20.4806H24.3132C26.3061 20.4806 27.9502 18.8481 27.9502 16.8693C27.9502 14.8905 26.3061 13.258 24.3132 13.258L17.2385 13.2085L17.5872 10.8339H24.4627C27.8506 10.8339 30.541 13.6043 30.4912 16.9682C30.3915 20.2332 27.6513 22.8057 24.363 22.8057Z" fill="white"/>
</svg>
