<svg width="43" height="43" viewBox="0 0 43 43" fill="none" xmlns="http://www.w3.org/2000/svg">
<path d="M31.4807 3.78528C30.3618 4.89161 29.3367 6.0907 28.4254 7.36928L28.1373 7.27653C26.4757 6.73992 24.7538 6.40869 23.0184 6.29606C22.4958 6.25632 20.5461 6.25632 19.9096 6.29606C17.9866 6.42194 16.5126 6.7068 14.8376 7.28315C14.7706 7.30965 14.7103 7.32953 14.65 7.3494C13.7053 6.07745 12.6533 4.88499 11.4942 3.7919C17.0553 0.976376 23.5611 0.638512 29.3836 2.85781C30.0067 3.08968 30.6164 3.36129 31.2127 3.65278L31.4807 3.78528Z" fill="#F00500"/>
<path d="M41.8526 28.913C41.0084 31.2913 39.7421 33.4973 38.1005 35.4185C37.2094 36.452 36.2245 37.3993 35.1659 38.2605C32.6868 40.2347 29.7924 41.6458 26.7036 42.3878C23.2865 43.2026 19.7221 43.2026 16.305 42.3878C13.2095 41.6458 10.3218 40.2347 7.84273 38.2605C6.78411 37.3993 5.79919 36.452 4.90807 35.4185C0.184475 29.9001 -1.24935 22.3213 1.15599 15.4912C1.6116 14.2259 2.18111 13.0069 2.86453 11.8476C3.17943 11.3176 3.56804 10.7214 3.75565 10.4763C4.39886 13.2123 5.18947 15.6171 5.48428 16.4849C5.46418 16.5313 5.43738 16.5843 5.41058 16.6307C3.84945 19.7576 3.00523 22.7718 2.80423 25.9782C2.80423 26.018 2.79753 26.0643 2.79753 26.1041C2.74392 27.0647 2.77073 27.5218 2.93153 28.1246C3.43404 30.0127 4.98177 32.0929 7.40722 34.1333C11.3804 37.4722 16.7673 39.8836 20.8477 40.1618C25.1023 40.4467 31.3803 37.9889 35.5612 34.3983C36.2178 33.8219 36.8342 33.2125 37.4104 32.5632C37.8258 32.0862 38.4422 31.2648 38.3953 31.2648C38.3819 31.2648 38.3953 31.2515 38.4221 31.2383C38.4422 31.225 38.4623 31.2052 38.4489 31.1919C38.4422 31.1853 38.4556 31.1654 38.4757 31.1588C38.4958 31.1522 38.5092 31.1389 38.5025 31.1257C38.4958 31.1124 38.5025 31.0992 38.5293 31.0925C38.5494 31.0859 38.5561 31.066 38.5494 31.0528C38.5427 31.0395 38.5494 31.0263 38.5628 31.0263C38.5762 31.0263 38.5896 31.0064 38.5896 30.9932C38.5896 30.9799 38.603 30.96 38.6164 30.96C38.6298 30.96 38.6432 30.9468 38.6432 30.9335C38.6633 30.8805 38.6968 30.8275 38.7303 30.7812C38.8308 30.6288 39.2328 29.9199 39.2864 29.8007C39.6684 28.9461 39.9096 28.1843 40.0235 27.4224C40.0771 27.0581 40.1106 26.3889 40.0838 26.23C40.0771 26.2035 40.0771 26.1571 40.0704 26.0842C40.057 25.9517 40.0503 25.753 40.0369 25.5542C40.0235 25.2561 39.9967 24.8388 39.9766 24.6334C39.6885 21.6257 38.9112 19.168 37.4372 16.5644C37.3769 16.465 37.3233 16.3657 37.2898 16.2862C37.2764 16.2663 37.2697 16.2464 37.263 16.2332C37.4707 15.6171 38.3216 13.04 38.9983 10.092L39.0117 10.1053L39.1122 10.2378C39.2864 10.4696 39.7488 11.1586 39.9565 11.4898C40.9012 13.0135 41.6382 14.6499 42.1608 16.359C43.3735 20.473 43.273 24.8586 41.8526 28.913Z" fill="#F00500"/>
<path d="M33.1558 20.9964C33.1357 21.1024 32.8208 21.4204 32.5059 21.6523C31.5813 22.3214 29.9263 22.9441 28.2446 23.2422C27.2865 23.4145 26.3283 23.441 26.0402 23.3019C25.8526 23.2091 25.8258 23.1362 25.8928 22.8978C26.0335 22.4009 26.4892 21.8577 27.1994 21.3476C27.5612 21.0892 29.0285 20.2081 29.7119 19.8371C30.8375 19.2276 31.7488 18.8633 32.3652 18.7771C32.5595 18.7506 32.794 18.744 32.8677 18.7771C32.9883 18.8235 33.1223 19.1746 33.1759 19.5986C33.2027 19.8239 33.1893 20.8176 33.1558 20.9964Z" fill="black"/>
<path d="M17.3703 23.1892C17.3301 23.2687 17.1291 23.3548 16.9012 23.3879C16.6734 23.421 15.9766 23.4012 15.5813 23.3548C14.1609 23.1693 12.6534 22.7387 11.5545 22.2087C10.9381 21.9106 10.4959 21.6125 10.1676 21.2879L9.98002 21.0957L9.95991 20.844C9.92641 20.4068 9.93311 19.7178 9.98672 19.4727C10.0202 19.2673 10.0939 19.0686 10.1944 18.8897C10.248 18.8234 10.248 18.8234 10.4892 18.8234C10.784 18.8234 11.0319 18.8698 11.4339 18.9957C12.2581 19.2474 13.4842 19.8569 14.9783 20.7446C16.2111 21.4734 16.6734 21.8311 17.0286 22.3213C17.2698 22.6261 17.4306 23.0567 17.3703 23.1892Z" fill="black"/>
<path d="M26.8577 32.4108C26.8577 32.4307 26.7773 32.7487 26.6768 33.1263C26.5763 33.5039 26.4959 33.8087 26.4959 33.8219C26.4222 33.8285 26.3552 33.8352 26.2815 33.8285H26.0671L25.7723 34.5175C25.6115 34.8951 25.4641 35.2462 25.444 35.2992L25.4038 35.392L25.2631 35.1667L25.1224 34.9415V33.1064L25.0687 33.1197C24.9548 33.1462 24.1441 33.2522 23.789 33.2853C22.3217 33.4311 20.8477 33.3979 19.387 33.1926C19.1525 33.1594 18.9515 33.1329 18.9448 33.1396C18.9381 33.1462 18.9448 33.5702 18.9582 34.0935L18.9783 35.0342L18.8644 35.2065C18.8041 35.2992 18.7438 35.3787 18.7438 35.3854C18.7237 35.4052 18.6567 35.2992 18.5026 34.9945C18.3351 34.6765 18.2145 34.3386 18.1274 33.9875L18.0805 33.7954L17.8728 33.8087L17.6651 33.8285L17.6115 33.5834C17.5847 33.4509 17.5512 33.2456 17.5378 33.1329L17.5177 32.9209L17.3435 32.7686C17.243 32.6825 17.1425 32.5963 17.1224 32.5831C17.0889 32.5566 17.0755 32.5102 17.0755 32.4705V32.391L17.913 32.3976L18.7505 32.4042L18.7773 32.4903L18.8041 32.5765L19.0922 32.5897C19.253 32.5963 19.7622 32.6096 20.2179 32.6228L21.0554 32.6427L21.2698 32.3115L21.4909 31.9802H21.7723L21.7656 31.2913L21.7589 30.6023L21.3904 30.4433C20.2045 29.9266 19.5076 29.3369 19.2463 28.6215C19.1927 28.4757 19.1927 28.4227 19.1793 27.7603C19.1726 27.1044 19.1726 27.0448 19.2195 26.899C19.3133 26.5678 19.5746 26.3094 19.9096 26.2233C20.0235 26.1902 20.3251 26.1902 21.9063 26.1902L23.7689 26.1968L23.9766 26.2962C24.2245 26.4154 24.3384 26.5015 24.4791 26.687C24.6399 26.899 24.6868 27.0646 24.6868 27.4688C24.6868 28.0451 24.6466 28.542 24.5863 28.7407C24.4992 29.0123 24.3652 29.2707 24.1977 29.5026C23.8627 29.9265 23.253 30.3505 22.6969 30.5427L22.5361 30.6023L22.5428 31.2979L22.5495 31.9935L22.6969 32.0067L22.8443 32.02L23.0453 32.3181L23.2396 32.6162H24.1374C24.6332 32.6162 25.0687 32.6228 25.1089 32.6295C25.1759 32.6427 25.1894 32.6361 25.2564 32.5235L25.3368 32.4042H26.1073C26.6835 32.3777 26.8577 32.391 26.8577 32.4108Z" fill="black"/>
<path d="M23.3201 34.3122C23.1928 34.3851 23.1057 34.4182 23.0856 34.405C23.0655 34.3983 22.9717 34.3188 22.8712 34.246L22.6903 34.1002L22.5027 34.299C22.094 34.7362 22.0806 34.7561 21.96 34.7627C21.7724 34.7826 21.7322 34.7494 21.5044 34.4116C21.3838 34.2393 21.2899 34.0936 21.2899 34.0936C21.2899 34.0936 21.2029 34.0803 21.1023 34.0737L20.9147 34.0538L20.8276 34.2327L20.7405 34.4116L20.5864 34.3652C20.4658 34.3255 20.3452 34.2791 20.2313 34.2261L20.0303 34.1267V33.7491L21.8126 33.7557L23.5948 33.7623L23.6015 33.9412C23.6082 34.1532 23.6149 34.1466 23.3201 34.3122Z" fill="black"/>
<path d="M40.0703 26.23C40.0636 26.2035 40.0636 26.1572 40.0569 26.0843C38.4489 25.912 33.8593 25.806 29.598 29.2841C29.598 29.2841 28.2245 23.0568 21.7924 23.0568C15.3602 23.0568 12.975 29.2841 12.975 29.2841C9.37032 25.4483 4.54622 25.7266 2.80419 25.9783C2.80419 26.018 2.79748 26.0644 2.79748 26.1042C2.74388 27.0648 2.77068 27.5219 2.93149 28.1247C3.434 30.0128 4.98173 32.093 7.40718 34.1334C11.3804 37.4723 16.7673 39.8837 20.8476 40.1619C25.1022 40.4468 31.3802 37.989 35.5611 34.3984C36.2177 33.822 36.8342 33.2125 37.4104 32.5633C37.8258 32.0863 38.4422 31.2649 38.3953 31.2649C38.3819 31.2649 38.3953 31.2516 38.4221 31.2384C38.4422 31.2251 38.4623 31.2052 38.4489 31.192C38.4422 31.1854 38.4556 31.1655 38.4757 31.1589C38.4958 31.1522 38.5092 31.139 38.5025 31.1257C38.4958 31.1125 38.5025 31.0992 38.5293 31.0926C38.5494 31.086 38.5561 31.0661 38.5494 31.0529C38.5427 31.0396 38.5494 31.0264 38.5628 31.0264C38.5762 31.0264 38.5896 31.0065 38.5896 30.9932C38.5896 30.98 38.603 30.9601 38.6164 30.9601C38.6298 30.9601 38.6432 30.9469 38.6432 30.9336C38.6633 30.8806 38.6968 30.8276 38.7303 30.7812C38.8308 30.6289 39.2328 29.92 39.2864 29.8008C39.6683 28.9462 39.9095 28.1843 40.0234 27.4225C40.0636 27.0581 40.0971 26.389 40.0703 26.23ZM23.32 34.3123C23.1927 34.3851 23.1056 34.4182 23.0855 34.405C23.0654 34.3984 22.9716 34.3189 22.8711 34.246L22.6902 34.1003L22.5026 34.299C22.0939 34.7362 22.0805 34.7561 21.9599 34.7627C21.7723 34.7826 21.7321 34.7495 21.5043 34.4116C21.3837 34.2394 21.2898 34.0936 21.2898 34.0936C21.2898 34.0936 21.2028 34.0804 21.1022 34.0738L20.9146 34.0539L20.8275 34.2328L20.7404 34.4116L20.5863 34.3653C20.4657 34.3255 20.3451 34.2791 20.2312 34.2261L20.0302 34.1268V33.7491L21.8125 33.7558L23.5947 33.7624L23.6014 33.9413C23.6081 34.1533 23.6148 34.1466 23.32 34.3123ZM26.6701 33.1198C26.5696 33.4974 26.4892 33.8021 26.4892 33.8154C26.4154 33.822 26.3485 33.8286 26.2747 33.822H26.0603L25.7722 34.5176C25.6114 34.8952 25.464 35.2463 25.4439 35.2993L25.4037 35.3921L25.263 35.1668L25.1223 34.9416V33.1065L25.0687 33.1198C24.9548 33.1463 24.1441 33.2523 23.789 33.2854C22.3217 33.4312 20.8476 33.398 19.387 33.1927C19.1525 33.1595 18.9515 33.133 18.9448 33.1397C18.9381 33.1463 18.9448 33.5703 18.9582 34.0936L18.9783 35.0344L18.8644 35.2066C18.8041 35.2993 18.7438 35.3788 18.7438 35.3855C18.7237 35.4053 18.6567 35.2993 18.5026 34.9946C18.3351 34.6766 18.2145 34.3388 18.1274 33.9876L18.0805 33.7955L17.8728 33.8088L17.6651 33.8286L17.6115 33.5835C17.5847 33.451 17.5512 33.2457 17.5378 33.133L17.5177 32.9211L17.3435 32.7687C17.243 32.6826 17.1425 32.5964 17.1224 32.5832C17.0889 32.5567 17.0755 32.5103 17.0755 32.4706V32.3911L17.913 32.3977L18.7505 32.4043L18.7773 32.4904L18.8041 32.5766L19.0922 32.5898C19.253 32.5964 19.7622 32.6097 20.2178 32.6229L21.0553 32.6428L21.2698 32.3116L21.4909 31.9803H21.7723L21.7656 31.2914L21.7589 30.6024L21.3904 30.4434C20.2044 29.9267 19.5076 29.3371 19.2463 28.6216C19.1927 28.4758 19.1927 28.4228 19.1793 27.7604C19.1726 27.1045 19.1726 27.0449 19.2195 26.8991C19.3133 26.5679 19.5746 26.3095 19.9096 26.2234C20.0235 26.1903 20.325 26.1903 21.9063 26.1903L23.7689 26.1969L23.9766 26.2963C24.2245 26.4155 24.3384 26.5016 24.4791 26.6871C24.6399 26.8991 24.6868 27.0648 24.6868 27.4689C24.6868 28.0452 24.6466 28.5421 24.5863 28.7408C24.4992 29.0124 24.3652 29.2708 24.1977 29.5027C23.8627 29.9267 23.253 30.3506 22.6969 30.5428L22.5361 30.6024L22.5428 31.298L22.5495 31.9936L22.6969 32.0068L22.8443 32.0201L23.0453 32.3182L23.2396 32.6163H24.1374C24.6332 32.6163 25.0687 32.6229 25.1089 32.6296C25.1759 32.6428 25.1893 32.6362 25.2563 32.5236L25.3367 32.4043H26.1072C26.7036 32.4043 26.8778 32.4109 26.8778 32.4308C26.8577 32.4242 26.7706 32.7488 26.6701 33.1198Z" fill="white"/>
<path d="M40.0168 25.5542C40.0034 25.2561 39.9766 24.8387 39.9565 24.6334C39.6684 21.6257 38.8912 19.1679 37.4172 16.5644C37.3569 16.465 37.3033 16.3657 37.2698 16.2862C37.2564 16.2663 37.2497 16.2464 37.243 16.2332C37.4507 15.6171 38.3016 13.04 38.9783 10.092C39.8962 6.09064 40.4791 1.41356 38.6969 0.00910404C38.6969 0.00910404 35.6148 -0.216138 31.4876 3.78522C30.3686 4.89156 29.3435 6.09064 28.4323 7.36922L28.1442 7.27647C26.4826 6.73987 24.7606 6.40863 23.0253 6.29601C22.5027 6.25626 20.5529 6.25626 19.9164 6.29601C17.9935 6.42188 16.5195 6.70674 14.8444 7.2831C14.7774 7.3096 14.7171 7.32947 14.6568 7.34935C13.7121 6.07739 12.6602 4.88493 11.5011 3.79185C7.20628 -0.229387 4.01031 0.00247887 4.01031 0.00247887C2.12088 1.4533 2.76409 6.34238 3.74231 10.4762C4.38552 13.2123 5.17614 15.6171 5.47094 16.4849C5.45084 16.5313 5.42404 16.5843 5.39724 16.6306C3.83611 19.7575 2.99189 22.7718 2.79089 25.9782C4.53962 25.7265 9.35702 25.4416 12.9684 29.284C12.9684 29.284 15.3536 23.0567 21.7858 23.0567C28.2179 23.0567 29.5914 29.284 29.5914 29.284C33.8527 25.806 38.4423 25.9186 40.0503 26.0842C40.0436 25.9517 40.0302 25.753 40.0168 25.5542ZM6.73727 13.9874C6.73727 13.9874 4.23142 7.79321 4.87463 4.25558C4.98183 3.65935 5.18284 3.13599 5.49774 2.73851C5.49774 2.73851 8.3386 3.01675 12.9215 8.05157C12.9215 8.05157 12.0505 8.46893 10.8847 9.35665C10.8847 9.35665 10.8779 9.36328 10.8712 9.36328C9.60492 10.3239 7.98349 11.8476 6.73727 13.9874ZM17.3704 23.1892C17.3302 23.2687 17.1292 23.3548 16.9014 23.3879C16.6736 23.421 15.9768 23.4012 15.5814 23.3548C14.161 23.1693 12.6535 22.7387 11.5547 22.2087C10.9383 21.9106 10.496 21.6125 10.1677 21.2879L9.98013 21.0957L9.96003 20.844C9.92653 20.4068 9.93323 19.7178 9.98683 19.4727C10.0203 19.2673 10.094 19.0686 10.1945 18.8897C10.2481 18.8234 10.2481 18.8234 10.4893 18.8234C10.7841 18.8234 11.0321 18.8698 11.4341 18.9957C12.2582 19.2474 13.4843 19.8569 14.9784 20.7446C16.2113 21.4734 16.6736 21.8311 17.0287 22.3213C17.2699 22.6261 17.4307 23.0567 17.3704 23.1892ZM33.1559 20.9964C33.1358 21.1024 32.8209 21.4204 32.506 21.6522C31.5814 22.3213 29.9264 22.9441 28.2447 23.2422C27.2866 23.4144 26.3285 23.4409 26.0403 23.3018C25.8527 23.209 25.8259 23.1362 25.8929 22.8977C26.0337 22.4008 26.4893 21.8576 27.1995 21.3475C27.5613 21.0891 29.0286 20.208 29.712 19.837C30.8376 19.2276 31.7489 18.8632 32.3653 18.7771C32.5596 18.7506 32.7941 18.744 32.8678 18.7771C32.9884 18.8234 33.1224 19.1746 33.176 19.5985C33.2028 19.8238 33.1894 20.8175 33.1559 20.9964ZM32.0437 9.35665L32.0303 9.35003C30.9046 8.46231 30.0604 8.04495 30.0604 8.04495C34.4892 3.01012 37.2296 2.73188 37.2296 2.73188C37.5311 3.136 37.7254 3.65273 37.8326 4.24896C38.4557 7.78658 36.0369 13.9874 36.0369 13.9874C35.0252 12.2053 33.6651 10.6286 32.0437 9.35665Z" fill="#FFA409"/>
<path d="M37.8391 4.24898C37.3165 4.18273 34.8441 4.16948 32.0435 9.35668L32.0301 9.35005C30.9045 8.46233 30.0602 8.04497 30.0602 8.04497C34.489 3.01015 37.2294 2.73191 37.2294 2.73191C37.5376 3.13602 37.7319 3.65275 37.8391 4.24898Z" fill="#FF9300"/>
<path d="M36.0436 13.9874C35.0252 12.1987 33.6718 10.6286 32.0436 9.35668C34.8443 4.16948 37.3099 4.18273 37.8392 4.24898C38.4624 7.79323 36.0436 13.9874 36.0436 13.9874Z" fill="#FF8300"/>
<path d="M37.9398 4.26904C37.9063 4.26234 37.8728 4.25564 37.8393 4.24894L37.9398 4.26904Z" fill="#FF8300"/>
<path d="M12.9216 8.04497C12.9216 8.04497 12.0505 8.46233 10.8847 9.35005C10.8847 9.35005 10.878 9.35668 10.8713 9.35668C7.97016 4.16286 5.41741 4.18273 4.868 4.24898C4.9752 3.65275 5.17621 3.12939 5.49112 2.73191C5.49782 2.73191 8.33867 3.01015 12.9216 8.04497Z" fill="#FF9300"/>
<path d="M10.8779 9.35668C9.6049 10.3239 7.98348 11.841 6.73725 13.9874C6.73725 13.9874 4.2314 7.79323 4.87461 4.24898C5.41732 4.18273 7.97677 4.16948 10.8779 9.35668Z" fill="#FF8300"/>
<path d="M4.87473 4.24894C4.84123 4.25564 4.80103 4.26234 4.76753 4.26904L4.87473 4.24894Z" fill="#FF8300"/>
<path d="M29.263 17.4256C29.263 17.4256 27.119 17.5581 27.387 15.902C27.655 14.2458 29.33 14.047 29.799 14.1133C30.2681 14.1795 32.1441 14.842 31.8091 16.2332C31.4741 17.6244 31.0051 17.3594 30.7371 17.4256C30.4691 17.4919 29.263 17.4256 29.263 17.4256Z" fill="white"/>
<path d="M13.4507 17.4256C13.4507 17.4256 11.3066 17.5581 11.5746 15.902C11.8426 14.2458 13.5177 14.047 13.9867 14.1133C14.4557 14.1795 16.3317 14.842 15.9967 16.2332C15.6617 17.6244 15.1927 17.3594 14.9247 17.4256C14.6567 17.4919 13.4507 17.4256 13.4507 17.4256Z" fill="white"/>
</svg>
