<svg width="53" height="53" viewBox="0 0 53 53" fill="none" xmlns="http://www.w3.org/2000/svg">
<rect x="5.3" y="5.3" width="42.4" height="42.4" rx="21" fill="#FEE3EF"/>
<path d="M26.7463 32.9778C27.6646 33.2123 28.4861 33.7397 28.914 34.3664C29.3314 34.9799 29.5103 35.5138 29.6971 36.7037C29.7713 37.1727 29.8508 37.6444 29.8747 37.7504C30.0151 38.3666 30.2881 38.8595 30.6259 39.1059C31.1626 39.4994 32.0874 39.5233 32.9964 39.1695C33.0908 39.1256 33.1906 39.0944 33.2932 39.0768C33.3263 39.1099 32.8692 39.416 32.5459 39.5776C32.1651 39.7815 31.7388 39.885 31.307 39.8784C30.4736 39.8784 29.7832 39.4544 29.2055 38.5905C28.9934 38.2253 28.804 37.8474 28.6384 37.4589C28.0289 36.0703 27.7295 35.6477 27.0219 35.1839C26.4058 34.7811 25.6135 34.7082 25.0159 35.0011C24.2315 35.3853 24.0129 36.3883 24.5747 37.023C24.7973 37.2748 25.2146 37.4934 25.5552 37.5358C25.7037 37.5553 25.8548 37.5428 25.9981 37.4989C26.1414 37.455 26.2736 37.3809 26.3857 37.2815C26.4979 37.1822 26.5875 37.0599 26.6483 36.9229C26.7091 36.786 26.7399 36.6376 26.7384 36.4877C26.7384 36.0703 26.5794 35.8318 26.1739 35.649C25.6227 35.4012 25.0291 35.6914 25.0318 36.2095C25.0331 36.4307 25.1298 36.5699 25.3511 36.6706C25.4929 36.7342 25.4969 36.7395 25.3803 36.7156C24.8741 36.6096 24.7562 36.0001 25.163 35.5947C25.6519 35.1084 26.6629 35.323 27.0087 35.9869C27.1544 36.2651 27.1717 36.8216 27.0445 37.1568C26.7609 37.9068 25.9315 38.3016 25.0901 38.087C24.5164 37.9412 24.2832 37.7822 23.5928 37.0707C22.3924 35.8345 21.926 35.596 20.1969 35.3257L19.8656 35.2727L20.2419 34.9547C21.5086 33.8854 23.0867 33.1249 24.5217 32.8917C25.1418 32.791 26.1726 32.8307 26.7463 32.9778ZM32.8546 26.7264C32.8811 26.7264 32.9871 26.7847 33.0931 26.855C33.3011 26.9954 33.7211 27.2326 34.8381 27.8421C36.232 28.6026 37.027 29.1909 37.5676 29.8627C38.0406 30.4523 38.3335 31.1215 38.4752 31.9403C38.5547 32.4041 38.5084 33.5171 38.3891 33.9848C38.0141 35.4555 37.1436 36.6109 35.9008 37.2854C35.7835 37.3527 35.6622 37.4128 35.5377 37.4656C35.5192 37.4656 35.5854 37.2973 35.6848 37.0906C36.1022 36.2161 36.1499 35.3681 35.8345 34.4207C35.6411 33.8417 35.2462 33.1355 34.4499 31.9403C33.5237 30.5517 33.2971 30.182 33.0692 29.6918C32.6148 28.7166 32.5114 27.7758 32.7592 26.896C32.7857 26.8033 32.8294 26.7264 32.8546 26.7264ZM12.7265 9.83004C12.7755 9.83004 21.8637 18.8361 22.6706 19.7768L22.8932 20.0365L22.8747 20.4406C22.8482 20.9733 22.6812 21.3284 22.2824 21.6954C21.824 22.1194 21.2648 22.3447 20.3863 22.4652C19.8471 22.5394 19.6523 22.6203 19.4337 22.8601C19.2256 23.0906 19.1461 23.3768 19.0892 24.1029C18.9991 25.2265 18.8666 25.7022 18.3339 26.8179C17.8211 27.8951 17.7165 28.3019 17.8066 28.8796C17.9165 29.5818 18.3127 30.0933 19.2429 30.7293C19.9517 31.2142 20.2737 31.5269 20.4499 31.9032C20.5586 32.1338 20.5732 32.2186 20.5705 32.6187C20.5679 33.2335 20.4685 33.48 20.0485 33.9305C19.3687 34.6539 18.1617 35.2449 16.6737 35.5801C16.0509 35.7205 16.0244 35.7205 16.0244 35.5761C16.0244 35.3959 15.7939 34.9348 15.3924 34.3134C14.9287 33.5926 14.7458 33.2335 14.5709 32.6876C14.3828 32.1436 14.3062 31.5672 14.3457 30.9929C14.3722 30.3768 14.4397 30.1052 14.6849 29.6149C14.8796 29.2294 15.0055 29.0531 15.7753 28.0912C17.0924 26.4495 17.5667 25.4902 17.7363 24.1321C17.8874 22.921 18.0954 22.3354 18.5631 21.8147C18.8427 21.502 18.905 21.3827 18.905 21.1561C18.905 21.0448 18.4598 20.2101 17.1401 17.8476C15.1552 14.2966 15.0439 14.0979 15.089 14.135C15.1248 14.1681 16.096 15.664 17.258 17.466C18.7765 19.8205 19.4337 20.8024 19.5966 20.9574C19.8198 21.1731 20.1146 21.299 20.4248 21.3112C20.6725 21.3112 21.1681 21.172 21.4106 21.0356C21.8438 20.7878 21.9392 20.4738 21.6862 20.124C21.3788 19.7 17.3243 15.4335 13.3161 10.5707C13.1117 10.3302 12.9151 10.0832 12.7265 9.83004ZM15.5223 30.9373C15.5223 31.0141 15.5633 31.0698 15.6587 31.1175C15.8177 31.1996 15.831 31.2924 15.7038 31.4819C15.5766 31.674 15.5872 31.8423 15.7329 31.9562C15.9688 32.1417 16.3027 32.0397 16.4776 31.731C16.5658 31.575 16.5922 31.3915 16.5514 31.217C16.5107 31.0425 16.4058 30.8897 16.2576 30.7889C15.9688 30.5968 15.5209 30.6869 15.5209 30.9373H15.5223ZM31.2513 25.9288L31.413 26.1116C31.6382 26.3634 31.8145 26.6854 31.9642 27.1133C32.0649 27.3995 32.0861 27.5108 32.0901 27.8885V28.0687C32.0901 28.5907 32.0755 28.6994 31.9708 28.9948C31.8025 29.4586 31.5958 29.7872 31.2487 30.141C30.6259 30.7756 29.823 31.1268 28.6649 31.2725C28.4649 31.299 27.8779 31.3414 27.3625 31.3679C26.064 31.4342 25.2093 31.5746 24.4408 31.8449C24.3714 31.876 24.2968 31.8939 24.2209 31.8979C24.1904 31.8661 24.7138 31.5534 25.1457 31.3467C25.7552 31.0526 26.3608 30.8922 27.7202 30.667C28.3907 30.5544 29.085 30.4192 29.2599 30.3649C30.9227 29.8548 31.7774 28.5404 31.5031 26.9119C31.463 26.6681 31.4082 26.427 31.3388 26.1898L31.2513 25.9301V25.9288ZM29.3062 21.2197C29.4087 21.2854 29.5066 21.358 29.5991 21.437C30.292 21.9935 31.0672 22.2307 33.2137 22.5434C34.4777 22.7276 35.1879 22.876 35.8438 23.0933C37.928 23.7849 39.2172 25.1868 39.5246 27.0988C39.6147 27.6539 39.5617 28.6954 39.4173 29.2439C39.3034 29.6772 38.9536 30.4576 38.8608 30.4894C38.8356 30.4961 38.8105 30.398 38.8038 30.2642C38.7694 29.5474 38.4063 28.8478 37.7968 28.3257C37.1052 27.7295 36.175 27.2564 33.9013 26.3409C30.4855 24.9655 29.2837 23.773 29.2837 21.759C29.2837 21.4622 29.293 21.2197 29.3062 21.2197ZM23.4471 22.6772C23.7094 22.5977 24.2514 22.6481 24.5071 22.7779C25 23.0297 25.3591 23.6008 25.2809 24.0128C25.1855 24.5163 24.3693 24.9191 23.4312 24.9271C22.9515 24.9297 22.774 24.8648 22.5911 24.6197C22.4785 24.4686 22.4348 23.9784 22.5116 23.6988C22.6349 23.2417 23.035 22.8044 23.4471 22.6786V22.6772ZM23.202 23.3503C23.202 23.5716 23.573 23.8114 23.9108 23.8114C24.1361 23.8114 24.4448 23.6776 24.5455 23.5358C24.6899 23.3305 24.6263 23.1079 24.3799 22.9568C23.9108 22.6706 23.202 22.9078 23.202 23.3503ZM23.3822 14.1681C24.6144 14.4609 25.7367 15.2122 26.9332 16.5451L27.2525 16.9002L27.7083 16.8274C29.6256 16.5186 31.5773 16.7638 33.207 17.5164C33.6575 17.7244 34.3651 18.1378 34.4525 18.2438C34.4817 18.2769 34.532 18.4955 34.5678 18.7274C34.6897 19.5304 34.6288 20.1465 34.3823 20.6063C34.2498 20.8567 34.2419 20.9362 34.332 21.1495C34.3745 21.238 34.441 21.3129 34.5239 21.3656C34.6068 21.4183 34.7028 21.4467 34.801 21.4476C35.2065 21.4476 35.6437 20.7918 35.8451 19.8788L35.9259 19.5171L36.0849 19.6973C36.9581 20.6858 37.6431 22.0346 37.7611 22.9952L37.7915 23.2457L37.6458 23.0178C37.4349 22.6699 37.151 22.372 36.8137 22.1446C36.228 21.7577 35.6093 21.6252 33.9689 21.5391C32.4889 21.4596 31.6502 21.3337 30.8194 21.0621C29.4043 20.6023 28.6914 19.9888 27.0113 17.784C26.2654 16.8048 25.8056 16.2629 25.3458 15.827C24.303 14.8359 23.2788 14.3165 21.9671 14.1124C21.608 14.0568 21.5934 14.0502 21.7617 14.025C22.0863 13.9746 22.8535 14.0422 23.3822 14.1681ZM35.2396 14.5311C35.2284 14.6191 35.2052 14.7052 35.1707 14.7869C35.0408 15.1711 35.0196 15.6945 35.1097 16.3053C35.2224 17.0791 35.2873 17.1917 36.1061 18.0278C36.4904 18.42 36.9369 18.9156 37.0986 19.1276L37.3927 19.5131L37.0986 19.2375C36.7382 18.8997 35.9114 18.2411 35.7272 18.1471C35.6053 18.0848 35.5867 18.0861 35.5112 18.1603C35.4423 18.2305 35.4277 18.3339 35.4185 18.8268C35.4026 19.5953 35.2979 20.0882 35.0448 20.5798C34.9083 20.8474 34.8858 20.7904 35.0104 20.4897C35.1031 20.2644 35.1124 20.1664 35.1111 19.423C35.1111 17.9284 34.9322 17.5694 33.8921 16.9546C33.579 16.7729 33.2576 16.6062 32.9288 16.455C32.7662 16.3901 32.6086 16.3135 32.4571 16.2258C32.4862 16.1967 33.5012 16.4908 33.9093 16.6498L34.2154 16.7664C34.5546 16.8923 34.6314 16.9069 34.6897 16.8857C34.7387 16.8658 34.7626 16.7214 34.7878 16.2987C34.8249 15.6428 34.9136 15.2095 35.0925 14.8147C35.1315 14.7156 35.1804 14.6206 35.2383 14.5311H35.2396ZM21.612 14.7961L21.7789 14.8253C22.0916 14.8823 22.6296 15.0837 22.8813 15.236C23.5743 15.6561 23.8737 16.2099 24.1785 17.6303C24.2673 18.0477 24.3852 18.5181 24.4382 18.6771C24.5256 18.9341 24.8529 19.5343 25.1206 19.9226C25.3114 20.2035 25.1842 20.336 24.7602 20.2975C24.1109 20.2392 23.2338 19.6337 22.6667 18.8533C21.9366 17.8476 21.4848 16.3053 21.5828 15.1526L21.612 14.7948V14.7961Z" fill="#FF007A"/>
</svg>
