<svg width="42" height="42" viewBox="0 0 42 42" fill="none" xmlns="http://www.w3.org/2000/svg">
<path d="M21 42C32.6376 42 42 32.6376 42 21C42 9.36243 32.6376 0 21 0C9.36243 0 0 9.36243 0 21C0 32.6376 9.36243 42 21 42Z" fill="#2775CA"/>
<path d="M26.775 24.3249C26.775 21.2625 24.9375 20.2125 21.2625 19.7751C18.6375 19.425 18.1125 18.7251 18.1125 17.4999C18.1125 16.2748 18.9875 15.4875 20.7375 15.4875C22.3125 15.4875 23.1875 16.0125 23.625 17.325C23.7126 17.5875 23.9751 17.7624 24.2376 17.7624H25.6374C25.9875 17.7624 26.25 17.4999 26.25 17.1501V17.0625C25.8999 15.1374 24.3249 13.65 22.3125 13.4751V11.3751C22.3125 11.025 22.05 10.7625 21.6126 10.6749H20.3C19.95 10.6749 19.6875 10.9374 19.5999 11.3751V13.3875C16.9749 13.7376 15.3125 15.4875 15.3125 17.6751C15.3125 20.5626 17.0625 21.6999 20.7375 22.1376C23.1875 22.575 23.9751 23.1 23.9751 24.5001C23.9751 25.9001 22.7499 26.8626 21.0875 26.8626C18.8124 26.8626 18.0249 25.8999 17.7624 24.5874C17.675 24.2376 17.4125 24.0624 17.15 24.0624H15.6624C15.3125 24.0624 15.05 24.3249 15.05 24.675V24.7626C15.3999 26.9499 16.8 28.5249 19.6875 28.9626V31.0626C19.6875 31.4124 19.95 31.6749 20.3874 31.7625H21.6999C22.05 31.7625 22.3125 31.5 22.4001 31.0626V28.9626C25.0251 28.5249 26.775 26.6874 26.775 24.3249Z" fill="white"/>
<path d="M16.5375 33.5125C9.7125 31.0626 6.21243 23.4501 8.75007 16.7125C10.0626 13.0375 12.9501 10.2376 16.5375 8.92505C16.8876 8.75012 17.0625 8.48762 17.0625 8.04998V6.82505C17.0625 6.47498 16.8876 6.21248 16.5375 6.12512C16.4499 6.12512 16.275 6.12512 16.1874 6.21248C7.875 8.83748 3.32493 17.6751 5.94993 25.9876C7.52493 30.8875 11.2875 34.6501 16.1874 36.2251C16.5375 36.4 16.8876 36.2251 16.9749 35.875C17.0625 35.7876 17.0625 35.7001 17.0625 35.5251V34.3C17.0625 34.0375 16.8 33.6876 16.5375 33.5125ZM25.8126 6.21248C25.4625 6.03755 25.1124 6.21248 25.0251 6.56255C24.9375 6.65012 24.9375 6.73748 24.9375 6.91262V8.13755C24.9375 8.48762 25.2 8.83748 25.4625 9.01262C32.2875 11.4625 35.7876 19.075 33.2499 25.8126C31.9374 29.4876 29.0499 32.2876 25.4625 33.6001C25.1124 33.775 24.9375 34.0375 24.9375 34.4751V35.7001C24.9375 36.0501 25.1124 36.3126 25.4625 36.4C25.5501 36.4 25.725 36.4 25.8126 36.3126C34.125 33.6876 38.6751 24.85 36.0501 16.5376C34.4751 11.5501 30.6249 7.78748 25.8126 6.21248Z" fill="white"/>
</svg>
