<svg width="42" height="42" viewBox="0 0 42 42" fill="none" xmlns="http://www.w3.org/2000/svg">
<rect width="42" height="42" rx="21" fill="white"/>
<path fill-rule="evenodd" clip-rule="evenodd" d="M12.6142 10.2204L8.01938 19.9796C8.00189 20.0159 7.99635 20.0569 8.00357 20.0966C8.01078 20.1363 8.03037 20.1726 8.05947 20.2003L20.469 32.2242C20.5043 32.2584 20.5512 32.2775 20.6001 32.2775C20.6489 32.2775 20.6959 32.2584 20.7311 32.2242L33.1407 20.201C33.1698 20.1734 33.1894 20.137 33.1966 20.0973C33.2038 20.0576 33.1983 20.0166 33.1808 19.9803L28.5859 10.2212C28.5711 10.1884 28.5473 10.1606 28.5172 10.1412C28.4872 10.1218 28.4523 10.1115 28.4167 10.1116H12.785C12.7492 10.1111 12.714 10.1212 12.6837 10.1405C12.6534 10.1598 12.6293 10.1876 12.6142 10.2204Z" fill="#50AF95"/>
<path fill-rule="evenodd" clip-rule="evenodd" d="M22.1945 20.9817C22.1054 20.9884 21.6451 21.0162 20.6183 21.0162C19.8016 21.0162 19.2218 20.9914 19.0184 20.9817C15.8623 20.8413 13.5066 20.2858 13.5066 19.6207C13.5066 18.9555 15.8623 18.4008 19.0184 18.2581V20.4284C19.2248 20.4434 19.8157 20.4787 20.6324 20.4787C21.6124 20.4787 22.1031 20.4374 22.1915 20.4292V18.2596C25.3408 18.4015 27.6913 18.957 27.6913 19.6207C27.6913 20.2843 25.3416 20.8398 22.1915 20.9809L22.1945 20.9817ZM22.1945 18.0352V16.0931H26.5896V13.1316H14.6232V16.0931H19.0176V18.0344C15.4458 18.2003 12.7598 18.9157 12.7598 19.773C12.7598 20.6303 15.4458 21.345 19.0176 21.5117V27.735H22.1937V21.5094C25.7573 21.3435 28.439 20.6288 28.439 19.7723C28.439 18.9157 25.7596 18.2011 22.1937 18.0344L22.1945 18.0352Z" fill="white"/>
</svg>
