<svg width="42" height="42" viewBox="0 0 42 42" fill="none" xmlns="http://www.w3.org/2000/svg">
<g clip-path="url(#clip0_15305_7843)">
<circle cx="21" cy="21" r="21" fill="white"/>
<path d="M19.8076 0.0492172C19.1883 0.086132 18.1547 0.200974 17.5313 0.307613C12.1992 1.20176 7.45784 4.09335 4.18069 8.44921C2.26526 10.9922 0.915845 14.0725 0.345728 17.1855C-0.142358 19.8475 -0.113647 22.6365 0.43186 25.282C1.0635 28.3664 2.43342 31.34 4.38167 33.8584C7.05588 37.3119 10.8293 39.9123 14.9473 41.1305C17.0596 41.758 18.7576 42 21.0176 42C22.7649 41.9959 23.9174 41.8811 25.4596 41.5488C27.4407 41.1182 29.6637 40.2691 31.3946 39.2725C35.5535 36.8812 38.802 33.1365 40.5328 28.7314C41.2711 26.857 41.6895 25.1016 41.9233 22.9482C42.0053 22.1895 41.993 19.7531 41.9028 18.9287C41.226 12.7723 38.1293 7.46484 33.1254 3.88418C30.3281 1.88261 26.9403 0.574215 23.499 0.168159C22.4244 0.0410118 20.8371 -0.0123062 19.8076 0.0492172ZM21.9774 3.99902C25.0699 4.18769 27.7975 5.09004 30.3692 6.77578C31.292 7.38281 32.2395 8.1539 32.9696 8.89629L33.3182 9.24492L26.9608 9.25723C20.0701 9.27363 20.3819 9.26543 19.2252 9.49922C17.0186 9.94219 14.8899 11.0906 13.2903 12.6984C12.0311 13.9617 11.1451 15.3357 10.5463 16.96C10.3453 17.4973 10.0049 18.7523 10.0049 18.9533V19.0518H7.03127C5.39475 19.0518 4.05764 19.0395 4.05764 19.0189C4.05764 18.8836 4.28323 17.5916 4.38577 17.1527C5.42756 12.6041 8.4135 8.58457 12.511 6.22207C15.3615 4.58144 18.6879 3.79804 21.9774 3.99902ZM36.419 13.7279C37.1737 15.3234 37.6617 16.9969 37.916 18.8549L37.9407 19.0518H25.9846C19.4057 19.0518 14.0244 19.0436 14.0244 19.0312C14.0244 18.9164 14.3321 18.1002 14.533 17.6777C14.9842 16.7385 15.4231 16.1355 16.2065 15.3809C17.4451 14.1873 18.9217 13.4859 20.6895 13.2562C20.7592 13.248 24.2701 13.2357 28.4948 13.2316L36.177 13.2275L36.419 13.7279ZM10.0787 23.4691C10.3494 24.8186 10.9401 26.2377 11.744 27.46C13.4994 30.1219 16.2311 31.9676 19.3073 32.5623C19.783 32.6566 20.2506 32.7141 20.8946 32.7674C21.0299 32.7797 23.8928 32.792 27.252 32.792L33.3633 32.7961L32.9121 33.2309C29.1961 36.8074 24.303 38.5014 19.1965 37.9764C13.0606 37.3447 7.72854 33.3949 5.28811 27.665C4.70979 26.3115 4.28733 24.7488 4.07815 23.182L4.05354 22.9893H7.01897H9.9844L10.0787 23.4691ZM37.916 23.182C37.6494 25.0852 37.1696 26.7217 36.4149 28.309L36.177 28.8135H28.5563C20.4024 28.8135 20.6115 28.8176 19.7502 28.6125C18.8807 28.4033 17.7979 27.9111 17.0596 27.3861C16.6207 27.0744 15.8948 26.3936 15.542 25.9629C14.9022 25.1836 14.25 23.9285 14.049 23.1L14.0244 22.9893H25.9805H37.9407L37.916 23.182Z" fill="black"/>
</g>
<defs>
<clipPath id="clip0_15305_7843">
<rect width="42" height="42" fill="white"/>
</clipPath>
</defs>
</svg>
