<svg width="42" height="42" viewBox="0 0 42 42" fill="none" xmlns="http://www.w3.org/2000/svg">
<rect width="42" height="42" rx="21" fill="black"/>
<path d="M30.4195 12.107L27.2587 13.7252L11.9962 21.5357C11.9447 21.1403 11.9189 20.7414 11.9189 20.3424C11.9251 15.3362 16.0277 11.2198 21.0107 11.2198C22.5627 11.2198 24.0898 11.6188 25.4446 12.3792L27.2533 11.4536L27.5234 11.3153C25.6267 9.93188 23.3427 9.1875 21 9.1875C14.9075 9.1875 9.8943 14.2241 9.8943 20.3451C9.8943 20.6289 9.90496 20.9127 9.92628 21.1948C9.98758 22.0097 9.55316 22.7853 8.82913 23.1566L7.875 23.6457V25.9252L10.6841 24.4865L11.5929 24.0206L12.4893 23.5618L28.5797 15.3255L30.3876 14.3999L34.125 12.4863V10.2086L30.4195 12.107ZM34.125 14.7667L13.4034 25.3665L11.5956 26.2938L7.875 28.1985V30.4763L11.5698 28.585L14.7307 26.9668L30.0091 19.1455C30.0606 19.5436 30.0864 19.9443 30.0864 20.346C30.0837 25.3549 25.9803 29.4748 20.9947 29.4748C19.4373 29.4748 17.9058 29.0732 16.5474 28.3083L16.4364 28.3672L14.4748 29.3713C16.3715 30.7547 18.6564 31.5 21 31.5C27.0908 31.5 32.1039 26.4652 32.1057 20.346C32.1057 20.0595 32.0942 19.7721 32.0737 19.4891C32.0124 18.6743 32.446 17.8986 33.1691 17.5274L34.125 17.0391V14.7667Z" fill="white"/>
</svg>
