<svg width="42" height="43" viewBox="0 0 42 43" fill="none" xmlns="http://www.w3.org/2000/svg">
<path d="M41.9995 21.0002C41.9995 32.5979 32.5985 42.0002 21 42.0002C9.40151 42.0002 0.000488281 32.5979 0.000488281 21.0002C0.000488281 9.40248 9.40173 0 21 0C32.5982 0 41.9995 9.40158 41.9995 21.0002Z" fill="white"/>
<path d="M21 0C9.40562 0 -0.0120572 9.41578 0.00270287 20.9995C0.00561015 23.317 0.37517 25.5464 1.06878 27.6317H7.35163V9.96581L21 23.614L34.6476 9.96581V27.632H40.9318C41.6264 25.5468 41.9941 23.3175 41.9982 20.9998C42.018 9.40404 32.5955 0.00279546 21 0.00279546V0Z" fill="#F26822"/>
<path d="M17.8613 26.7517L11.9051 20.7951V31.9114H7.35127L3.0542 31.9122C6.74007 37.9593 13.4013 42.0045 21 42.0045C28.5988 42.0045 35.2604 37.9584 38.9469 31.9113H30.0937V20.7951L24.1371 26.7517L20.9994 29.8894L17.8615 26.7517H17.8613Z" fill="#4D4D4D"/>
</svg>
