<svg width="42" height="42" viewBox="0 0 42 42" fill="none" xmlns="http://www.w3.org/2000/svg">
<path d="M21 42C32.598 42 42 32.598 42 21C42 9.40202 32.598 0 21 0C9.40202 0 0 9.40202 0 21C0 32.598 9.40202 42 21 42Z" fill="#209CE9"/>
<path d="M30.835 34.2611H28.7933L21.0427 22.19L13.1755 34.2611H11.1494L19.9694 20.5839L11.935 8.01892H14.0155L21.0777 19.0711L28.2877 8.01892H30.24L22.12 20.5489L30.835 34.2611Z" fill="white"/>
<path d="M13.0862 19.7828H28.9645V21.2761H13.0862V19.7828ZM13.0862 24.2628H28.9645V25.7561H13.0862V24.2628Z" fill="white"/>
</svg>
