<svg width="42" height="42" viewBox="0 0 42 42" fill="none" xmlns="http://www.w3.org/2000/svg">
<rect width="42" height="42" rx="21" fill="#121212"/>
<path d="M29.3514 10.5H32.7692L25.6594 17.8736C25.0592 18.506 24.3366 19.0097 23.5356 19.3538C22.7346 19.698 21.8718 19.8755 21 19.8755C20.1282 19.8755 19.2654 19.698 18.4644 19.3538C17.6634 19.0097 16.9408 18.506 16.3406 17.8736L9.23212 10.5H12.6486L18.0495 16.1017C18.4296 16.5023 18.8873 16.8212 19.3947 17.0392C19.902 17.2571 20.4485 17.3695 21.0007 17.3695C21.5529 17.3695 22.0993 17.2571 22.6066 17.0392C23.114 16.8212 23.5717 16.5023 23.9518 16.1017L29.3514 10.5ZM12.6052 31.0052H9.1875L16.3406 23.5856C16.9408 22.9532 17.6634 22.4496 18.4644 22.1054C19.2654 21.7613 20.1282 21.5838 21 21.5838C21.8718 21.5838 22.7346 21.7613 23.5356 22.1054C24.3366 22.4496 25.0592 22.9532 25.6594 23.5856L32.8125 31.0052H29.3961L23.9518 25.3575C23.5717 24.957 23.114 24.638 22.6066 24.4201C22.0993 24.2021 21.5529 24.0897 21.0007 24.0897C20.4485 24.0897 19.902 24.2021 19.3947 24.4201C18.8873 24.638 18.4296 24.957 18.0495 25.3575L12.6052 31.0052Z" fill="white"/>
</svg>
