<svg width="42" height="42" viewBox="0 0 42 42" fill="none" xmlns="http://www.w3.org/2000/svg">
<rect width="42" height="42" rx="21" fill="black"/>
<g clip-path="url(#clip0_15304_297)">
<path d="M28.1907 25.3466C29.1262 26.5885 30.0908 27.8592 31.0554 29.13C29.1262 31.3827 26.7292 32.8267 23.8352 33.4332C20.6198 34.0975 17.5797 33.6065 14.6273 31.9892C17.2581 30.0542 19.8305 28.148 22.4321 26.2419C23.0167 26.7906 23.5721 27.3394 24.1276 27.8592C24.7414 28.4369 24.5076 28.4657 25.2968 28.0325C26.3784 27.426 27.2846 26.5885 27.9861 25.5777C28.0154 25.5199 28.0738 25.4621 28.1031 25.4044C28.0738 25.4044 28.1031 25.4044 28.1907 25.3466ZM16.7027 27.8881C15.9719 28.4369 15.2996 28.9278 14.6273 29.4477C14.1303 29.8231 13.6334 30.1697 13.1365 30.5452C12.9318 30.7184 12.7857 30.7184 12.5518 30.5163C10.3302 28.5524 8.9271 26.1264 8.40094 23.2383C7.87477 20.3213 8.34247 17.5488 9.74559 14.9206C9.77482 14.8629 9.83329 14.7762 9.86252 14.7185C9.86252 14.6896 9.89175 14.6896 9.95021 14.6607C11.8795 17.1733 13.838 19.686 15.7673 22.1986C15.7088 22.2852 15.6796 22.343 15.6211 22.4008C15.0365 23.0073 14.4519 23.6138 13.838 24.1914C13.6626 24.3647 13.6334 24.5091 13.7503 24.7112C14.3642 25.8665 15.2119 26.8195 16.2642 27.5993C16.4104 27.686 16.5273 27.7726 16.7027 27.8881ZM27.6061 9.95312C26.6707 10.6174 25.7353 11.2816 24.7999 11.917C23.1921 13.0434 21.5844 14.1986 20.0059 15.325C19.8013 15.4694 19.6551 15.4982 19.4797 15.2961C18.9536 14.7473 18.3982 14.2564 17.872 13.7076C17.7258 13.5632 17.5797 13.5343 17.375 13.621C16.1181 14.2564 15.1242 15.1517 14.3057 16.278C14.2473 16.3358 14.1888 16.4224 14.1303 16.5091C13.6626 15.9026 13.2242 15.3538 12.7857 14.7762C12.318 14.1697 11.8795 13.5632 11.441 12.9856C11.2949 12.7834 11.2656 12.639 11.4703 12.4369C13.7211 9.982 16.4981 8.53796 19.8305 8.19139C22.4613 7.90258 24.9753 8.42243 27.3138 9.66431C27.4015 9.72207 27.4892 9.75095 27.5769 9.80871C27.5769 9.89536 27.5769 9.92424 27.6061 9.95312ZM32.3709 27.2816C31.757 26.5018 31.2016 25.7798 30.6462 25.0578C29.36 23.3827 28.0738 21.6787 26.7584 20.0037C26.583 19.7726 26.583 19.6282 26.7876 19.426C27.343 18.8773 27.8692 18.3286 28.4246 17.7798C28.5708 17.6354 28.6292 17.491 28.5123 17.2889C27.8692 16.0759 26.9923 15.065 25.8522 14.2564C25.7645 14.1986 25.6768 14.112 25.5599 14.0542C25.6476 13.9676 25.7353 13.9098 25.7938 13.852C26.9046 13.0145 28.0154 12.2058 29.1262 11.3683C29.3015 11.2239 29.4477 11.1661 29.6523 11.3683C32.4293 13.852 33.9201 16.9423 34.0663 20.6679C34.1248 22.834 33.6278 24.8845 32.634 26.8195C32.5463 26.9351 32.4586 27.0795 32.3709 27.2816Z" fill="white"/>
</g>
<defs>
<clipPath id="clip0_15304_297">
<rect width="26.25" height="26.25" fill="white" transform="translate(7.875 7.875)"/>
</clipPath>
</defs>
</svg>
